G04*
G04 #@! TF.GenerationSoftware,Altium Limited,Altium Designer,18.1.9 (240)*
G04*
G04 Layer_Color=128*
%FSLAX24Y24*%
%MOIN*%
G70*
G01*
G75*
%ADD52C,0.0020*%
D52*
X2435Y9750D02*
X2765D01*
X2600Y9585D02*
Y9915D01*
X1435Y9750D02*
X1765D01*
X1600Y9585D02*
Y9915D01*
X435Y9750D02*
X765D01*
X600Y9585D02*
Y9915D01*
X1837Y2558D02*
X2034D01*
X1936Y2459D02*
Y2656D01*
X1837Y983D02*
X2034D01*
X1936Y884D02*
Y1081D01*
X971Y668D02*
X1129D01*
X1050Y589D02*
Y747D01*
X1011Y2873D02*
X1168D01*
X1089Y2794D02*
Y2951D01*
X485Y4550D02*
X815D01*
X650Y4385D02*
Y4715D01*
X485Y5550D02*
X815D01*
X650Y5385D02*
Y5715D01*
X682Y8784D02*
X918D01*
X800Y8666D02*
Y8902D01*
X682Y7800D02*
X918D01*
X800Y7682D02*
Y7918D01*
X682Y6816D02*
X918D01*
X800Y6698D02*
Y6934D01*
X10650Y3445D02*
X11161D01*
X10906Y3189D02*
Y3701D01*
X10650Y4764D02*
X11161D01*
X10906Y4508D02*
Y5020D01*
X48390Y3700D02*
X48510D01*
X48450Y3640D02*
Y3760D01*
X52990Y3200D02*
X53110D01*
X53050Y3140D02*
Y3260D01*
X50090Y5150D02*
X50210D01*
X50150Y5090D02*
Y5210D01*
X47690Y5900D02*
X47810D01*
X47750Y5840D02*
Y5960D01*
X46190Y6100D02*
X46310D01*
X46250Y6040D02*
Y6160D01*
X44340Y6000D02*
X44460D01*
X44400Y5940D02*
Y6060D01*
X36640Y6200D02*
X36760D01*
X36700Y6140D02*
Y6260D01*
X51690Y4150D02*
X51810D01*
X51750Y4090D02*
Y4210D01*
X13940Y4600D02*
X14060D01*
X14000Y4540D02*
Y4660D01*
X16190Y4950D02*
X16310D01*
X16250Y4890D02*
Y5010D01*
X32695Y3445D02*
X32815D01*
X32755Y3385D02*
Y3505D01*
X39740Y4550D02*
X39860D01*
X39800Y4490D02*
Y4610D01*
X43840Y4764D02*
X43960D01*
X43900Y4704D02*
Y4824D01*
X20364Y4724D02*
X20484D01*
X20424Y4664D02*
Y4784D01*
X32540Y6250D02*
X32660D01*
X32600Y6190D02*
Y6310D01*
X49490Y2531D02*
X49610D01*
X49550Y2472D02*
Y2591D01*
X42840Y2558D02*
X42960D01*
X42900Y2498D02*
Y2618D01*
X38840Y2531D02*
X38960D01*
X38900Y2472D02*
Y2591D01*
X33440Y2600D02*
X33560D01*
X33500Y2540D02*
Y2660D01*
X23990Y2600D02*
X24110D01*
X24050Y2540D02*
Y2660D01*
X30240Y2600D02*
X30360D01*
X30300Y2540D02*
Y2660D01*
X19490Y2700D02*
X19610D01*
X19550Y2640D02*
Y2760D01*
X20188Y3030D02*
X20308D01*
X20248Y2970D02*
Y3090D01*
X27766Y4626D02*
X27886D01*
X27826Y4566D02*
Y4686D01*
X3940Y5200D02*
X4060D01*
X4000Y5140D02*
Y5260D01*
X4590Y5550D02*
X4710D01*
X4650Y5490D02*
Y5610D01*
X9253Y5700D02*
X9373D01*
X9313Y5640D02*
Y5760D01*
X9240Y4500D02*
X9360D01*
X9300Y4440D02*
Y4560D01*
X34272Y3445D02*
X34783D01*
X34528Y3189D02*
Y3701D01*
X34272Y4764D02*
X34783D01*
X34528Y4508D02*
Y5020D01*
X53169Y4626D02*
X53681D01*
X53425Y4370D02*
Y4882D01*
X53169Y5945D02*
X53681D01*
X53425Y5689D02*
Y6201D01*
X41358Y4626D02*
X41870D01*
X41614Y4370D02*
Y4882D01*
X41358Y5945D02*
X41870D01*
X41614Y5689D02*
Y6201D01*
X46083Y3445D02*
X46594D01*
X46339Y3189D02*
Y3701D01*
X46083Y4764D02*
X46594D01*
X46339Y4508D02*
Y5020D01*
X17736Y4626D02*
X18248D01*
X17992Y4370D02*
Y4882D01*
X17736Y5945D02*
X18248D01*
X17992Y5689D02*
Y6201D01*
X29547Y4626D02*
X30059D01*
X29803Y4370D02*
Y4882D01*
X29547Y5945D02*
X30059D01*
X29803Y5689D02*
Y6201D01*
X22461Y3445D02*
X22972D01*
X22717Y3189D02*
Y3701D01*
X22461Y4764D02*
X22972D01*
X22717Y4508D02*
Y5020D01*
X17990Y3100D02*
X18110D01*
X18050Y3040D02*
Y3160D01*
X51040Y3550D02*
X51160D01*
X51100Y3490D02*
Y3610D01*
X53790Y2531D02*
X53910D01*
X53850Y2472D02*
Y2591D01*
X54190Y3500D02*
X54310D01*
X54250Y3440D02*
Y3560D01*
X49540Y3500D02*
X49660D01*
X49600Y3440D02*
Y3560D01*
X51240Y6200D02*
X51360D01*
X51300Y6140D02*
Y6260D01*
X48840Y5443D02*
X48960D01*
X48900Y5383D02*
Y5503D01*
X49040Y6450D02*
X49160D01*
X49100Y6390D02*
Y6510D01*
X41640Y3450D02*
X41760D01*
X41700Y3390D02*
Y3510D01*
X38790Y3550D02*
X38910D01*
X38850Y3490D02*
Y3610D01*
X36740Y3550D02*
X36860D01*
X36800Y3490D02*
Y3610D01*
X38990Y4700D02*
X39110D01*
X39050Y4640D02*
Y4760D01*
X36940Y4724D02*
X37060D01*
X37000Y4664D02*
Y4784D01*
X38090Y6100D02*
X38210D01*
X38150Y6040D02*
Y6160D01*
X34940Y6150D02*
X35060D01*
X35000Y6090D02*
Y6210D01*
X30540Y3500D02*
X30660D01*
X30600Y3440D02*
Y3560D01*
X26940Y3450D02*
X27060D01*
X27000Y3390D02*
Y3510D01*
X25090Y3400D02*
X25210D01*
X25150Y3340D02*
Y3460D01*
X26690Y4750D02*
X26810D01*
X26750Y4690D02*
Y4810D01*
X25240Y4600D02*
X25360D01*
X25300Y4540D02*
Y4660D01*
X27040Y6034D02*
X27160D01*
X27100Y5974D02*
Y6094D01*
X24990Y5950D02*
X25110D01*
X25050Y5890D02*
Y6010D01*
X23640Y6050D02*
X23760D01*
X23700Y5990D02*
Y6110D01*
X21940Y6150D02*
X22060D01*
X22000Y6090D02*
Y6210D01*
X20590Y6000D02*
X20710D01*
X20650Y5940D02*
Y6060D01*
X17290Y3100D02*
X17410D01*
X17350Y3040D02*
Y3160D01*
X15290Y3081D02*
X15410D01*
X15350Y3021D02*
Y3141D01*
X13690Y3300D02*
X13810D01*
X13750Y3240D02*
Y3360D01*
X15290Y6100D02*
X15410D01*
X15350Y6040D02*
Y6160D01*
X14140Y6034D02*
X14260D01*
X14200Y5974D02*
Y6094D01*
X12690Y5750D02*
X12810D01*
X12750Y5690D02*
Y5810D01*
X3940Y2531D02*
X4060D01*
X4000Y2472D02*
Y2591D01*
X7940Y2768D02*
X8060D01*
X8000Y2708D02*
Y2828D01*
X7740Y3700D02*
X7860D01*
X7800Y3640D02*
Y3760D01*
X5740Y6300D02*
X5860D01*
X5800Y6240D02*
Y6360D01*
X3940Y3200D02*
X4060D01*
X4000Y3140D02*
Y3260D01*
X7890Y4550D02*
X8010D01*
X7950Y4490D02*
Y4610D01*
X390Y1800D02*
X510D01*
X450Y1740D02*
Y1860D01*
X2640Y5225D02*
X2760D01*
X2700Y5165D02*
Y5285D01*
X3940Y6350D02*
X4060D01*
X4000Y6290D02*
Y6410D01*
X2990Y8850D02*
X3110D01*
X3050Y8790D02*
Y8910D01*
X2490Y6250D02*
X2610D01*
X2550Y6190D02*
Y6310D01*
X2390Y3274D02*
X2510D01*
X2450Y3214D02*
Y3334D01*
X2240Y8750D02*
X2360D01*
X2300Y8690D02*
Y8810D01*
X2310Y8230D02*
X2430D01*
X2370Y8170D02*
Y8290D01*
X2590Y600D02*
X2710D01*
X2650Y540D02*
Y660D01*
X3890Y1950D02*
X4010D01*
X3950Y1890D02*
Y2010D01*
X7940Y5000D02*
X8060D01*
X8000Y4940D02*
Y5060D01*
X7896Y2150D02*
X8016D01*
X7956Y2090D02*
Y2210D01*
X7740Y3150D02*
X7860D01*
X7800Y3090D02*
Y3210D01*
X7955Y1100D02*
X8075D01*
X8015Y1040D02*
Y1160D01*
X7040Y900D02*
X7160D01*
X7100Y840D02*
Y960D01*
X5990Y800D02*
X6110D01*
X6050Y740D02*
Y860D01*
X5040Y500D02*
X5160D01*
X5100Y440D02*
Y560D01*
X340Y900D02*
X460D01*
X400Y840D02*
Y960D01*
X340Y2350D02*
X460D01*
X400Y2290D02*
Y2410D01*
X1340Y3600D02*
X1460D01*
X1400Y3540D02*
Y3660D01*
X640Y3650D02*
X760D01*
X700Y3590D02*
Y3710D01*
X1440Y5150D02*
X1560D01*
X1500Y5090D02*
Y5210D01*
X1140Y8400D02*
X1260D01*
X1200Y8340D02*
Y8460D01*
X2790Y7350D02*
X2910D01*
X2850Y7290D02*
Y7410D01*
X1840Y8250D02*
X1960D01*
X1900Y8190D02*
Y8310D01*
M02*
