M48
;Layer_Color=9474304
;FILE_FORMAT=2:5
INCH,LZ
;TYPE=PLATED
T1F00S00C0.01200
T3F00S00C0.02362
T4F00S00C0.03300
T5F00S00C0.05118
;TYPE=NON_PLATED
T6F00S00C0.01968
%
T01
X04955Y0025315
X0496Y0035
X04845Y0037
X0489Y0054433
X0491Y00645
X04775Y0059
X04625Y0061
X05015Y00515
X0513Y0062
X05175Y00415
X0511Y00355
X05305Y0032
X05385Y0025315
X05425Y0035
X0439Y0047638
X0444Y006
X0429Y0025576
X0417Y00345
X03885Y00355
X0389Y0025315
X03905Y0047
X0398Y00455
X037Y0047244
X0368Y00355
X0367Y0062
X03815Y0061
X035Y00615
X0326Y00625
X0327551Y0034449
X0335Y0026
X0303
X0306Y0035
X027Y00345
X02675Y00475
X027826Y004626
X0271Y0060339
X02505Y00595
X0237Y00605
X022Y00615
X02065Y006
X0204244Y0047244
X0202482Y00303
X01955Y0027
X01805Y0031
X01735
X01535Y0030811
X01625Y00495
X01535Y0061
X0142Y0060339
X0253Y0046
X02515Y0034
X02405Y0026
X01375Y0033
X014Y0046
X01275Y00575
X0093126Y0057
X0093Y0045
X00795Y00455
X008Y005
X0078Y0037
Y00315
X008Y0027682
X0079559Y00215
X008015Y0011
X0071Y0009
X00605Y0008
X0051Y0005
X00265Y0006
X0004Y0009
X00045Y0018
X0004Y00235
X0007Y00365
X0014Y0036
X00245Y003274
X004Y0032
Y0025315
X00395Y00195
X004Y0052
X00465Y00555
X004Y00635
X00255Y00625
X0027Y005225
X0015Y00515
X00285Y00735
X0058Y0063
X00305Y00885
X0023Y00875
X00237Y00823
X0019Y00825
X0012Y0084
T03
X0008Y0068157
Y0078
Y0087843
T04
X00065Y00455
Y00555
X0006Y00975
X0016
X0026
T05
X0463386Y0034449
Y0047638
X0534252Y004626
Y0059449
X0416142
Y004626
X0345276Y0047638
Y0034449
X0298031Y004626
Y0059449
X0227165Y0047638
Y0034449
X0179921Y004626
Y0059449
X0109055Y0047638
Y0034449
T06
X0019358Y0009828
Y0025576
M30
