G04*
G04 #@! TF.GenerationSoftware,Altium Limited,Altium Designer,18.1.9 (240)*
G04*
G04 Layer_Physical_Order=2*
G04 Layer_Color=16711680*
%FSLAX24Y24*%
%MOIN*%
G70*
G01*
G75*
%ADD10C,0.0100*%
%ADD15R,0.0300X0.0300*%
%ADD16R,0.0300X0.0300*%
%ADD28C,0.0150*%
%ADD29O,0.0591X0.0787*%
%ADD30C,0.0591*%
G04:AMPARAMS|DCode=31|XSize=84.6mil|YSize=31.5mil|CornerRadius=7.9mil|HoleSize=0mil|Usage=FLASHONLY|Rotation=0.000|XOffset=0mil|YOffset=0mil|HoleType=Round|Shape=RoundedRectangle|*
%AMROUNDEDRECTD31*
21,1,0.0846,0.0157,0,0,0.0*
21,1,0.0689,0.0315,0,0,0.0*
1,1,0.0157,0.0344,-0.0079*
1,1,0.0157,-0.0344,-0.0079*
1,1,0.0157,-0.0344,0.0079*
1,1,0.0157,0.0344,0.0079*
%
%ADD31ROUNDEDRECTD31*%
%ADD32C,0.0197*%
%ADD33O,0.0787X0.0591*%
%ADD34C,0.0394*%
%ADD35C,0.0240*%
%ADD36R,0.0394X0.0472*%
%ADD37R,0.0827X0.0157*%
%ADD38R,0.0748X0.0709*%
%ADD39R,0.0413X0.0236*%
%ADD40R,0.0984X0.0472*%
%ADD41R,0.0787X0.1378*%
G36*
X20550Y31600D02*
X26297D01*
Y31150D01*
X26309Y31091D01*
X26342Y31042D01*
X26391Y31009D01*
X26450Y30997D01*
X31034D01*
X31044Y30947D01*
X30971Y30917D01*
X30889Y30854D01*
X30825Y30771D01*
X30785Y30675D01*
X30774Y30592D01*
X30737Y30556D01*
X30724Y30551D01*
X30712Y30553D01*
X25062D01*
X25059Y30559D01*
X24986Y30607D01*
X24900Y30624D01*
X24814Y30607D01*
X24741Y30559D01*
X24693Y30486D01*
X24676Y30400D01*
X24690Y30328D01*
X24666Y30287D01*
X24616Y30291D01*
Y30542D01*
X23432D01*
Y30384D01*
X22352D01*
Y30995D01*
X21365D01*
Y30428D01*
X19850D01*
Y30500D01*
X19350D01*
Y30428D01*
X19250D01*
Y30500D01*
X18750D01*
Y30000D01*
X19250D01*
Y30072D01*
X19350D01*
Y30000D01*
X19850D01*
Y30072D01*
X21365D01*
Y29478D01*
X18974D01*
X18578Y29874D01*
Y30850D01*
X18565Y30918D01*
X18526Y30976D01*
X18526Y30976D01*
X18294Y31208D01*
X18299Y31250D01*
X18289Y31327D01*
X18259Y31400D01*
X18212Y31462D01*
X18150Y31509D01*
X18077Y31539D01*
X18000Y31549D01*
X17923Y31539D01*
X17850Y31509D01*
X17788Y31462D01*
X17741Y31400D01*
X17711Y31327D01*
X17701Y31250D01*
X17711Y31173D01*
X17741Y31100D01*
X17788Y31038D01*
X17850Y30991D01*
X17923Y30961D01*
X18000Y30951D01*
X18042Y30956D01*
X18222Y30776D01*
Y30533D01*
X18172Y30508D01*
X18150Y30525D01*
X18077Y30555D01*
X18000Y30565D01*
X17923Y30555D01*
X17850Y30525D01*
X17788Y30477D01*
X17741Y30415D01*
X17711Y30343D01*
X17701Y30266D01*
X17711Y30188D01*
X17741Y30116D01*
X17788Y30054D01*
X17822Y30028D01*
Y29399D01*
X17752D01*
X17648Y29385D01*
X17552Y29345D01*
X17470Y29282D01*
X17406Y29199D01*
X17403Y29191D01*
X17353Y29201D01*
Y33086D01*
X17403Y33089D01*
X17415Y32998D01*
X17455Y32902D01*
X17518Y32820D01*
X17601Y32756D01*
X17697Y32716D01*
X17800Y32703D01*
X17903Y32716D01*
X17999Y32756D01*
X18082Y32820D01*
X18116Y32864D01*
X18166Y32868D01*
X19347Y31687D01*
X19346Y31680D01*
X19363Y31594D01*
X19411Y31521D01*
X19484Y31473D01*
X19570Y31456D01*
X19656Y31473D01*
X19729Y31521D01*
X19777Y31594D01*
X19794Y31680D01*
X19777Y31766D01*
X19729Y31839D01*
X19656Y31887D01*
X19570Y31904D01*
X19563Y31903D01*
X18812Y32654D01*
X18830Y32707D01*
X18903Y32716D01*
X18999Y32756D01*
X19082Y32820D01*
X19145Y32902D01*
X19185Y32998D01*
X19199Y33102D01*
Y33298D01*
X19185Y33402D01*
X19145Y33498D01*
X19082Y33580D01*
X18999Y33644D01*
X18903Y33684D01*
X18800Y33697D01*
X18697Y33684D01*
X18601Y33644D01*
X18518Y33580D01*
X18455Y33498D01*
X18415Y33402D01*
X18401Y33298D01*
Y33136D01*
X18351Y33115D01*
X18199Y33268D01*
Y33298D01*
X18185Y33402D01*
X18145Y33498D01*
X18082Y33580D01*
X17999Y33644D01*
X17903Y33684D01*
X17800Y33697D01*
X17697Y33684D01*
X17601Y33644D01*
X17518Y33580D01*
X17455Y33498D01*
X17415Y33402D01*
X17403Y33311D01*
X17353Y33314D01*
Y33747D01*
X20550D01*
Y31600D01*
D02*
G37*
G36*
X41714Y30947D02*
X41642Y30917D01*
X41559Y30854D01*
X41496Y30771D01*
X41456Y30675D01*
X41442Y30572D01*
X41456Y30468D01*
X41475Y30422D01*
X41106Y30053D01*
X40550D01*
Y30150D01*
X40050D01*
Y30053D01*
X31276D01*
X31202Y30127D01*
X31220Y30179D01*
X31274Y30187D01*
X31370Y30226D01*
X31452Y30290D01*
X31516Y30372D01*
X31556Y30468D01*
X31563Y30522D01*
X31170D01*
Y30622D01*
X31563D01*
X31556Y30675D01*
X31516Y30771D01*
X31452Y30854D01*
X31370Y30917D01*
X31297Y30947D01*
X31307Y30997D01*
X33593D01*
X33603Y30947D01*
X33530Y30917D01*
X33448Y30854D01*
X33384Y30771D01*
X33344Y30675D01*
X33337Y30622D01*
X33730D01*
X34122D01*
X34115Y30675D01*
X34075Y30771D01*
X34011Y30854D01*
X33929Y30917D01*
X33856Y30947D01*
X33866Y30997D01*
X41704D01*
X41714Y30947D01*
D02*
G37*
G36*
X66247Y25303D02*
X65895D01*
X65885Y25353D01*
X65923Y25369D01*
X66006Y25432D01*
X66069Y25515D01*
X66109Y25611D01*
X66116Y25664D01*
X65332D01*
X65339Y25611D01*
X65379Y25515D01*
X65442Y25432D01*
X65525Y25369D01*
X65563Y25353D01*
X65553Y25303D01*
X63336D01*
X63326Y25353D01*
X63364Y25369D01*
X63447Y25432D01*
X63510Y25515D01*
X63550Y25611D01*
X63557Y25664D01*
X62773D01*
X62780Y25611D01*
X62820Y25515D01*
X62883Y25432D01*
X62966Y25369D01*
X63004Y25353D01*
X62994Y25303D01*
X55230D01*
X55220Y25353D01*
X55258Y25369D01*
X55341Y25432D01*
X55404Y25515D01*
X55444Y25611D01*
X55458Y25714D01*
X55444Y25817D01*
X55404Y25914D01*
X55341Y25996D01*
X55258Y26059D01*
X55162Y26099D01*
X55059Y26113D01*
X54956Y26099D01*
X54860Y26059D01*
X54777Y25996D01*
X54714Y25914D01*
X54674Y25817D01*
X54660Y25714D01*
X54674Y25611D01*
X54714Y25515D01*
X54777Y25432D01*
X54860Y25369D01*
X54898Y25353D01*
X54888Y25303D01*
X52671D01*
X52661Y25353D01*
X52699Y25369D01*
X52782Y25432D01*
X52845Y25515D01*
X52885Y25611D01*
X52899Y25714D01*
X52885Y25817D01*
X52845Y25914D01*
X52782Y25996D01*
X52699Y26059D01*
X52603Y26099D01*
X52500Y26113D01*
X52397Y26099D01*
X52301Y26059D01*
X52218Y25996D01*
X52155Y25914D01*
X52115Y25817D01*
X52101Y25714D01*
X52115Y25611D01*
X52155Y25515D01*
X52218Y25432D01*
X52301Y25369D01*
X52339Y25353D01*
X52329Y25303D01*
X44550D01*
X44540Y25353D01*
X44579Y25369D01*
X44661Y25432D01*
X44725Y25515D01*
X44765Y25611D01*
X44772Y25664D01*
X43987D01*
X43994Y25611D01*
X44034Y25515D01*
X44098Y25432D01*
X44180Y25369D01*
X44219Y25353D01*
X44209Y25303D01*
X41991D01*
X41981Y25353D01*
X42020Y25369D01*
X42102Y25432D01*
X42166Y25515D01*
X42206Y25611D01*
X42213Y25664D01*
X41428D01*
X41435Y25611D01*
X41475Y25515D01*
X41539Y25432D01*
X41621Y25369D01*
X41660Y25353D01*
X41650Y25303D01*
X33850D01*
X33840Y25353D01*
X33879Y25369D01*
X33961Y25432D01*
X34025Y25515D01*
X34065Y25611D01*
X34072Y25664D01*
X33287D01*
X33294Y25611D01*
X33334Y25515D01*
X33398Y25432D01*
X33480Y25369D01*
X33519Y25353D01*
X33509Y25303D01*
X31291D01*
X31281Y25353D01*
X31320Y25369D01*
X31402Y25432D01*
X31466Y25515D01*
X31506Y25611D01*
X31513Y25664D01*
X30728D01*
X30735Y25611D01*
X30775Y25515D01*
X30839Y25432D01*
X30921Y25369D01*
X30960Y25353D01*
X30950Y25303D01*
X26450D01*
X26391Y25291D01*
X26342Y25258D01*
X26309Y25209D01*
X26297Y25150D01*
Y23603D01*
X19474D01*
X19433Y23624D01*
Y23910D01*
X18839D01*
Y23624D01*
X18798Y23603D01*
X17353D01*
Y27799D01*
X17403Y27809D01*
X17406Y27801D01*
X17470Y27718D01*
X17552Y27655D01*
X17648Y27615D01*
X17752Y27601D01*
X17800D01*
Y28000D01*
Y28399D01*
X17752D01*
X17648Y28385D01*
X17552Y28345D01*
X17470Y28282D01*
X17406Y28199D01*
X17403Y28191D01*
X17353Y28201D01*
Y28799D01*
X17403Y28809D01*
X17406Y28801D01*
X17470Y28718D01*
X17552Y28655D01*
X17648Y28615D01*
X17752Y28601D01*
X17948D01*
X18052Y28615D01*
X18148Y28655D01*
X18230Y28718D01*
X18294Y28801D01*
X18302Y28822D01*
X20990D01*
X21017Y28772D01*
X20993Y28736D01*
X20976Y28650D01*
X20979Y28632D01*
X19524Y27176D01*
X19485Y27118D01*
X19472Y27050D01*
Y26853D01*
X19469Y26849D01*
X19433Y26816D01*
X19186D01*
Y26530D01*
X19433D01*
Y26563D01*
X19483Y26578D01*
X19491Y26565D01*
X19564Y26517D01*
X19650Y26500D01*
X19736Y26517D01*
X19809Y26565D01*
X19857Y26638D01*
X19874Y26724D01*
X19857Y26810D01*
X19828Y26853D01*
Y26976D01*
X21204Y28351D01*
X21207Y28350D01*
X21793D01*
X21796Y28351D01*
X21850Y28298D01*
Y28050D01*
X21922D01*
Y27800D01*
X21850D01*
Y27300D01*
X22350D01*
Y27372D01*
X22600D01*
Y27300D01*
X22672D01*
Y27109D01*
X22505Y26942D01*
X22232D01*
Y26506D01*
Y26400D01*
X22539D01*
X22846D01*
Y26506D01*
Y26778D01*
X22976Y26909D01*
X22976Y26909D01*
X23015Y26967D01*
X23028Y27035D01*
X23028Y27035D01*
Y27300D01*
X23100D01*
Y27800D01*
X22600D01*
Y27728D01*
X22350D01*
Y27800D01*
X22278D01*
Y28050D01*
X22350D01*
Y28122D01*
X22550D01*
Y28050D01*
X23050D01*
Y28550D01*
X22550D01*
Y28478D01*
X22350D01*
Y28550D01*
X22102D01*
X21577Y29075D01*
X21596Y29122D01*
X23432D01*
Y28964D01*
X24616D01*
Y28972D01*
X24700D01*
Y28900D01*
X25005D01*
X25026Y28896D01*
X25047Y28900D01*
X25118D01*
X25138Y28854D01*
X25042Y28758D01*
X25009Y28709D01*
X24997Y28650D01*
Y28612D01*
X24991Y28609D01*
X24950Y28547D01*
X24900Y28550D01*
X24897Y28550D01*
X24700D01*
Y28350D01*
X24935D01*
X24950Y28353D01*
X24991Y28291D01*
X25064Y28243D01*
X25074Y28241D01*
X25085Y28188D01*
X25041Y28159D01*
X24993Y28086D01*
X24976Y28000D01*
X24993Y27914D01*
X25041Y27841D01*
X25114Y27793D01*
X25200Y27776D01*
X25286Y27793D01*
X25359Y27841D01*
X25362Y27847D01*
X28866D01*
X28884Y27797D01*
X28843Y27736D01*
X28826Y27650D01*
X28843Y27564D01*
X28891Y27491D01*
X28964Y27443D01*
X29050Y27426D01*
X29136Y27443D01*
X29179Y27472D01*
X29400D01*
Y27400D01*
X29900D01*
Y27847D01*
X30860D01*
X30877Y27797D01*
X30839Y27768D01*
X30775Y27685D01*
X30735Y27589D01*
X30722Y27486D01*
X30735Y27383D01*
X30755Y27336D01*
X30621Y27203D01*
X29900D01*
Y27300D01*
X29400D01*
Y27203D01*
X25212D01*
X25209Y27209D01*
X25136Y27257D01*
X25050Y27274D01*
X24971Y27259D01*
X24950Y27303D01*
Y27800D01*
X24450D01*
Y27300D01*
X24522D01*
Y26928D01*
X23968D01*
Y26942D01*
X23354D01*
Y26506D01*
X23968D01*
Y26552D01*
X24007Y26564D01*
X24050Y26534D01*
Y26346D01*
X24300D01*
Y26296D01*
X24350D01*
Y26046D01*
X24527D01*
Y25946D01*
X24050D01*
Y25865D01*
X24000Y25858D01*
X23968Y25888D01*
Y26194D01*
X23354D01*
Y25758D01*
X23663D01*
X23832Y25588D01*
X23882Y25555D01*
X23941Y25544D01*
X24050D01*
Y25446D01*
X24550D01*
Y25627D01*
X24600Y25648D01*
X24672Y25576D01*
Y25300D01*
X24600D01*
Y24887D01*
X24500D01*
Y25300D01*
X24165D01*
X24150Y25303D01*
X23750D01*
Y25400D01*
X23250D01*
Y24900D01*
X23205Y24887D01*
X23195D01*
X23150Y24900D01*
Y25400D01*
X22692D01*
Y25758D01*
X22846D01*
Y26132D01*
Y26300D01*
X22539D01*
X22232D01*
Y26132D01*
Y25758D01*
X22386D01*
Y25350D01*
X21920D01*
Y24887D01*
X21820D01*
Y25350D01*
X21723D01*
Y25750D01*
X22000D01*
Y26250D01*
X21500D01*
Y25966D01*
X21497Y25964D01*
X21429Y25965D01*
X21422Y25972D01*
X21424Y25982D01*
X21407Y26067D01*
X21359Y26140D01*
X21286Y26189D01*
X21200Y26206D01*
X21114Y26189D01*
X21041Y26140D01*
X20993Y26067D01*
X20976Y25982D01*
X20977Y25975D01*
X20375Y25373D01*
X19974D01*
Y25553D01*
Y25682D01*
X18947D01*
Y25553D01*
Y25297D01*
Y25041D01*
Y24786D01*
Y24530D01*
X18947Y24530D01*
X18943Y24481D01*
X18934Y24433D01*
X18949Y24355D01*
X18959Y24341D01*
X18935Y24297D01*
X18839D01*
Y24010D01*
X19433D01*
Y24297D01*
X19336D01*
X19313Y24341D01*
X19323Y24355D01*
X19338Y24433D01*
X19329Y24480D01*
X19365Y24530D01*
X19974D01*
Y24530D01*
X21536D01*
X21553Y24480D01*
X21499Y24438D01*
X21440Y24362D01*
X21403Y24273D01*
X21391Y24177D01*
X21403Y24081D01*
X21440Y23992D01*
X21499Y23916D01*
X21575Y23857D01*
X21664Y23820D01*
X21760Y23808D01*
X21856Y23820D01*
X21945Y23857D01*
X22021Y23916D01*
X22080Y23992D01*
X22117Y24081D01*
X22129Y24177D01*
X22117Y24273D01*
X22080Y24362D01*
X22021Y24438D01*
X21967Y24480D01*
X21984Y24530D01*
X22536D01*
X22553Y24480D01*
X22499Y24438D01*
X22440Y24362D01*
X22403Y24273D01*
X22391Y24177D01*
X22403Y24081D01*
X22440Y23992D01*
X22499Y23916D01*
X22575Y23857D01*
X22664Y23820D01*
X22760Y23808D01*
X22856Y23820D01*
X22945Y23857D01*
X23021Y23916D01*
X23080Y23992D01*
X23117Y24081D01*
X23129Y24177D01*
X23117Y24273D01*
X23080Y24362D01*
X23021Y24438D01*
X22967Y24480D01*
X22984Y24530D01*
X23536D01*
X23553Y24480D01*
X23499Y24438D01*
X23440Y24362D01*
X23403Y24273D01*
X23391Y24177D01*
X23403Y24081D01*
X23440Y23992D01*
X23499Y23916D01*
X23575Y23857D01*
X23664Y23820D01*
X23760Y23808D01*
X23856Y23820D01*
X23945Y23857D01*
X24021Y23916D01*
X24080Y23992D01*
X24117Y24081D01*
X24129Y24177D01*
X24117Y24273D01*
X24080Y24362D01*
X24021Y24438D01*
X23967Y24480D01*
X23984Y24530D01*
X24536D01*
X24553Y24480D01*
X24499Y24438D01*
X24440Y24362D01*
X24403Y24273D01*
X24391Y24177D01*
X24403Y24081D01*
X24440Y23992D01*
X24499Y23916D01*
X24575Y23857D01*
X24664Y23820D01*
X24760Y23808D01*
X24856Y23820D01*
X24945Y23857D01*
X25021Y23916D01*
X25080Y23992D01*
X25117Y24081D01*
X25129Y24177D01*
X25117Y24273D01*
X25080Y24362D01*
X25021Y24438D01*
X24945Y24497D01*
X24884Y24522D01*
X24879Y24578D01*
X24885Y24582D01*
X24976Y24674D01*
X25015Y24732D01*
X25028Y24800D01*
X25100D01*
Y25300D01*
X25028D01*
Y25650D01*
X25028Y25650D01*
X25015Y25718D01*
X24976Y25776D01*
X24883Y25869D01*
Y26745D01*
X24878Y26770D01*
Y26840D01*
X24928Y26867D01*
X24964Y26843D01*
X25050Y26826D01*
X25136Y26843D01*
X25209Y26891D01*
X25212Y26897D01*
X29400D01*
Y26800D01*
X29900D01*
Y26897D01*
X30685D01*
X30743Y26909D01*
X30793Y26942D01*
X30971Y27120D01*
X31017Y27101D01*
X31120Y27087D01*
X31224Y27101D01*
X31320Y27141D01*
X31402Y27204D01*
X31466Y27286D01*
X31485Y27333D01*
X33315D01*
X33334Y27286D01*
X33398Y27204D01*
X33480Y27141D01*
X33576Y27101D01*
X33680Y27087D01*
X33783Y27101D01*
X33879Y27141D01*
X33961Y27204D01*
X34025Y27286D01*
X34065Y27383D01*
X34078Y27486D01*
X34065Y27589D01*
X34025Y27685D01*
X33961Y27768D01*
X33923Y27797D01*
X33940Y27847D01*
X33987D01*
X34342Y27492D01*
X34391Y27459D01*
X34450Y27447D01*
X40050D01*
Y27350D01*
X40550D01*
Y27447D01*
X41427D01*
X41435Y27383D01*
X41475Y27286D01*
X41539Y27204D01*
X41621Y27141D01*
X41717Y27101D01*
X41820Y27087D01*
X41924Y27101D01*
X42020Y27141D01*
X42102Y27204D01*
X42166Y27286D01*
X42185Y27333D01*
X44015D01*
X44034Y27286D01*
X44098Y27204D01*
X44180Y27141D01*
X44276Y27101D01*
X44380Y27087D01*
X44483Y27101D01*
X44579Y27141D01*
X44661Y27204D01*
X44725Y27286D01*
X44765Y27383D01*
X44778Y27486D01*
X44765Y27589D01*
X44725Y27685D01*
X44661Y27768D01*
X44579Y27831D01*
X44483Y27871D01*
X44380Y27885D01*
X44276Y27871D01*
X44180Y27831D01*
X44098Y27768D01*
X44034Y27685D01*
X44015Y27639D01*
X42185D01*
X42166Y27685D01*
X42102Y27768D01*
X42020Y27831D01*
X41924Y27871D01*
X41820Y27885D01*
X41717Y27871D01*
X41621Y27831D01*
X41539Y27768D01*
X41527Y27753D01*
X40550D01*
Y27850D01*
X40050D01*
Y27753D01*
X34513D01*
X34158Y28108D01*
X34109Y28141D01*
X34050Y28153D01*
X25362D01*
X25359Y28159D01*
X25286Y28207D01*
X25276Y28209D01*
X25265Y28262D01*
X25309Y28291D01*
X25357Y28364D01*
X25374Y28450D01*
X25357Y28536D01*
X25315Y28599D01*
X25363Y28647D01*
X30806D01*
X30825Y28601D01*
X30889Y28518D01*
X30971Y28455D01*
X31067Y28415D01*
X31170Y28401D01*
X31274Y28415D01*
X31370Y28455D01*
X31452Y28518D01*
X31516Y28601D01*
X31535Y28647D01*
X33365D01*
X33384Y28601D01*
X33448Y28518D01*
X33530Y28455D01*
X33626Y28415D01*
X33730Y28401D01*
X33833Y28415D01*
X33929Y28455D01*
X34011Y28518D01*
X34075Y28601D01*
X34115Y28697D01*
X34128Y28800D01*
X34115Y28903D01*
X34075Y28999D01*
X34011Y29082D01*
X33929Y29145D01*
X33833Y29185D01*
X33730Y29199D01*
X33626Y29185D01*
X33530Y29145D01*
X33448Y29082D01*
X33384Y28999D01*
X33365Y28953D01*
X31535D01*
X31516Y28999D01*
X31452Y29082D01*
X31370Y29145D01*
X31274Y29185D01*
X31170Y29199D01*
X31067Y29185D01*
X30971Y29145D01*
X30889Y29082D01*
X30825Y28999D01*
X30806Y28953D01*
X30303D01*
Y29250D01*
X30400D01*
Y29750D01*
X29900D01*
Y29250D01*
X29997D01*
Y28953D01*
X25300D01*
X25250Y28943D01*
X25200Y28969D01*
Y29053D01*
X25204Y29074D01*
X25200Y29095D01*
Y29400D01*
X24700D01*
Y29328D01*
X24616D01*
Y29636D01*
X23432D01*
Y29478D01*
X23019D01*
X23014Y29528D01*
X23086Y29543D01*
X23159Y29591D01*
X23207Y29664D01*
X23224Y29750D01*
X23207Y29836D01*
X23178Y29879D01*
Y30027D01*
X23432D01*
Y29869D01*
X24616D01*
Y29922D01*
X24700D01*
Y29800D01*
X24950D01*
X25200D01*
Y29922D01*
X28767D01*
X28794Y29872D01*
X28793Y29870D01*
X28776Y29784D01*
X28792Y29703D01*
X28790Y29690D01*
X28770Y29653D01*
X27129D01*
X27125Y29659D01*
X27052Y29707D01*
X26966Y29724D01*
X26880Y29707D01*
X26808Y29659D01*
X26759Y29586D01*
X26742Y29500D01*
X26759Y29414D01*
X26808Y29341D01*
X26880Y29293D01*
X26966Y29276D01*
X27052Y29293D01*
X27125Y29341D01*
X27129Y29347D01*
X29438D01*
X29441Y29341D01*
X29514Y29293D01*
X29600Y29276D01*
X29686Y29293D01*
X29759Y29341D01*
X29807Y29414D01*
X29824Y29500D01*
X29807Y29586D01*
X29759Y29659D01*
X29686Y29707D01*
X29600Y29724D01*
X29514Y29707D01*
X29441Y29659D01*
X29438Y29653D01*
X29230D01*
X29210Y29690D01*
X29208Y29703D01*
X29224Y29784D01*
X29207Y29870D01*
X29206Y29872D01*
X29233Y29922D01*
X29900D01*
Y29850D01*
X30400D01*
Y30247D01*
X30649D01*
X31104Y29792D01*
X31154Y29759D01*
X31212Y29747D01*
X40050D01*
Y29650D01*
X40550D01*
Y29747D01*
X41169D01*
X41228Y29759D01*
X41277Y29792D01*
X41691Y30206D01*
X41738Y30187D01*
X41841Y30173D01*
X41944Y30187D01*
X42040Y30226D01*
X42123Y30290D01*
X42186Y30372D01*
X42205Y30419D01*
X44036D01*
X44055Y30372D01*
X44118Y30290D01*
X44201Y30226D01*
X44297Y30187D01*
X44400Y30173D01*
X44503Y30187D01*
X44599Y30226D01*
X44682Y30290D01*
X44745Y30372D01*
X44785Y30468D01*
X44799Y30572D01*
X44785Y30675D01*
X44745Y30771D01*
X44682Y30854D01*
X44599Y30917D01*
X44527Y30947D01*
X44537Y30997D01*
X52363D01*
X52373Y30947D01*
X52301Y30917D01*
X52218Y30854D01*
X52155Y30771D01*
X52115Y30675D01*
X52108Y30622D01*
X52500D01*
Y30572D01*
D01*
Y30622D01*
X52892D01*
X52885Y30675D01*
X52845Y30771D01*
X52782Y30854D01*
X52699Y30917D01*
X52627Y30947D01*
X52637Y30997D01*
X54923D01*
X54932Y30947D01*
X54860Y30917D01*
X54777Y30854D01*
X54714Y30771D01*
X54674Y30675D01*
X54667Y30622D01*
X55059D01*
Y30572D01*
D01*
Y30622D01*
X55451D01*
X55444Y30675D01*
X55404Y30771D01*
X55341Y30854D01*
X55258Y30917D01*
X55186Y30947D01*
X55196Y30997D01*
X63028D01*
X63038Y30947D01*
X62966Y30917D01*
X62883Y30854D01*
X62820Y30771D01*
X62780Y30675D01*
X62766Y30572D01*
X62780Y30468D01*
X62820Y30372D01*
X62883Y30290D01*
X62966Y30226D01*
X63062Y30187D01*
X63165Y30173D01*
X63268Y30187D01*
X63364Y30226D01*
X63447Y30290D01*
X63510Y30372D01*
X63550Y30468D01*
X63564Y30572D01*
X63550Y30675D01*
X63510Y30771D01*
X63447Y30854D01*
X63364Y30917D01*
X63292Y30947D01*
X63302Y30997D01*
X65588D01*
X65597Y30947D01*
X65525Y30917D01*
X65442Y30854D01*
X65379Y30771D01*
X65339Y30675D01*
X65325Y30572D01*
X65339Y30468D01*
X65379Y30372D01*
X65442Y30290D01*
X65525Y30226D01*
X65621Y30187D01*
X65724Y30173D01*
X65827Y30187D01*
X65923Y30226D01*
X66006Y30290D01*
X66069Y30372D01*
X66109Y30468D01*
X66123Y30572D01*
X66109Y30675D01*
X66069Y30771D01*
X66006Y30854D01*
X65923Y30917D01*
X65851Y30947D01*
X65861Y30997D01*
X66247D01*
Y25303D01*
D02*
G37*
%LPC*%
G36*
X19800Y33697D02*
X19697Y33684D01*
X19601Y33644D01*
X19518Y33580D01*
X19455Y33498D01*
X19415Y33402D01*
X19401Y33298D01*
Y33102D01*
X19415Y32998D01*
X19455Y32902D01*
X19518Y32820D01*
X19601Y32756D01*
X19697Y32716D01*
X19800Y32703D01*
X19903Y32716D01*
X19999Y32756D01*
X20082Y32820D01*
X20145Y32902D01*
X20185Y32998D01*
X20199Y33102D01*
Y33298D01*
X20185Y33402D01*
X20145Y33498D01*
X20082Y33580D01*
X19999Y33644D01*
X19903Y33684D01*
X19800Y33697D01*
D02*
G37*
G36*
X18000Y32534D02*
X17923Y32523D01*
X17850Y32494D01*
X17788Y32446D01*
X17741Y32384D01*
X17711Y32312D01*
X17701Y32234D01*
X17711Y32157D01*
X17741Y32085D01*
X17788Y32023D01*
X17850Y31975D01*
X17923Y31945D01*
X18000Y31935D01*
X18077Y31945D01*
X18150Y31975D01*
X18212Y32023D01*
X18259Y32085D01*
X18289Y32157D01*
X18299Y32234D01*
X18289Y32312D01*
X18259Y32384D01*
X18212Y32446D01*
X18150Y32494D01*
X18077Y32523D01*
X18000Y32534D01*
D02*
G37*
G36*
X24616Y31447D02*
X24074D01*
Y31161D01*
X24616D01*
Y31447D01*
D02*
G37*
G36*
X23974D02*
X23432D01*
Y31161D01*
X23974D01*
Y31447D01*
D02*
G37*
G36*
X19250Y31100D02*
X19050D01*
Y30900D01*
X19250D01*
Y31100D01*
D02*
G37*
G36*
X19850D02*
X19650D01*
Y30900D01*
X19850D01*
Y31100D01*
D02*
G37*
G36*
X19550D02*
X19350D01*
Y30900D01*
X19550D01*
Y31100D01*
D02*
G37*
G36*
X18950D02*
X18750D01*
Y30900D01*
X18950D01*
Y31100D01*
D02*
G37*
G36*
X24616Y31061D02*
X24074D01*
Y30775D01*
X24616D01*
Y31061D01*
D02*
G37*
G36*
X23974D02*
X23432D01*
Y30775D01*
X23974D01*
Y31061D01*
D02*
G37*
G36*
X19850Y30800D02*
X19650D01*
Y30600D01*
X19850D01*
Y30800D01*
D02*
G37*
G36*
X19550D02*
X19350D01*
Y30600D01*
X19550D01*
Y30800D01*
D02*
G37*
G36*
X19250D02*
X19050D01*
Y30600D01*
X19250D01*
Y30800D01*
D02*
G37*
G36*
X18950D02*
X18750D01*
Y30600D01*
X18950D01*
Y30800D01*
D02*
G37*
G36*
X34122Y30522D02*
X33779D01*
Y30180D01*
X33833Y30187D01*
X33929Y30226D01*
X34011Y30290D01*
X34075Y30372D01*
X34115Y30468D01*
X34122Y30522D01*
D02*
G37*
G36*
X33679D02*
X33337D01*
X33344Y30468D01*
X33384Y30372D01*
X33448Y30290D01*
X33530Y30226D01*
X33626Y30187D01*
X33679Y30180D01*
Y30522D01*
D02*
G37*
G36*
X55451Y30522D02*
X55109D01*
Y30180D01*
X55162Y30187D01*
X55258Y30226D01*
X55341Y30290D01*
X55404Y30372D01*
X55444Y30468D01*
X55451Y30522D01*
D02*
G37*
G36*
X52892D02*
X52550D01*
Y30180D01*
X52603Y30187D01*
X52699Y30226D01*
X52782Y30290D01*
X52845Y30372D01*
X52885Y30468D01*
X52892Y30522D01*
D02*
G37*
G36*
X55009D02*
X54667D01*
X54674Y30468D01*
X54714Y30372D01*
X54777Y30290D01*
X54860Y30226D01*
X54956Y30187D01*
X55009Y30180D01*
Y30522D01*
D02*
G37*
G36*
X52450D02*
X52108D01*
X52115Y30468D01*
X52155Y30372D01*
X52218Y30290D01*
X52301Y30226D01*
X52397Y30187D01*
X52450Y30180D01*
Y30522D01*
D02*
G37*
G36*
X25200Y29700D02*
X25000D01*
Y29500D01*
X25200D01*
Y29700D01*
D02*
G37*
G36*
X24900D02*
X24700D01*
Y29500D01*
X24900D01*
Y29700D01*
D02*
G37*
G36*
X65774Y29192D02*
Y28850D01*
X66116D01*
X66109Y28903D01*
X66069Y28999D01*
X66006Y29082D01*
X65923Y29145D01*
X65827Y29185D01*
X65774Y29192D01*
D02*
G37*
G36*
X65674D02*
X65621Y29185D01*
X65525Y29145D01*
X65442Y29082D01*
X65379Y28999D01*
X65339Y28903D01*
X65332Y28850D01*
X65674D01*
Y29192D01*
D02*
G37*
G36*
X63215D02*
Y28850D01*
X63557D01*
X63550Y28903D01*
X63510Y28999D01*
X63447Y29082D01*
X63364Y29145D01*
X63268Y29185D01*
X63215Y29192D01*
D02*
G37*
G36*
X63115D02*
X63062Y29185D01*
X62966Y29145D01*
X62883Y29082D01*
X62820Y28999D01*
X62780Y28903D01*
X62773Y28850D01*
X63115D01*
Y29192D01*
D02*
G37*
G36*
X44450Y29192D02*
Y28850D01*
X44792D01*
X44785Y28903D01*
X44745Y28999D01*
X44682Y29082D01*
X44599Y29145D01*
X44503Y29185D01*
X44450Y29192D01*
D02*
G37*
G36*
X44350D02*
X44297Y29185D01*
X44201Y29145D01*
X44118Y29082D01*
X44055Y28999D01*
X44015Y28903D01*
X44008Y28850D01*
X44350D01*
Y29192D01*
D02*
G37*
G36*
X41891D02*
Y28850D01*
X42233D01*
X42226Y28903D01*
X42186Y28999D01*
X42123Y29082D01*
X42040Y29145D01*
X41944Y29185D01*
X41891Y29192D01*
D02*
G37*
G36*
X41791D02*
X41738Y29185D01*
X41642Y29145D01*
X41559Y29082D01*
X41496Y28999D01*
X41456Y28903D01*
X41449Y28850D01*
X41791D01*
Y29192D01*
D02*
G37*
G36*
X24300Y28550D02*
X23800D01*
Y28453D01*
X23650D01*
Y28550D01*
X23150D01*
Y28050D01*
X23650D01*
Y28147D01*
X23800D01*
Y28050D01*
X24300D01*
Y28550D01*
D02*
G37*
G36*
X66116Y28750D02*
X65774D01*
Y28408D01*
X65827Y28415D01*
X65923Y28455D01*
X66006Y28518D01*
X66069Y28601D01*
X66109Y28697D01*
X66116Y28750D01*
D02*
G37*
G36*
X65674D02*
X65332D01*
X65339Y28697D01*
X65379Y28601D01*
X65442Y28518D01*
X65525Y28455D01*
X65621Y28415D01*
X65674Y28408D01*
Y28750D01*
D02*
G37*
G36*
X63557D02*
X63215D01*
Y28408D01*
X63268Y28415D01*
X63364Y28455D01*
X63447Y28518D01*
X63510Y28601D01*
X63550Y28697D01*
X63557Y28750D01*
D02*
G37*
G36*
X63115D02*
X62773D01*
X62780Y28697D01*
X62820Y28601D01*
X62883Y28518D01*
X62966Y28455D01*
X63062Y28415D01*
X63115Y28408D01*
Y28750D01*
D02*
G37*
G36*
X55059Y29199D02*
X54956Y29185D01*
X54860Y29145D01*
X54777Y29082D01*
X54714Y28999D01*
X54674Y28903D01*
X54660Y28800D01*
X54674Y28697D01*
X54714Y28601D01*
X54777Y28518D01*
X54860Y28455D01*
X54956Y28415D01*
X55059Y28401D01*
X55162Y28415D01*
X55258Y28455D01*
X55341Y28518D01*
X55404Y28601D01*
X55444Y28697D01*
X55458Y28800D01*
X55444Y28903D01*
X55404Y28999D01*
X55341Y29082D01*
X55258Y29145D01*
X55162Y29185D01*
X55059Y29199D01*
D02*
G37*
G36*
X52500D02*
X52397Y29185D01*
X52301Y29145D01*
X52218Y29082D01*
X52155Y28999D01*
X52115Y28903D01*
X52101Y28800D01*
X52115Y28697D01*
X52155Y28601D01*
X52218Y28518D01*
X52301Y28455D01*
X52397Y28415D01*
X52500Y28401D01*
X52603Y28415D01*
X52699Y28455D01*
X52782Y28518D01*
X52845Y28601D01*
X52885Y28697D01*
X52899Y28800D01*
X52885Y28903D01*
X52845Y28999D01*
X52782Y29082D01*
X52699Y29145D01*
X52603Y29185D01*
X52500Y29199D01*
D02*
G37*
G36*
X24600Y28550D02*
X24400D01*
Y28350D01*
X24600D01*
Y28550D01*
D02*
G37*
G36*
X40550Y29550D02*
X40050D01*
Y29050D01*
X40122D01*
Y28450D01*
X40050D01*
Y28328D01*
X39529D01*
X39486Y28357D01*
X39400Y28374D01*
X39314Y28357D01*
X39241Y28309D01*
X39193Y28236D01*
X39176Y28150D01*
X39193Y28064D01*
X39241Y27991D01*
X39314Y27943D01*
X39400Y27926D01*
X39486Y27943D01*
X39529Y27972D01*
X40050D01*
Y27950D01*
X40550D01*
Y28022D01*
X50771D01*
X50814Y27993D01*
X50900Y27976D01*
X50986Y27993D01*
X51059Y28041D01*
X51107Y28114D01*
X51124Y28200D01*
X51107Y28286D01*
X51059Y28359D01*
X50986Y28407D01*
X50900Y28424D01*
X50814Y28407D01*
X50771Y28378D01*
X44546D01*
X44536Y28428D01*
X44599Y28455D01*
X44682Y28518D01*
X44745Y28601D01*
X44785Y28697D01*
X44792Y28750D01*
X44008D01*
X44015Y28697D01*
X44055Y28601D01*
X44118Y28518D01*
X44201Y28455D01*
X44264Y28428D01*
X44254Y28378D01*
X41987D01*
X41977Y28428D01*
X42040Y28455D01*
X42123Y28518D01*
X42186Y28601D01*
X42226Y28697D01*
X42233Y28750D01*
X41449D01*
X41456Y28697D01*
X41496Y28601D01*
X41559Y28518D01*
X41642Y28455D01*
X41705Y28428D01*
X41695Y28378D01*
X40550D01*
Y28450D01*
X40478D01*
Y29050D01*
X40550D01*
Y29550D01*
D02*
G37*
G36*
X19675Y28403D02*
X19616Y28391D01*
X19567Y28358D01*
X19534Y28309D01*
X19522Y28250D01*
X19534Y28191D01*
X19567Y28142D01*
X19592Y28117D01*
X19641Y28084D01*
X19700Y28072D01*
X19759Y28084D01*
X19808Y28117D01*
X19841Y28166D01*
X19853Y28225D01*
X19841Y28284D01*
X19808Y28333D01*
X19783Y28358D01*
X19734Y28391D01*
X19675Y28403D01*
D02*
G37*
G36*
X17948Y28399D02*
X17900D01*
Y28050D01*
X18341D01*
X18334Y28103D01*
X18294Y28199D01*
X18230Y28282D01*
X18148Y28345D01*
X18052Y28385D01*
X17948Y28399D01*
D02*
G37*
G36*
X24900Y28250D02*
X24700D01*
Y28050D01*
X24900D01*
Y28250D01*
D02*
G37*
G36*
X24600D02*
X24400D01*
Y28050D01*
X24600D01*
Y28250D01*
D02*
G37*
G36*
X21750D02*
X21550D01*
Y28050D01*
X21750D01*
Y28250D01*
D02*
G37*
G36*
X21450D02*
X21250D01*
Y28050D01*
X21450D01*
Y28250D01*
D02*
G37*
G36*
X18341Y27950D02*
X17900D01*
Y27601D01*
X17948D01*
X18052Y27615D01*
X18148Y27655D01*
X18230Y27718D01*
X18294Y27801D01*
X18334Y27897D01*
X18341Y27950D01*
D02*
G37*
G36*
X24350Y27800D02*
X24150D01*
Y27600D01*
X24350D01*
Y27800D01*
D02*
G37*
G36*
X21750D02*
X21550D01*
Y27600D01*
X21750D01*
Y27800D01*
D02*
G37*
G36*
X23700D02*
X23500D01*
Y27600D01*
X23700D01*
Y27800D01*
D02*
G37*
G36*
X23400D02*
X23200D01*
Y27600D01*
X23400D01*
Y27800D01*
D02*
G37*
G36*
X24050D02*
X23850D01*
Y27600D01*
X24050D01*
Y27800D01*
D02*
G37*
G36*
X21450D02*
X21250D01*
Y27600D01*
X21450D01*
Y27800D01*
D02*
G37*
G36*
X55109Y27878D02*
Y27536D01*
X55451D01*
X55444Y27589D01*
X55404Y27685D01*
X55341Y27768D01*
X55258Y27831D01*
X55162Y27871D01*
X55109Y27878D01*
D02*
G37*
G36*
X52550D02*
Y27536D01*
X52892D01*
X52885Y27589D01*
X52845Y27685D01*
X52782Y27768D01*
X52699Y27831D01*
X52603Y27871D01*
X52550Y27878D01*
D02*
G37*
G36*
X55009D02*
X54956Y27871D01*
X54860Y27831D01*
X54777Y27768D01*
X54714Y27685D01*
X54674Y27589D01*
X54667Y27536D01*
X55009D01*
Y27878D01*
D02*
G37*
G36*
X52450D02*
X52397Y27871D01*
X52301Y27831D01*
X52218Y27768D01*
X52155Y27685D01*
X52115Y27589D01*
X52108Y27536D01*
X52450D01*
Y27878D01*
D02*
G37*
G36*
X24350Y27500D02*
X24150D01*
Y27300D01*
X24350D01*
Y27500D01*
D02*
G37*
G36*
X24050D02*
X23850D01*
Y27300D01*
X24050D01*
Y27500D01*
D02*
G37*
G36*
X23700D02*
X23500D01*
Y27300D01*
X23700D01*
Y27500D01*
D02*
G37*
G36*
X23400D02*
X23200D01*
Y27300D01*
X23400D01*
Y27500D01*
D02*
G37*
G36*
X21750D02*
X21550D01*
Y27300D01*
X21750D01*
Y27500D01*
D02*
G37*
G36*
X21450D02*
X21250D01*
Y27300D01*
X21450D01*
Y27500D01*
D02*
G37*
G36*
X55451Y27436D02*
X55109D01*
Y27094D01*
X55162Y27101D01*
X55258Y27141D01*
X55341Y27204D01*
X55404Y27286D01*
X55444Y27383D01*
X55451Y27436D01*
D02*
G37*
G36*
X52892D02*
X52550D01*
Y27094D01*
X52603Y27101D01*
X52699Y27141D01*
X52782Y27204D01*
X52845Y27286D01*
X52885Y27383D01*
X52892Y27436D01*
D02*
G37*
G36*
X55009D02*
X54667D01*
X54674Y27383D01*
X54714Y27286D01*
X54777Y27204D01*
X54860Y27141D01*
X54956Y27101D01*
X55009Y27094D01*
Y27436D01*
D02*
G37*
G36*
X52450D02*
X52108D01*
X52115Y27383D01*
X52155Y27286D01*
X52218Y27204D01*
X52301Y27141D01*
X52397Y27101D01*
X52450Y27094D01*
Y27436D01*
D02*
G37*
G36*
X65724Y27885D02*
X65621Y27871D01*
X65525Y27831D01*
X65442Y27768D01*
X65379Y27685D01*
X65339Y27589D01*
X65325Y27486D01*
X65339Y27383D01*
X65379Y27287D01*
X65442Y27204D01*
X65525Y27141D01*
X65621Y27101D01*
X65724Y27087D01*
X65827Y27101D01*
X65923Y27141D01*
X66006Y27204D01*
X66069Y27287D01*
X66109Y27383D01*
X66123Y27486D01*
X66109Y27589D01*
X66069Y27685D01*
X66006Y27768D01*
X65923Y27831D01*
X65827Y27871D01*
X65724Y27885D01*
D02*
G37*
G36*
X63165D02*
X63062Y27871D01*
X62966Y27831D01*
X62883Y27768D01*
X62820Y27685D01*
X62780Y27589D01*
X62766Y27486D01*
X62780Y27383D01*
X62820Y27287D01*
X62883Y27204D01*
X62966Y27141D01*
X63062Y27101D01*
X63165Y27087D01*
X63268Y27101D01*
X63364Y27141D01*
X63447Y27204D01*
X63510Y27287D01*
X63550Y27383D01*
X63564Y27486D01*
X63550Y27589D01*
X63510Y27685D01*
X63447Y27768D01*
X63364Y27831D01*
X63268Y27871D01*
X63165Y27885D01*
D02*
G37*
G36*
X59969Y26755D02*
X59883Y26738D01*
X59810Y26690D01*
X59806Y26684D01*
X50143D01*
X50140Y26690D01*
X50067Y26738D01*
X49981Y26755D01*
X49895Y26738D01*
X49822Y26690D01*
X49774Y26617D01*
X49757Y26531D01*
X49774Y26445D01*
X49822Y26372D01*
X49895Y26324D01*
X49981Y26307D01*
X50067Y26324D01*
X50140Y26372D01*
X50143Y26378D01*
X59806D01*
X59810Y26372D01*
X59883Y26324D01*
X59969Y26307D01*
X60055Y26324D01*
X60128Y26372D01*
X60176Y26445D01*
X60193Y26531D01*
X60176Y26617D01*
X60128Y26690D01*
X60055Y26738D01*
X59969Y26755D01*
D02*
G37*
G36*
X22000Y26850D02*
X21800D01*
Y26650D01*
X22000D01*
Y26850D01*
D02*
G37*
G36*
X21700D02*
X21500D01*
Y26650D01*
X21700D01*
Y26850D01*
D02*
G37*
G36*
X19086Y26816D02*
X18839D01*
Y26506D01*
X18789Y26491D01*
X18763Y26530D01*
X18704Y26570D01*
X18634Y26583D01*
X17945D01*
X17875Y26570D01*
X17816Y26530D01*
X17777Y26471D01*
X17763Y26401D01*
Y26244D01*
X17773Y26193D01*
X17776Y26144D01*
X17776Y26144D01*
X17776Y26144D01*
Y25740D01*
X18724D01*
Y26089D01*
X18763Y26115D01*
X18789Y26154D01*
X18839Y26144D01*
X18842Y26144D01*
X18935D01*
X18959Y26100D01*
X18949Y26085D01*
X18934Y26008D01*
X18943Y25959D01*
X18947Y25911D01*
X18947Y25911D01*
X18947Y25911D01*
Y25782D01*
X19411D01*
Y25911D01*
X19365D01*
X19329Y25961D01*
X19338Y26008D01*
X19323Y26085D01*
X19313Y26100D01*
X19336Y26144D01*
X19433D01*
Y26430D01*
X19136D01*
Y26480D01*
X19086D01*
Y26816D01*
D02*
G37*
G36*
X22000Y26550D02*
X21800D01*
Y26350D01*
X22000D01*
Y26550D01*
D02*
G37*
G36*
X21700D02*
X21500D01*
Y26350D01*
X21700D01*
Y26550D01*
D02*
G37*
G36*
X24250Y26246D02*
X24050D01*
Y26046D01*
X24250D01*
Y26246D01*
D02*
G37*
G36*
X19974Y25911D02*
X19511D01*
Y25782D01*
X19974D01*
Y25911D01*
D02*
G37*
G36*
X65774Y26106D02*
Y25764D01*
X66116D01*
X66109Y25817D01*
X66069Y25914D01*
X66006Y25996D01*
X65923Y26059D01*
X65827Y26099D01*
X65774Y26106D01*
D02*
G37*
G36*
X65674D02*
X65621Y26099D01*
X65525Y26059D01*
X65442Y25996D01*
X65379Y25914D01*
X65339Y25817D01*
X65332Y25764D01*
X65674D01*
Y26106D01*
D02*
G37*
G36*
X63215D02*
Y25764D01*
X63557D01*
X63550Y25817D01*
X63510Y25914D01*
X63447Y25996D01*
X63364Y26059D01*
X63268Y26099D01*
X63215Y26106D01*
D02*
G37*
G36*
X63115D02*
X63062Y26099D01*
X62966Y26059D01*
X62883Y25996D01*
X62820Y25914D01*
X62780Y25817D01*
X62773Y25764D01*
X63115D01*
Y26106D01*
D02*
G37*
G36*
X44430Y26106D02*
Y25764D01*
X44772D01*
X44765Y25817D01*
X44725Y25914D01*
X44661Y25996D01*
X44579Y26059D01*
X44483Y26099D01*
X44430Y26106D01*
D02*
G37*
G36*
X44330D02*
X44276Y26099D01*
X44180Y26059D01*
X44098Y25996D01*
X44034Y25914D01*
X43994Y25817D01*
X43987Y25764D01*
X44330D01*
Y26106D01*
D02*
G37*
G36*
X41870D02*
Y25764D01*
X42213D01*
X42206Y25817D01*
X42166Y25914D01*
X42102Y25996D01*
X42020Y26059D01*
X41924Y26099D01*
X41870Y26106D01*
D02*
G37*
G36*
X41770D02*
X41717Y26099D01*
X41621Y26059D01*
X41539Y25996D01*
X41475Y25914D01*
X41435Y25817D01*
X41428Y25764D01*
X41770D01*
Y26106D01*
D02*
G37*
G36*
X33730D02*
Y25764D01*
X34072D01*
X34065Y25817D01*
X34025Y25914D01*
X33961Y25996D01*
X33879Y26059D01*
X33783Y26099D01*
X33730Y26106D01*
D02*
G37*
G36*
X33630D02*
X33576Y26099D01*
X33480Y26059D01*
X33398Y25996D01*
X33334Y25914D01*
X33294Y25817D01*
X33287Y25764D01*
X33630D01*
Y26106D01*
D02*
G37*
G36*
X31170D02*
Y25764D01*
X31513D01*
X31506Y25817D01*
X31466Y25914D01*
X31402Y25996D01*
X31320Y26059D01*
X31224Y26099D01*
X31170Y26106D01*
D02*
G37*
G36*
X31070D02*
X31017Y26099D01*
X30921Y26059D01*
X30839Y25996D01*
X30775Y25914D01*
X30735Y25817D01*
X30728Y25764D01*
X31070D01*
Y26106D01*
D02*
G37*
G36*
X18724Y25640D02*
X17776D01*
Y25254D01*
X17776Y25204D01*
X17776Y25186D01*
Y24800D01*
X18724D01*
Y25186D01*
X18724Y25236D01*
X18724Y25254D01*
Y25640D01*
D02*
G37*
G36*
Y24700D02*
X17776D01*
Y24324D01*
X17737Y24266D01*
X17723Y24197D01*
Y24039D01*
X17737Y23969D01*
X17777Y23910D01*
X17836Y23871D01*
X17906Y23857D01*
X18594D01*
X18664Y23871D01*
X18723Y23910D01*
X18763Y23969D01*
X18777Y24039D01*
Y24197D01*
X18763Y24266D01*
X18724Y24324D01*
Y24700D01*
D02*
G37*
%LPD*%
D10*
X19461Y25220D02*
X20439D01*
X19675Y28250D02*
X19700Y28225D01*
X20439Y25220D02*
X21200Y25982D01*
X19461Y24964D02*
X20714D01*
X18050Y33200D02*
X19570Y31680D01*
X17800Y33200D02*
X18050D01*
X21570Y25820D02*
X21750Y26000D01*
X21570Y25100D02*
Y25820D01*
X20714Y24964D02*
X21150Y25400D01*
X24150Y25150D02*
X24250Y25050D01*
X23500Y25150D02*
X24150D01*
X22550Y25100D02*
X22850D01*
X22170D02*
X22550D01*
X22539Y25111D02*
X22550Y25100D01*
X22539Y25111D02*
Y25976D01*
X22850Y25100D02*
X22900Y25150D01*
X26966Y29500D02*
X29600D01*
X49981Y26531D02*
X59969D01*
X25050Y27050D02*
X29650D01*
X34050Y28000D02*
X34450Y27600D01*
X25200Y28000D02*
X34050D01*
X34450Y27600D02*
X40300D01*
X24900Y30400D02*
X30712D01*
X31212Y29900D02*
X40300D01*
X30712Y30400D02*
X31212Y29900D01*
X25150Y28450D02*
Y28650D01*
X25300Y28800D01*
X30150D02*
X31170D01*
X25300D02*
X30150D01*
Y29500D01*
X23941Y25696D02*
X24300D01*
X23661Y25976D02*
X23941Y25696D01*
X31170Y28800D02*
X33730D01*
X31120Y27486D02*
X33680D01*
X41820D02*
X44380D01*
X41706Y27600D02*
X41820Y27486D01*
X40300Y27600D02*
X41706D01*
X41841Y30572D02*
X44400D01*
X41169Y29900D02*
X41841Y30572D01*
X40300Y29900D02*
X41169D01*
X30685Y27050D02*
X31120Y27486D01*
X29650Y27050D02*
X30685D01*
X23400Y28300D02*
X24050D01*
D15*
X22800D02*
D03*
X23400D02*
D03*
X22100D02*
D03*
X21500D02*
D03*
X24050D02*
D03*
X24650D02*
D03*
X23450Y27550D02*
D03*
X22850D02*
D03*
X23500Y25150D02*
D03*
X22900D02*
D03*
X21570Y25100D02*
D03*
X22170D02*
D03*
X21500Y27550D02*
D03*
X22100D02*
D03*
X24700D02*
D03*
X24100D02*
D03*
X24850Y25050D02*
D03*
X24250D02*
D03*
D16*
X24950Y29150D02*
D03*
Y29750D02*
D03*
X19000Y30250D02*
D03*
Y30850D02*
D03*
X30150Y30100D02*
D03*
Y29500D02*
D03*
X40300Y29300D02*
D03*
Y29900D02*
D03*
Y28200D02*
D03*
Y27600D02*
D03*
X29650Y27650D02*
D03*
Y27050D02*
D03*
X19600Y30250D02*
D03*
Y30850D02*
D03*
X24300Y25696D02*
D03*
Y26296D02*
D03*
X21750Y26000D02*
D03*
Y26600D02*
D03*
D28*
X19650Y26724D02*
Y27050D01*
X21175Y28575D02*
Y28675D01*
X19650Y27050D02*
X21175Y28575D01*
X19461Y24708D02*
X24758D01*
X18000Y31250D02*
X18400Y30850D01*
Y29800D02*
Y30850D01*
Y29800D02*
X18900Y29300D01*
X18000Y31250D02*
Y31300D01*
X18900Y29300D02*
X24024D01*
X21814Y30250D02*
X21859Y30206D01*
X19600Y30250D02*
X21814D01*
X19000D02*
X19600D01*
X17850Y29000D02*
X18000Y29150D01*
Y30266D01*
X21400Y29000D02*
X22100Y28300D01*
X17850Y29000D02*
X21400D01*
X24705Y25795D02*
Y26745D01*
X24700Y26750D02*
X24705Y26745D01*
X24700Y26750D02*
Y27550D01*
X23687Y26750D02*
X24700D01*
X23661Y26724D02*
X23687Y26750D01*
X24705Y25795D02*
X24850Y25650D01*
Y24800D02*
Y25050D01*
X24758Y24708D02*
X24850Y24800D01*
Y25050D02*
Y25650D01*
X23000Y29750D02*
Y30206D01*
X21859D02*
X23000D01*
X24024D01*
X40300Y28200D02*
X50900D01*
X40300D02*
Y29300D01*
X40250Y28150D02*
X40300Y28200D01*
X39400Y28150D02*
X40250D01*
X29000Y30100D02*
X30150D01*
X24130D02*
X29000D01*
Y29784D02*
Y30100D01*
X29050Y27650D02*
X29650D01*
X24024Y30206D02*
X24130Y30100D01*
X24024Y29300D02*
X24174Y29150D01*
X24950D01*
X25026Y29074D01*
X22100Y28300D02*
X22800D01*
X22100Y27550D02*
Y28300D01*
Y27550D02*
X22850D01*
X22539Y26724D02*
X22850Y27035D01*
Y27550D01*
D29*
X17800Y33200D02*
D03*
X18800D02*
D03*
X19800D02*
D03*
D30*
X31170Y30572D02*
D03*
X33730D02*
D03*
X31170Y28800D02*
D03*
X33730D02*
D03*
X44400Y28800D02*
D03*
X41841D02*
D03*
X44400Y30572D02*
D03*
X41841D02*
D03*
X52500D02*
D03*
X55059D02*
D03*
X52500Y28800D02*
D03*
X55059D02*
D03*
X65724Y28800D02*
D03*
X63165D02*
D03*
X65724Y30572D02*
D03*
X63165D02*
D03*
X52500Y27486D02*
D03*
X55059D02*
D03*
X52500Y25714D02*
D03*
X55059D02*
D03*
X33680D02*
D03*
X31120D02*
D03*
X33680Y27486D02*
D03*
X31120D02*
D03*
X41820D02*
D03*
X44380D02*
D03*
X41820Y25714D02*
D03*
X44380D02*
D03*
X63165Y27486D02*
D03*
X65724D02*
D03*
X63165Y25714D02*
D03*
X65724D02*
D03*
D31*
X18289Y26323D02*
D03*
X18250Y24118D02*
D03*
D32*
X19136Y24433D02*
D03*
Y26008D02*
D03*
D33*
X17850Y29000D02*
D03*
Y28000D02*
D03*
D34*
X18000Y30266D02*
D03*
Y31250D02*
D03*
Y32234D02*
D03*
D35*
X17650Y25250D02*
D03*
X19900Y28675D02*
D03*
X21200Y29800D02*
D03*
X28350Y25550D02*
D03*
X60150Y27600D02*
D03*
X20250Y32300D02*
D03*
X36700Y25690D02*
D03*
X29250Y26250D02*
D03*
X27850D02*
D03*
X28250Y27486D02*
D03*
X19750Y29700D02*
D03*
X19650Y26724D02*
D03*
X21200Y25982D02*
D03*
X19500Y32200D02*
D03*
X19570Y31680D02*
D03*
X19850Y24050D02*
D03*
X21150Y25400D02*
D03*
X58100Y29500D02*
D03*
X62150Y25800D02*
D03*
X62100Y27712D02*
D03*
X62300Y28750D02*
D03*
X56550Y30665D02*
D03*
X59550Y29150D02*
D03*
X56700Y29300D02*
D03*
X60000Y25700D02*
D03*
X56450Y25750D02*
D03*
X58700Y27350D02*
D03*
X56400Y27400D02*
D03*
X49000Y25714D02*
D03*
X46050Y25800D02*
D03*
X49550Y30500D02*
D03*
X46350Y30665D02*
D03*
X48350Y28850D02*
D03*
X46050Y28893D02*
D03*
X49400Y27550D02*
D03*
X48150Y27250D02*
D03*
X46000Y27450D02*
D03*
X40100Y25550D02*
D03*
X38300Y25750D02*
D03*
X35100Y25650D02*
D03*
X39500Y30450D02*
D03*
X37150Y30500D02*
D03*
X35450Y30700D02*
D03*
X39200Y28800D02*
D03*
X37950Y28950D02*
D03*
X36450Y28800D02*
D03*
X35300Y29000D02*
D03*
X39700Y26900D02*
D03*
X37250Y27150D02*
D03*
X38150Y27000D02*
D03*
X35450Y27100D02*
D03*
X29900Y25500D02*
D03*
X27000Y25550D02*
D03*
X28700Y30769D02*
D03*
X27000Y30800D02*
D03*
X24450Y28750D02*
D03*
X23350Y28850D02*
D03*
X22700D02*
D03*
X21200Y26650D02*
D03*
X25156Y25600D02*
D03*
Y26159D02*
D03*
X25000Y26600D02*
D03*
X25215Y24550D02*
D03*
X24300Y24350D02*
D03*
X23250Y24250D02*
D03*
X22300Y23950D02*
D03*
X17600Y24350D02*
D03*
Y25800D02*
D03*
X18600Y27050D02*
D03*
X17900Y27100D02*
D03*
X18700Y28600D02*
D03*
X18400Y31850D02*
D03*
X20050Y30800D02*
D03*
X19100Y31700D02*
D03*
X26900Y27500D02*
D03*
X27150Y28300D02*
D03*
X26966Y29500D02*
D03*
X29600D02*
D03*
X59969Y26531D02*
D03*
X49981D02*
D03*
X25050Y27050D02*
D03*
X25200Y28000D02*
D03*
X24900Y30400D02*
D03*
X25150Y28450D02*
D03*
X21200Y28650D02*
D03*
X23000Y29750D02*
D03*
X50900Y28200D02*
D03*
X39400Y28150D02*
D03*
X29000Y29784D02*
D03*
X29050Y27650D02*
D03*
D36*
X19136Y26480D02*
D03*
Y23960D02*
D03*
D37*
X19461Y24708D02*
D03*
Y25732D02*
D03*
Y25476D02*
D03*
Y24964D02*
D03*
Y25220D02*
D03*
D38*
X18250Y25690D02*
D03*
Y24750D02*
D03*
D39*
X22539Y25976D02*
D03*
Y26350D02*
D03*
Y26724D02*
D03*
X23661D02*
D03*
Y25976D02*
D03*
D40*
X24024Y30206D02*
D03*
Y29300D02*
D03*
Y31111D02*
D03*
D41*
X21859Y30206D02*
D03*
M02*
