G04*
G04 #@! TF.GenerationSoftware,Altium Limited,Altium Designer,18.1.9 (240)*
G04*
G04 Layer_Color=128*
%FSLAX24Y24*%
%MOIN*%
G70*
G01*
G75*
%ADD15R,0.0300X0.0300*%
%ADD16R,0.0300X0.0300*%
%ADD36R,0.0394X0.0472*%
%ADD37R,0.0827X0.0157*%
%ADD38R,0.0748X0.0709*%
%ADD39R,0.0413X0.0236*%
%ADD40R,0.0984X0.0472*%
%ADD41R,0.0787X0.1378*%
D15*
X22800Y28300D02*
D03*
X23400D02*
D03*
X22100D02*
D03*
X21500D02*
D03*
X24050D02*
D03*
X24650D02*
D03*
X23450Y27550D02*
D03*
X22850D02*
D03*
X23500Y25150D02*
D03*
X22900D02*
D03*
X21570Y25100D02*
D03*
X22170D02*
D03*
X21500Y27550D02*
D03*
X22100D02*
D03*
X24700D02*
D03*
X24100D02*
D03*
X24850Y25050D02*
D03*
X24250D02*
D03*
D16*
X24950Y29150D02*
D03*
Y29750D02*
D03*
X19000Y30250D02*
D03*
Y30850D02*
D03*
X30150Y30100D02*
D03*
Y29500D02*
D03*
X40300Y29300D02*
D03*
Y29900D02*
D03*
Y28200D02*
D03*
Y27600D02*
D03*
X29650Y27650D02*
D03*
Y27050D02*
D03*
X19600Y30250D02*
D03*
Y30850D02*
D03*
X24300Y25696D02*
D03*
Y26296D02*
D03*
X21750Y26000D02*
D03*
Y26600D02*
D03*
D36*
X19136Y26480D02*
D03*
Y23960D02*
D03*
D37*
X19461Y24708D02*
D03*
Y25732D02*
D03*
Y25476D02*
D03*
Y24964D02*
D03*
Y25220D02*
D03*
D38*
X18250Y25690D02*
D03*
Y24750D02*
D03*
D39*
X22539Y25976D02*
D03*
Y26350D02*
D03*
Y26724D02*
D03*
X23661D02*
D03*
Y25976D02*
D03*
D40*
X24024Y30206D02*
D03*
Y29300D02*
D03*
Y31111D02*
D03*
D41*
X21859Y30206D02*
D03*
M02*
