G04*
G04 #@! TF.GenerationSoftware,Altium Limited,Altium Designer,18.1.9 (240)*
G04*
G04 Layer_Color=2752767*
%FSLAX24Y24*%
%MOIN*%
G70*
G01*
G75*
%ADD52C,0.0020*%
%ADD53C,0.0027*%
D52*
X17720Y33120D02*
Y33280D01*
X17880D01*
Y33120D01*
X17720D01*
X18720D02*
Y33280D01*
X18880D01*
Y33120D01*
X18720D01*
X19720D02*
Y33280D01*
X19880D01*
Y33120D01*
X19720D01*
X18289Y26243D02*
X18209Y26403D01*
X18369D01*
X18289Y26243D01*
X18250Y24038D02*
X18170Y24198D01*
X18330D01*
X18250Y24038D01*
X19136Y24353D02*
X19176Y24393D01*
X19216D01*
X19176Y24433D01*
X19216Y24473D01*
X19176D01*
X19136Y24513D01*
X19096Y24473D01*
X19056D01*
X19096Y24433D01*
X19056Y24393D01*
X19096D01*
X19136Y24353D01*
Y25928D02*
X19176Y25968D01*
X19216D01*
X19176Y26008D01*
X19216Y26048D01*
X19176D01*
X19136Y26088D01*
X19096Y26048D01*
X19056D01*
X19096Y26008D01*
X19056Y25968D01*
X19096D01*
X19136Y25928D01*
X17770Y28920D02*
Y29080D01*
X17930D01*
Y28920D01*
X17770D01*
Y27920D02*
Y28080D01*
X17930D01*
Y27920D01*
X17770D01*
X17920Y30186D02*
X17960Y30266D01*
X17920Y30346D01*
X18000Y30306D01*
X18080Y30346D01*
X18040Y30266D01*
X18080Y30186D01*
X18000Y30226D01*
X17920Y30186D01*
Y31170D02*
X17960Y31250D01*
X17920Y31330D01*
X18000Y31290D01*
X18080Y31330D01*
X18040Y31250D01*
X18080Y31170D01*
X18000Y31210D01*
X17920Y31170D01*
Y32154D02*
X17960Y32234D01*
X17920Y32314D01*
X18000Y32274D01*
X18080Y32314D01*
X18040Y32234D01*
X18080Y32154D01*
X18000Y32194D01*
X17920Y32154D01*
X17610Y25210D02*
Y25170D01*
X17690D01*
Y25210D01*
X17730D01*
Y25290D01*
X17690D01*
Y25330D01*
X17610D01*
Y25290D01*
X17570D01*
Y25210D01*
X17610D01*
X19860Y28635D02*
Y28595D01*
X19940D01*
Y28635D01*
X19980D01*
Y28715D01*
X19940D01*
Y28755D01*
X19860D01*
Y28715D01*
X19820D01*
Y28635D01*
X19860D01*
X21160Y29760D02*
Y29720D01*
X21240D01*
Y29760D01*
X21280D01*
Y29840D01*
X21240D01*
Y29880D01*
X21160D01*
Y29840D01*
X21120D01*
Y29760D01*
X21160D01*
X28310Y25510D02*
Y25470D01*
X28390D01*
Y25510D01*
X28430D01*
Y25590D01*
X28390D01*
Y25630D01*
X28310D01*
Y25590D01*
X28270D01*
Y25510D01*
X28310D01*
X60110Y27560D02*
Y27520D01*
X60190D01*
Y27560D01*
X60230D01*
Y27640D01*
X60190D01*
Y27680D01*
X60110D01*
Y27640D01*
X60070D01*
Y27560D01*
X60110D01*
X20210Y32260D02*
Y32220D01*
X20290D01*
Y32260D01*
X20330D01*
Y32340D01*
X20290D01*
Y32380D01*
X20210D01*
Y32340D01*
X20170D01*
Y32260D01*
X20210D01*
X36660Y25650D02*
Y25610D01*
X36740D01*
Y25650D01*
X36780D01*
Y25730D01*
X36740D01*
Y25770D01*
X36660D01*
Y25730D01*
X36620D01*
Y25650D01*
X36660D01*
X29210Y26210D02*
Y26170D01*
X29290D01*
Y26210D01*
X29330D01*
Y26290D01*
X29290D01*
Y26330D01*
X29210D01*
Y26290D01*
X29170D01*
Y26210D01*
X29210D01*
X27810D02*
Y26170D01*
X27890D01*
Y26210D01*
X27930D01*
Y26290D01*
X27890D01*
Y26330D01*
X27810D01*
Y26290D01*
X27770D01*
Y26210D01*
X27810D01*
X28210Y27446D02*
Y27406D01*
X28290D01*
Y27446D01*
X28330D01*
Y27526D01*
X28290D01*
Y27566D01*
X28210D01*
Y27526D01*
X28170D01*
Y27446D01*
X28210D01*
X19710Y29660D02*
Y29620D01*
X19790D01*
Y29660D01*
X19830D01*
Y29740D01*
X19790D01*
Y29780D01*
X19710D01*
Y29740D01*
X19670D01*
Y29660D01*
X19710D01*
X19610Y26684D02*
Y26644D01*
X19690D01*
Y26684D01*
X19730D01*
Y26764D01*
X19690D01*
Y26804D01*
X19610D01*
Y26764D01*
X19570D01*
Y26684D01*
X19610D01*
X21160Y25942D02*
Y25902D01*
X21240D01*
Y25942D01*
X21280D01*
Y26021D01*
X21240D01*
Y26061D01*
X21160D01*
Y26021D01*
X21120D01*
Y25942D01*
X21160D01*
X19460Y32160D02*
Y32120D01*
X19540D01*
Y32160D01*
X19580D01*
Y32240D01*
X19540D01*
Y32280D01*
X19460D01*
Y32240D01*
X19420D01*
Y32160D01*
X19460D01*
X19530Y31640D02*
Y31600D01*
X19610D01*
Y31640D01*
X19650D01*
Y31720D01*
X19610D01*
Y31760D01*
X19530D01*
Y31720D01*
X19490D01*
Y31640D01*
X19530D01*
X19810Y24010D02*
Y23970D01*
X19890D01*
Y24010D01*
X19930D01*
Y24090D01*
X19890D01*
Y24130D01*
X19810D01*
Y24090D01*
X19770D01*
Y24010D01*
X19810D01*
X21110Y25360D02*
Y25320D01*
X21190D01*
Y25360D01*
X21230D01*
Y25440D01*
X21190D01*
Y25480D01*
X21110D01*
Y25440D01*
X21070D01*
Y25360D01*
X21110D01*
X58060Y29460D02*
Y29420D01*
X58140D01*
Y29460D01*
X58180D01*
Y29540D01*
X58140D01*
Y29580D01*
X58060D01*
Y29540D01*
X58020D01*
Y29460D01*
X58060D01*
X62110Y25760D02*
Y25720D01*
X62190D01*
Y25760D01*
X62230D01*
Y25840D01*
X62190D01*
Y25880D01*
X62110D01*
Y25840D01*
X62070D01*
Y25760D01*
X62110D01*
X62060Y27672D02*
Y27632D01*
X62140D01*
Y27672D01*
X62180D01*
Y27752D01*
X62140D01*
Y27792D01*
X62060D01*
Y27752D01*
X62020D01*
Y27672D01*
X62060D01*
X62260Y28710D02*
Y28670D01*
X62340D01*
Y28710D01*
X62380D01*
Y28790D01*
X62340D01*
Y28830D01*
X62260D01*
Y28790D01*
X62220D01*
Y28710D01*
X62260D01*
X56510Y30625D02*
Y30585D01*
X56590D01*
Y30625D01*
X56630D01*
Y30705D01*
X56590D01*
Y30745D01*
X56510D01*
Y30705D01*
X56470D01*
Y30625D01*
X56510D01*
X59510Y29110D02*
Y29070D01*
X59590D01*
Y29110D01*
X59630D01*
Y29190D01*
X59590D01*
Y29230D01*
X59510D01*
Y29190D01*
X59470D01*
Y29110D01*
X59510D01*
X56660Y29260D02*
Y29220D01*
X56740D01*
Y29260D01*
X56780D01*
Y29340D01*
X56740D01*
Y29380D01*
X56660D01*
Y29340D01*
X56620D01*
Y29260D01*
X56660D01*
X59960Y25660D02*
Y25620D01*
X60040D01*
Y25660D01*
X60080D01*
Y25740D01*
X60040D01*
Y25780D01*
X59960D01*
Y25740D01*
X59920D01*
Y25660D01*
X59960D01*
X56410Y25710D02*
Y25670D01*
X56490D01*
Y25710D01*
X56530D01*
Y25790D01*
X56490D01*
Y25830D01*
X56410D01*
Y25790D01*
X56370D01*
Y25710D01*
X56410D01*
X58660Y27310D02*
Y27270D01*
X58740D01*
Y27310D01*
X58780D01*
Y27390D01*
X58740D01*
Y27430D01*
X58660D01*
Y27390D01*
X58620D01*
Y27310D01*
X58660D01*
X56360Y27360D02*
Y27320D01*
X56440D01*
Y27360D01*
X56480D01*
Y27440D01*
X56440D01*
Y27480D01*
X56360D01*
Y27440D01*
X56320D01*
Y27360D01*
X56360D01*
X48960Y25674D02*
Y25634D01*
X49040D01*
Y25674D01*
X49080D01*
Y25754D01*
X49040D01*
Y25794D01*
X48960D01*
Y25754D01*
X48920D01*
Y25674D01*
X48960D01*
X46010Y25760D02*
Y25720D01*
X46090D01*
Y25760D01*
X46130D01*
Y25840D01*
X46090D01*
Y25880D01*
X46010D01*
Y25840D01*
X45970D01*
Y25760D01*
X46010D01*
X49510Y30460D02*
Y30420D01*
X49590D01*
Y30460D01*
X49630D01*
Y30540D01*
X49590D01*
Y30580D01*
X49510D01*
Y30540D01*
X49470D01*
Y30460D01*
X49510D01*
X46310Y30625D02*
Y30585D01*
X46390D01*
Y30625D01*
X46430D01*
Y30705D01*
X46390D01*
Y30745D01*
X46310D01*
Y30705D01*
X46270D01*
Y30625D01*
X46310D01*
X48310Y28810D02*
Y28770D01*
X48390D01*
Y28810D01*
X48430D01*
Y28890D01*
X48390D01*
Y28930D01*
X48310D01*
Y28890D01*
X48270D01*
Y28810D01*
X48310D01*
X46010Y28853D02*
Y28813D01*
X46090D01*
Y28853D01*
X46130D01*
Y28933D01*
X46090D01*
Y28973D01*
X46010D01*
Y28933D01*
X45970D01*
Y28853D01*
X46010D01*
X49360Y27510D02*
Y27470D01*
X49440D01*
Y27510D01*
X49480D01*
Y27590D01*
X49440D01*
Y27630D01*
X49360D01*
Y27590D01*
X49320D01*
Y27510D01*
X49360D01*
X48110Y27210D02*
Y27170D01*
X48190D01*
Y27210D01*
X48230D01*
Y27290D01*
X48190D01*
Y27330D01*
X48110D01*
Y27290D01*
X48070D01*
Y27210D01*
X48110D01*
X45960Y27410D02*
Y27370D01*
X46040D01*
Y27410D01*
X46080D01*
Y27490D01*
X46040D01*
Y27530D01*
X45960D01*
Y27490D01*
X45920D01*
Y27410D01*
X45960D01*
X40060Y25510D02*
Y25470D01*
X40140D01*
Y25510D01*
X40180D01*
Y25590D01*
X40140D01*
Y25630D01*
X40060D01*
Y25590D01*
X40020D01*
Y25510D01*
X40060D01*
X38260Y25710D02*
Y25670D01*
X38340D01*
Y25710D01*
X38380D01*
Y25790D01*
X38340D01*
Y25830D01*
X38260D01*
Y25790D01*
X38220D01*
Y25710D01*
X38260D01*
X35060Y25610D02*
Y25570D01*
X35140D01*
Y25610D01*
X35180D01*
Y25690D01*
X35140D01*
Y25730D01*
X35060D01*
Y25690D01*
X35020D01*
Y25610D01*
X35060D01*
X39460Y30410D02*
Y30370D01*
X39540D01*
Y30410D01*
X39580D01*
Y30490D01*
X39540D01*
Y30530D01*
X39460D01*
Y30490D01*
X39420D01*
Y30410D01*
X39460D01*
X37110Y30460D02*
Y30420D01*
X37190D01*
Y30460D01*
X37230D01*
Y30540D01*
X37190D01*
Y30580D01*
X37110D01*
Y30540D01*
X37070D01*
Y30460D01*
X37110D01*
X35410Y30660D02*
Y30620D01*
X35490D01*
Y30660D01*
X35530D01*
Y30740D01*
X35490D01*
Y30780D01*
X35410D01*
Y30740D01*
X35370D01*
Y30660D01*
X35410D01*
X39160Y28760D02*
Y28720D01*
X39240D01*
Y28760D01*
X39280D01*
Y28840D01*
X39240D01*
Y28880D01*
X39160D01*
Y28840D01*
X39120D01*
Y28760D01*
X39160D01*
X37910Y28910D02*
Y28870D01*
X37990D01*
Y28910D01*
X38030D01*
Y28990D01*
X37990D01*
Y29030D01*
X37910D01*
Y28990D01*
X37870D01*
Y28910D01*
X37910D01*
X36410Y28760D02*
Y28720D01*
X36490D01*
Y28760D01*
X36530D01*
Y28840D01*
X36490D01*
Y28880D01*
X36410D01*
Y28840D01*
X36370D01*
Y28760D01*
X36410D01*
X35260Y28960D02*
Y28920D01*
X35340D01*
Y28960D01*
X35380D01*
Y29040D01*
X35340D01*
Y29080D01*
X35260D01*
Y29040D01*
X35220D01*
Y28960D01*
X35260D01*
X39660Y26860D02*
Y26820D01*
X39740D01*
Y26860D01*
X39780D01*
Y26940D01*
X39740D01*
Y26980D01*
X39660D01*
Y26940D01*
X39620D01*
Y26860D01*
X39660D01*
X37210Y27110D02*
Y27070D01*
X37290D01*
Y27110D01*
X37330D01*
Y27190D01*
X37290D01*
Y27230D01*
X37210D01*
Y27190D01*
X37170D01*
Y27110D01*
X37210D01*
X38110Y26960D02*
Y26920D01*
X38190D01*
Y26960D01*
X38230D01*
Y27040D01*
X38190D01*
Y27080D01*
X38110D01*
Y27040D01*
X38070D01*
Y26960D01*
X38110D01*
X35410Y27060D02*
Y27020D01*
X35490D01*
Y27060D01*
X35530D01*
Y27140D01*
X35490D01*
Y27180D01*
X35410D01*
Y27140D01*
X35370D01*
Y27060D01*
X35410D01*
X29860Y25460D02*
Y25420D01*
X29940D01*
Y25460D01*
X29980D01*
Y25540D01*
X29940D01*
Y25580D01*
X29860D01*
Y25540D01*
X29820D01*
Y25460D01*
X29860D01*
X26960Y25510D02*
Y25470D01*
X27040D01*
Y25510D01*
X27080D01*
Y25590D01*
X27040D01*
Y25630D01*
X26960D01*
Y25590D01*
X26920D01*
Y25510D01*
X26960D01*
X28660Y30729D02*
Y30689D01*
X28740D01*
Y30729D01*
X28780D01*
Y30809D01*
X28740D01*
Y30849D01*
X28660D01*
Y30809D01*
X28620D01*
Y30729D01*
X28660D01*
X26960Y30760D02*
Y30720D01*
X27040D01*
Y30760D01*
X27080D01*
Y30840D01*
X27040D01*
Y30880D01*
X26960D01*
Y30840D01*
X26920D01*
Y30760D01*
X26960D01*
X24410Y28710D02*
Y28670D01*
X24490D01*
Y28710D01*
X24530D01*
Y28790D01*
X24490D01*
Y28830D01*
X24410D01*
Y28790D01*
X24370D01*
Y28710D01*
X24410D01*
X23310Y28810D02*
Y28770D01*
X23390D01*
Y28810D01*
X23430D01*
Y28890D01*
X23390D01*
Y28930D01*
X23310D01*
Y28890D01*
X23270D01*
Y28810D01*
X23310D01*
X22660D02*
Y28770D01*
X22740D01*
Y28810D01*
X22780D01*
Y28890D01*
X22740D01*
Y28930D01*
X22660D01*
Y28890D01*
X22620D01*
Y28810D01*
X22660D01*
X21160Y26610D02*
Y26570D01*
X21240D01*
Y26610D01*
X21280D01*
Y26690D01*
X21240D01*
Y26730D01*
X21160D01*
Y26690D01*
X21120D01*
Y26610D01*
X21160D01*
X25116Y25560D02*
Y25520D01*
X25196D01*
Y25560D01*
X25236D01*
Y25640D01*
X25196D01*
Y25680D01*
X25116D01*
Y25640D01*
X25076D01*
Y25560D01*
X25116D01*
Y26119D02*
Y26079D01*
X25196D01*
Y26119D01*
X25236D01*
Y26199D01*
X25196D01*
Y26239D01*
X25116D01*
Y26199D01*
X25076D01*
Y26119D01*
X25116D01*
X24960Y26560D02*
Y26520D01*
X25040D01*
Y26560D01*
X25080D01*
Y26640D01*
X25040D01*
Y26680D01*
X24960D01*
Y26640D01*
X24920D01*
Y26560D01*
X24960D01*
X25175Y24510D02*
Y24470D01*
X25255D01*
Y24510D01*
X25295D01*
Y24590D01*
X25255D01*
Y24630D01*
X25175D01*
Y24590D01*
X25135D01*
Y24510D01*
X25175D01*
X24260Y24310D02*
Y24270D01*
X24340D01*
Y24310D01*
X24380D01*
Y24390D01*
X24340D01*
Y24430D01*
X24260D01*
Y24390D01*
X24220D01*
Y24310D01*
X24260D01*
X23210Y24210D02*
Y24170D01*
X23290D01*
Y24210D01*
X23330D01*
Y24290D01*
X23290D01*
Y24330D01*
X23210D01*
Y24290D01*
X23170D01*
Y24210D01*
X23210D01*
X22260Y23910D02*
Y23870D01*
X22340D01*
Y23910D01*
X22380D01*
Y23990D01*
X22340D01*
Y24030D01*
X22260D01*
Y23990D01*
X22220D01*
Y23910D01*
X22260D01*
X17560Y24310D02*
Y24270D01*
X17640D01*
Y24310D01*
X17680D01*
Y24390D01*
X17640D01*
Y24430D01*
X17560D01*
Y24390D01*
X17520D01*
Y24310D01*
X17560D01*
Y25760D02*
Y25720D01*
X17640D01*
Y25760D01*
X17680D01*
Y25840D01*
X17640D01*
Y25880D01*
X17560D01*
Y25840D01*
X17520D01*
Y25760D01*
X17560D01*
X18560Y27010D02*
Y26970D01*
X18640D01*
Y27010D01*
X18680D01*
Y27090D01*
X18640D01*
Y27130D01*
X18560D01*
Y27090D01*
X18520D01*
Y27010D01*
X18560D01*
X17860Y27060D02*
Y27020D01*
X17940D01*
Y27060D01*
X17980D01*
Y27140D01*
X17940D01*
Y27180D01*
X17860D01*
Y27140D01*
X17820D01*
Y27060D01*
X17860D01*
X18660Y28560D02*
Y28520D01*
X18740D01*
Y28560D01*
X18780D01*
Y28640D01*
X18740D01*
Y28680D01*
X18660D01*
Y28640D01*
X18620D01*
Y28560D01*
X18660D01*
X18360Y31810D02*
Y31770D01*
X18440D01*
Y31810D01*
X18480D01*
Y31890D01*
X18440D01*
Y31930D01*
X18360D01*
Y31890D01*
X18320D01*
Y31810D01*
X18360D01*
X20010Y30760D02*
Y30720D01*
X20090D01*
Y30760D01*
X20130D01*
Y30840D01*
X20090D01*
Y30880D01*
X20010D01*
Y30840D01*
X19970D01*
Y30760D01*
X20010D01*
X19060Y31660D02*
Y31620D01*
X19140D01*
Y31660D01*
X19180D01*
Y31740D01*
X19140D01*
Y31780D01*
X19060D01*
Y31740D01*
X19020D01*
Y31660D01*
X19060D01*
X26860Y27460D02*
Y27420D01*
X26940D01*
Y27460D01*
X26980D01*
Y27540D01*
X26940D01*
Y27580D01*
X26860D01*
Y27540D01*
X26820D01*
Y27460D01*
X26860D01*
X27110Y28260D02*
Y28220D01*
X27190D01*
Y28260D01*
X27230D01*
Y28340D01*
X27190D01*
Y28380D01*
X27110D01*
Y28340D01*
X27070D01*
Y28260D01*
X27110D01*
X26926Y29460D02*
Y29420D01*
X27006D01*
Y29460D01*
X27046D01*
Y29540D01*
X27006D01*
Y29580D01*
X26926D01*
Y29540D01*
X26886D01*
Y29460D01*
X26926D01*
X29560D02*
Y29420D01*
X29640D01*
Y29460D01*
X29680D01*
Y29540D01*
X29640D01*
Y29580D01*
X29560D01*
Y29540D01*
X29520D01*
Y29460D01*
X29560D01*
X59929Y26491D02*
Y26451D01*
X60009D01*
Y26491D01*
X60049D01*
Y26571D01*
X60009D01*
Y26611D01*
X59929D01*
Y26571D01*
X59889D01*
Y26491D01*
X59929D01*
X49941D02*
Y26451D01*
X50021D01*
Y26491D01*
X50061D01*
Y26571D01*
X50021D01*
Y26611D01*
X49941D01*
Y26571D01*
X49901D01*
Y26491D01*
X49941D01*
X25010Y27010D02*
Y26970D01*
X25090D01*
Y27010D01*
X25130D01*
Y27090D01*
X25090D01*
Y27130D01*
X25010D01*
Y27090D01*
X24970D01*
Y27010D01*
X25010D01*
X25160Y27960D02*
Y27920D01*
X25240D01*
Y27960D01*
X25280D01*
Y28040D01*
X25240D01*
Y28080D01*
X25160D01*
Y28040D01*
X25120D01*
Y27960D01*
X25160D01*
X24860Y30360D02*
Y30320D01*
X24940D01*
Y30360D01*
X24980D01*
Y30440D01*
X24940D01*
Y30480D01*
X24860D01*
Y30440D01*
X24820D01*
Y30360D01*
X24860D01*
X25110Y28410D02*
Y28370D01*
X25190D01*
Y28410D01*
X25230D01*
Y28490D01*
X25190D01*
Y28530D01*
X25110D01*
Y28490D01*
X25070D01*
Y28410D01*
X25110D01*
X21160Y28610D02*
Y28570D01*
X21240D01*
Y28610D01*
X21280D01*
Y28690D01*
X21240D01*
Y28730D01*
X21160D01*
Y28690D01*
X21120D01*
Y28610D01*
X21160D01*
X22960Y29710D02*
Y29670D01*
X23040D01*
Y29710D01*
X23080D01*
Y29790D01*
X23040D01*
Y29830D01*
X22960D01*
Y29790D01*
X22920D01*
Y29710D01*
X22960D01*
X50860Y28160D02*
Y28120D01*
X50940D01*
Y28160D01*
X50980D01*
Y28240D01*
X50940D01*
Y28280D01*
X50860D01*
Y28240D01*
X50820D01*
Y28160D01*
X50860D01*
X39360Y28110D02*
Y28070D01*
X39440D01*
Y28110D01*
X39480D01*
Y28190D01*
X39440D01*
Y28230D01*
X39360D01*
Y28190D01*
X39320D01*
Y28110D01*
X39360D01*
X28960Y29744D02*
Y29704D01*
X29040D01*
Y29744D01*
X29080D01*
Y29824D01*
X29040D01*
Y29864D01*
X28960D01*
Y29824D01*
X28920D01*
Y29744D01*
X28960D01*
X29010Y27610D02*
Y27570D01*
X29090D01*
Y27610D01*
X29130D01*
Y27690D01*
X29090D01*
Y27730D01*
X29010D01*
Y27690D01*
X28970D01*
Y27610D01*
X29010D01*
D53*
X31250Y30572D02*
G03*
X31250Y30572I-80J0D01*
G01*
X33809D02*
G03*
X33809Y30572I-80J0D01*
G01*
X31250Y28800D02*
G03*
X31250Y28800I-80J0D01*
G01*
X33809D02*
G03*
X33809Y28800I-80J0D01*
G01*
X44480Y28800D02*
G03*
X44480Y28800I-80J0D01*
G01*
X41921D02*
G03*
X41921Y28800I-80J0D01*
G01*
X44480Y30572D02*
G03*
X44480Y30572I-80J0D01*
G01*
X41921D02*
G03*
X41921Y30572I-80J0D01*
G01*
X52580D02*
G03*
X52580Y30572I-80J0D01*
G01*
X55139D02*
G03*
X55139Y30572I-80J0D01*
G01*
X52580Y28800D02*
G03*
X52580Y28800I-80J0D01*
G01*
X55139D02*
G03*
X55139Y28800I-80J0D01*
G01*
X65804Y28800D02*
G03*
X65804Y28800I-80J0D01*
G01*
X63245D02*
G03*
X63245Y28800I-80J0D01*
G01*
X65804Y30572D02*
G03*
X65804Y30572I-80J0D01*
G01*
X63245D02*
G03*
X63245Y30572I-80J0D01*
G01*
X52580Y27486D02*
G03*
X52580Y27486I-80J0D01*
G01*
X55139D02*
G03*
X55139Y27486I-80J0D01*
G01*
X52580Y25714D02*
G03*
X52580Y25714I-80J0D01*
G01*
X55139D02*
G03*
X55139Y25714I-80J0D01*
G01*
X33760D02*
G03*
X33760Y25714I-80J0D01*
G01*
X31200D02*
G03*
X31200Y25714I-80J0D01*
G01*
X33760Y27486D02*
G03*
X33760Y27486I-80J0D01*
G01*
X31200D02*
G03*
X31200Y27486I-80J0D01*
G01*
X41900D02*
G03*
X41900Y27486I-80J0D01*
G01*
X44460D02*
G03*
X44460Y27486I-80J0D01*
G01*
X41900Y25714D02*
G03*
X41900Y25714I-80J0D01*
G01*
X44460D02*
G03*
X44460Y25714I-80J0D01*
G01*
X63245Y27486D02*
G03*
X63245Y27486I-80J0D01*
G01*
X65804D02*
G03*
X65804Y27486I-80J0D01*
G01*
X63245Y25714D02*
G03*
X63245Y25714I-80J0D01*
G01*
X65804D02*
G03*
X65804Y25714I-80J0D01*
G01*
M02*
