G04*
G04 #@! TF.GenerationSoftware,Altium Limited,Altium Designer,18.1.9 (240)*
G04*
G04 Layer_Physical_Order=1*
G04 Layer_Color=255*
%FSLAX24Y24*%
%MOIN*%
G70*
G01*
G75*
%ADD10C,0.0100*%
%ADD15R,0.0300X0.0300*%
%ADD16R,0.0300X0.0300*%
%ADD17R,0.0630X0.0394*%
%ADD28C,0.0150*%
%ADD29O,0.0591X0.0787*%
%ADD30C,0.0591*%
G04:AMPARAMS|DCode=31|XSize=84.6mil|YSize=31.5mil|CornerRadius=7.9mil|HoleSize=0mil|Usage=FLASHONLY|Rotation=0.000|XOffset=0mil|YOffset=0mil|HoleType=Round|Shape=RoundedRectangle|*
%AMROUNDEDRECTD31*
21,1,0.0846,0.0157,0,0,0.0*
21,1,0.0689,0.0315,0,0,0.0*
1,1,0.0157,0.0344,-0.0079*
1,1,0.0157,-0.0344,-0.0079*
1,1,0.0157,-0.0344,0.0079*
1,1,0.0157,0.0344,0.0079*
%
%ADD31ROUNDEDRECTD31*%
%ADD32C,0.0197*%
%ADD33O,0.0787X0.0591*%
%ADD34C,0.0394*%
%ADD35C,0.0240*%
G36*
X20600Y31732D02*
X20554Y31712D01*
X19953Y32313D01*
Y32737D01*
X19999Y32756D01*
X20082Y32820D01*
X20145Y32902D01*
X20185Y32998D01*
X20199Y33102D01*
Y33298D01*
X20185Y33402D01*
X20145Y33498D01*
X20082Y33580D01*
X19999Y33644D01*
X19903Y33684D01*
X19800Y33697D01*
X19697Y33684D01*
X19601Y33644D01*
X19518Y33580D01*
X19455Y33498D01*
X19415Y33402D01*
X19401Y33298D01*
Y33102D01*
X19415Y32998D01*
X19455Y32902D01*
X19518Y32820D01*
X19601Y32756D01*
X19647Y32737D01*
Y32250D01*
X19659Y32191D01*
X19692Y32142D01*
X20826Y31008D01*
X20807Y30962D01*
X20551D01*
X19785Y31728D01*
X19777Y31766D01*
X19729Y31839D01*
X19656Y31887D01*
X19570Y31904D01*
X19484Y31887D01*
X19411Y31839D01*
X19363Y31766D01*
X19346Y31680D01*
X19363Y31594D01*
X19411Y31521D01*
X19484Y31473D01*
X19570Y31456D01*
X19616Y31465D01*
X20217Y30864D01*
Y30303D01*
X19613D01*
X18953Y30963D01*
Y32737D01*
X18999Y32756D01*
X19082Y32820D01*
X19145Y32902D01*
X19185Y32998D01*
X19199Y33102D01*
Y33298D01*
X19185Y33402D01*
X19145Y33498D01*
X19082Y33580D01*
X18999Y33644D01*
X18903Y33684D01*
X18800Y33697D01*
X18697Y33684D01*
X18601Y33644D01*
X18518Y33580D01*
X18455Y33498D01*
X18415Y33402D01*
X18401Y33298D01*
Y33102D01*
X18415Y32998D01*
X18455Y32902D01*
X18518Y32820D01*
X18601Y32756D01*
X18647Y32737D01*
Y30900D01*
X18659Y30841D01*
X18692Y30792D01*
X19442Y30042D01*
X19491Y30009D01*
X19550Y29997D01*
X20217D01*
Y29778D01*
Y29187D01*
Y28596D01*
Y27940D01*
X20171Y27921D01*
X19875Y28216D01*
Y28475D01*
X19375D01*
Y27975D01*
X19684D01*
X20014Y27645D01*
Y27343D01*
X19968Y27323D01*
X19775Y27516D01*
Y27800D01*
X19275D01*
Y27300D01*
X19559D01*
X19814Y27045D01*
Y26939D01*
X19764Y26912D01*
X19736Y26931D01*
X19650Y26948D01*
X19564Y26931D01*
X19491Y26883D01*
X19443Y26810D01*
X19426Y26724D01*
X19443Y26638D01*
X19472Y26595D01*
Y24667D01*
X19485Y24599D01*
X19524Y24541D01*
X20022Y24043D01*
X20022Y24043D01*
X20080Y24004D01*
X20148Y23990D01*
X20148Y23990D01*
X20217D01*
Y23872D01*
X21047D01*
Y24463D01*
Y24709D01*
X20632D01*
X20217D01*
Y24418D01*
X20171Y24399D01*
X19828Y24741D01*
Y25535D01*
X19878Y25555D01*
X20192Y25242D01*
X20217Y25225D01*
Y25053D01*
Y24809D01*
X20632D01*
X21047D01*
Y25149D01*
X21097Y25186D01*
X21150Y25176D01*
X21236Y25193D01*
X21309Y25241D01*
X21357Y25314D01*
X21374Y25400D01*
X21357Y25486D01*
X21309Y25559D01*
X21236Y25607D01*
X21150Y25624D01*
X21097Y25614D01*
X21062Y25635D01*
X21047Y25651D01*
Y25766D01*
X21091Y25790D01*
X21114Y25774D01*
X21200Y25757D01*
X21286Y25774D01*
X21359Y25823D01*
X21407Y25896D01*
X21424Y25982D01*
X21407Y26067D01*
X21359Y26140D01*
X21286Y26189D01*
X21200Y26206D01*
X21114Y26189D01*
X21091Y26173D01*
X21047Y26197D01*
Y26897D01*
X24888D01*
X24891Y26891D01*
X24964Y26843D01*
X25050Y26826D01*
X25136Y26843D01*
X25209Y26891D01*
X25257Y26964D01*
X25274Y27050D01*
X25257Y27136D01*
X25209Y27209D01*
X25136Y27257D01*
X25050Y27274D01*
X24964Y27257D01*
X24891Y27209D01*
X24888Y27203D01*
X21047D01*
Y27647D01*
X25000D01*
X25059Y27659D01*
X25108Y27692D01*
X25193Y27777D01*
X25200Y27776D01*
X25286Y27793D01*
X25291Y27796D01*
X25335Y27773D01*
Y27415D01*
Y26825D01*
Y26234D01*
Y25644D01*
Y25053D01*
Y24463D01*
Y23872D01*
X26165D01*
Y24463D01*
Y25053D01*
Y25644D01*
Y25788D01*
X30681D01*
X30703Y25764D01*
X31513D01*
X31506Y25817D01*
X31466Y25914D01*
X31433Y25957D01*
X31457Y26007D01*
X33343D01*
X33367Y25957D01*
X33334Y25914D01*
X33294Y25817D01*
X33287Y25764D01*
X34072D01*
X34065Y25817D01*
X34025Y25914D01*
X33999Y25947D01*
X34024Y25997D01*
X41476D01*
X41501Y25947D01*
X41475Y25914D01*
X41435Y25817D01*
X41428Y25764D01*
X42213D01*
X42206Y25817D01*
X42166Y25914D01*
X42133Y25957D01*
X42157Y26007D01*
X44043D01*
X44067Y25957D01*
X44034Y25914D01*
X43994Y25817D01*
X43987Y25764D01*
X44772D01*
X44765Y25817D01*
X44725Y25914D01*
X44699Y25947D01*
X44724Y25997D01*
X50684D01*
Y25900D01*
X51184D01*
Y25997D01*
X52001D01*
X52134Y25864D01*
X52115Y25817D01*
X52101Y25714D01*
X52115Y25611D01*
X52155Y25515D01*
X52218Y25432D01*
X52301Y25369D01*
X52339Y25353D01*
X52329Y25303D01*
X44550D01*
X44540Y25353D01*
X44579Y25369D01*
X44661Y25432D01*
X44725Y25515D01*
X44765Y25611D01*
X44772Y25664D01*
X43987D01*
X43994Y25611D01*
X44034Y25515D01*
X44098Y25432D01*
X44180Y25369D01*
X44219Y25353D01*
X44209Y25303D01*
X41991D01*
X41981Y25353D01*
X42020Y25369D01*
X42102Y25432D01*
X42166Y25515D01*
X42206Y25611D01*
X42213Y25664D01*
X41428D01*
X41435Y25611D01*
X41475Y25515D01*
X41539Y25432D01*
X41621Y25369D01*
X41660Y25353D01*
X41650Y25303D01*
X33850D01*
X33840Y25353D01*
X33879Y25369D01*
X33961Y25432D01*
X34025Y25515D01*
X34065Y25611D01*
X34072Y25664D01*
X33287D01*
X33294Y25611D01*
X33334Y25515D01*
X33398Y25432D01*
X33480Y25369D01*
X33519Y25353D01*
X33509Y25303D01*
X31291D01*
X31281Y25353D01*
X31320Y25369D01*
X31402Y25432D01*
X31466Y25515D01*
X31506Y25611D01*
X31513Y25664D01*
X30728D01*
X30735Y25611D01*
X30775Y25515D01*
X30839Y25432D01*
X30921Y25369D01*
X30960Y25353D01*
X30950Y25303D01*
X26450D01*
X26391Y25291D01*
X26342Y25258D01*
X26309Y25209D01*
X26297Y25150D01*
Y23603D01*
X17353D01*
Y27799D01*
X17403Y27809D01*
X17406Y27801D01*
X17470Y27718D01*
X17552Y27655D01*
X17648Y27615D01*
X17752Y27601D01*
X17800D01*
Y28000D01*
Y28399D01*
X17752D01*
X17648Y28385D01*
X17552Y28345D01*
X17470Y28282D01*
X17406Y28199D01*
X17403Y28191D01*
X17353Y28201D01*
Y28799D01*
X17403Y28809D01*
X17406Y28801D01*
X17470Y28718D01*
X17552Y28655D01*
X17648Y28615D01*
X17752Y28601D01*
X17948D01*
X18052Y28615D01*
X18148Y28655D01*
X18230Y28718D01*
X18294Y28801D01*
X18334Y28897D01*
X18347Y29000D01*
X18334Y29103D01*
X18294Y29199D01*
X18230Y29282D01*
X18148Y29345D01*
X18052Y29385D01*
X17948Y29399D01*
X17752D01*
X17648Y29385D01*
X17552Y29345D01*
X17470Y29282D01*
X17406Y29199D01*
X17403Y29191D01*
X17353Y29201D01*
Y33086D01*
X17403Y33089D01*
X17415Y32998D01*
X17455Y32902D01*
X17518Y32820D01*
X17601Y32756D01*
X17697Y32716D01*
X17800Y32703D01*
X17903Y32716D01*
X17999Y32756D01*
X18082Y32820D01*
X18145Y32902D01*
X18185Y32998D01*
X18199Y33102D01*
Y33298D01*
X18185Y33402D01*
X18145Y33498D01*
X18082Y33580D01*
X17999Y33644D01*
X17903Y33684D01*
X17800Y33697D01*
X17697Y33684D01*
X17601Y33644D01*
X17518Y33580D01*
X17455Y33498D01*
X17415Y33402D01*
X17403Y33311D01*
X17353Y33314D01*
Y33747D01*
X20600D01*
Y31732D01*
D02*
G37*
G36*
X63038Y30947D02*
X62966Y30917D01*
X62883Y30854D01*
X62820Y30771D01*
X62780Y30675D01*
X62766Y30572D01*
X62780Y30468D01*
X62799Y30422D01*
X62614Y30237D01*
X61600D01*
Y30334D01*
X61100D01*
Y30227D01*
X55337D01*
X55321Y30275D01*
X55341Y30290D01*
X55404Y30372D01*
X55444Y30468D01*
X55451Y30522D01*
X55059D01*
X54667D01*
X54674Y30468D01*
X54714Y30372D01*
X54777Y30290D01*
X54797Y30275D01*
X54781Y30227D01*
X52778D01*
X52762Y30275D01*
X52782Y30290D01*
X52845Y30372D01*
X52885Y30468D01*
X52892Y30522D01*
X52500D01*
X52108D01*
X52115Y30468D01*
X52155Y30372D01*
X52218Y30290D01*
X52238Y30275D01*
X52222Y30227D01*
X44678D01*
X44662Y30275D01*
X44682Y30290D01*
X44745Y30372D01*
X44785Y30468D01*
X44799Y30572D01*
X44785Y30675D01*
X44745Y30771D01*
X44682Y30854D01*
X44599Y30917D01*
X44527Y30947D01*
X44537Y30997D01*
X52363D01*
X52373Y30947D01*
X52301Y30917D01*
X52218Y30854D01*
X52155Y30771D01*
X52115Y30675D01*
X52108Y30622D01*
X52500D01*
X52892D01*
X52885Y30675D01*
X52845Y30771D01*
X52782Y30854D01*
X52699Y30917D01*
X52627Y30947D01*
X52637Y30997D01*
X54923D01*
X54932Y30947D01*
X54860Y30917D01*
X54777Y30854D01*
X54714Y30771D01*
X54674Y30675D01*
X54667Y30622D01*
X55059D01*
X55451D01*
X55444Y30675D01*
X55404Y30771D01*
X55341Y30854D01*
X55258Y30917D01*
X55186Y30947D01*
X55196Y30997D01*
X63028D01*
X63038Y30947D01*
D02*
G37*
G36*
X26297Y31150D02*
X26309Y31091D01*
X26342Y31042D01*
X26391Y31009D01*
X26400Y31007D01*
Y31000D01*
X26400Y31000D01*
X26435D01*
X26450Y30997D01*
X31034D01*
X31044Y30947D01*
X30971Y30917D01*
X30889Y30854D01*
X30825Y30771D01*
X30785Y30675D01*
X30778Y30622D01*
X31170D01*
X31563D01*
X31556Y30675D01*
X31516Y30771D01*
X31452Y30854D01*
X31370Y30917D01*
X31297Y30947D01*
X31307Y30997D01*
X33593D01*
X33603Y30947D01*
X33530Y30917D01*
X33448Y30854D01*
X33384Y30771D01*
X33344Y30675D01*
X33337Y30622D01*
X33730D01*
X34122D01*
X34115Y30675D01*
X34075Y30771D01*
X34011Y30854D01*
X33929Y30917D01*
X33856Y30947D01*
X33866Y30997D01*
X41704D01*
X41714Y30947D01*
X41642Y30917D01*
X41559Y30854D01*
X41496Y30771D01*
X41456Y30675D01*
X41442Y30572D01*
X41456Y30468D01*
X41496Y30372D01*
X41559Y30290D01*
X41579Y30275D01*
X41563Y30227D01*
X34008D01*
X33992Y30275D01*
X34011Y30290D01*
X34075Y30372D01*
X34115Y30468D01*
X34122Y30522D01*
X33730D01*
X33337D01*
X33344Y30468D01*
X33384Y30372D01*
X33448Y30290D01*
X33467Y30275D01*
X33451Y30227D01*
X31449D01*
X31433Y30275D01*
X31452Y30290D01*
X31516Y30372D01*
X31556Y30468D01*
X31563Y30522D01*
X31170D01*
X30778D01*
X30785Y30468D01*
X30825Y30372D01*
X30889Y30290D01*
X30908Y30275D01*
X30892Y30227D01*
X26165D01*
Y30368D01*
Y30962D01*
X25335D01*
Y30903D01*
X21363D01*
X20912Y31354D01*
X20932Y31400D01*
X26297D01*
Y31150D01*
D02*
G37*
G36*
X25335Y30368D02*
Y29778D01*
Y29187D01*
Y28651D01*
X25285Y28624D01*
X25236Y28657D01*
X25150Y28674D01*
X25064Y28657D01*
X24991Y28609D01*
X24943Y28536D01*
X24926Y28450D01*
X24927Y28443D01*
X24637Y28153D01*
X21131D01*
X21047Y28237D01*
Y28435D01*
X21091Y28458D01*
X21114Y28443D01*
X21200Y28426D01*
X21286Y28443D01*
X21329Y28472D01*
X21950D01*
X21952Y28472D01*
X21954Y28472D01*
X21986Y28479D01*
X22018Y28485D01*
X22020Y28486D01*
X22022Y28487D01*
X22049Y28506D01*
X22076Y28524D01*
X22077Y28526D01*
X22079Y28527D01*
X23040Y29534D01*
X23086Y29543D01*
X23159Y29591D01*
X23207Y29664D01*
X23224Y29750D01*
X23207Y29836D01*
X23159Y29909D01*
X23086Y29957D01*
X23000Y29974D01*
X22914Y29957D01*
X22841Y29909D01*
X22793Y29836D01*
X22782Y29780D01*
X21874Y28828D01*
X21610D01*
X21595Y28878D01*
X21615Y28892D01*
X22970Y30247D01*
X24738D01*
X24741Y30241D01*
X24814Y30193D01*
X24900Y30176D01*
X24986Y30193D01*
X25059Y30241D01*
X25107Y30314D01*
X25124Y30400D01*
X25107Y30486D01*
X25066Y30547D01*
X25084Y30597D01*
X25335D01*
Y30368D01*
D02*
G37*
G36*
X66247Y25303D02*
X65895D01*
X65885Y25353D01*
X65923Y25369D01*
X66006Y25432D01*
X66069Y25515D01*
X66109Y25611D01*
X66116Y25664D01*
X65332D01*
X65339Y25611D01*
X65379Y25515D01*
X65442Y25432D01*
X65525Y25369D01*
X65563Y25353D01*
X65553Y25303D01*
X63336D01*
X63326Y25353D01*
X63364Y25369D01*
X63447Y25432D01*
X63510Y25515D01*
X63550Y25611D01*
X63557Y25664D01*
X62773D01*
X62780Y25611D01*
X62820Y25515D01*
X62883Y25432D01*
X62966Y25369D01*
X63004Y25353D01*
X62994Y25303D01*
X55230D01*
X55220Y25353D01*
X55258Y25369D01*
X55341Y25432D01*
X55404Y25515D01*
X55444Y25611D01*
X55458Y25714D01*
X55444Y25817D01*
X55404Y25914D01*
X55341Y25996D01*
X55258Y26059D01*
X55162Y26099D01*
X55059Y26113D01*
X54956Y26099D01*
X54860Y26059D01*
X54777Y25996D01*
X54714Y25914D01*
X54695Y25867D01*
X52864D01*
X52845Y25914D01*
X52782Y25996D01*
X52699Y26059D01*
X52603Y26099D01*
X52500Y26113D01*
X52397Y26099D01*
X52350Y26080D01*
X52172Y26258D01*
X52123Y26291D01*
X52064Y26303D01*
X51184D01*
Y26400D01*
X50684D01*
Y26303D01*
X50126D01*
X50110Y26353D01*
X50140Y26372D01*
X50188Y26445D01*
X50205Y26531D01*
X50188Y26617D01*
X50140Y26690D01*
X50067Y26738D01*
X49981Y26755D01*
X49895Y26738D01*
X49822Y26690D01*
X49819Y26684D01*
X26165D01*
Y26825D01*
Y27415D01*
Y28006D01*
Y28596D01*
Y29187D01*
Y29331D01*
X26823D01*
X26880Y29293D01*
X26966Y29276D01*
X27052Y29293D01*
X27125Y29341D01*
X27173Y29414D01*
X27190Y29500D01*
X27173Y29586D01*
X27125Y29659D01*
X27052Y29707D01*
X26966Y29724D01*
X26880Y29707D01*
X26808Y29659D01*
X26793Y29637D01*
X26165D01*
Y29921D01*
X28774D01*
X28798Y29877D01*
X28793Y29870D01*
X28776Y29784D01*
X28793Y29698D01*
X28822Y29655D01*
Y28200D01*
Y27700D01*
X28829Y27665D01*
X28826Y27650D01*
X28843Y27564D01*
X28891Y27491D01*
X28964Y27443D01*
X29050Y27426D01*
X29136Y27443D01*
X29209Y27491D01*
X29257Y27564D01*
X29274Y27650D01*
X29257Y27736D01*
X29209Y27809D01*
X29178Y27829D01*
Y28022D01*
X39221D01*
X39241Y27991D01*
X39314Y27943D01*
X39400Y27926D01*
X39486Y27943D01*
X39559Y27991D01*
X39607Y28064D01*
X39624Y28150D01*
X39607Y28236D01*
X39559Y28309D01*
X39486Y28357D01*
X39400Y28374D01*
X39360Y28366D01*
X39300Y28378D01*
X33875D01*
X33865Y28428D01*
X33929Y28455D01*
X34011Y28518D01*
X34075Y28601D01*
X34115Y28697D01*
X34128Y28800D01*
X34115Y28903D01*
X34075Y28999D01*
X34011Y29082D01*
X33929Y29145D01*
X33833Y29185D01*
X33730Y29199D01*
X33626Y29185D01*
X33530Y29145D01*
X33448Y29082D01*
X33384Y28999D01*
X33344Y28903D01*
X33331Y28800D01*
X33344Y28697D01*
X33384Y28601D01*
X33448Y28518D01*
X33530Y28455D01*
X33594Y28428D01*
X33584Y28378D01*
X31316D01*
X31306Y28428D01*
X31370Y28455D01*
X31452Y28518D01*
X31516Y28601D01*
X31556Y28697D01*
X31569Y28800D01*
X31556Y28903D01*
X31516Y28999D01*
X31452Y29082D01*
X31370Y29145D01*
X31274Y29185D01*
X31170Y29199D01*
X31067Y29185D01*
X30971Y29145D01*
X30889Y29082D01*
X30825Y28999D01*
X30785Y28903D01*
X30772Y28800D01*
X30785Y28697D01*
X30825Y28601D01*
X30889Y28518D01*
X30971Y28455D01*
X31035Y28428D01*
X31025Y28378D01*
X29178D01*
Y29655D01*
X29207Y29698D01*
X29224Y29784D01*
X29207Y29870D01*
X29202Y29877D01*
X29226Y29921D01*
X61100D01*
Y29834D01*
X61600D01*
Y29931D01*
X62677D01*
X62736Y29943D01*
X62785Y29976D01*
X63015Y30206D01*
X63062Y30187D01*
X63165Y30173D01*
X63268Y30187D01*
X63364Y30226D01*
X63447Y30290D01*
X63510Y30372D01*
X63530Y30419D01*
X65360D01*
X65379Y30372D01*
X65442Y30290D01*
X65525Y30226D01*
X65621Y30187D01*
X65724Y30173D01*
X65827Y30187D01*
X65923Y30226D01*
X66006Y30290D01*
X66069Y30372D01*
X66109Y30468D01*
X66123Y30572D01*
X66109Y30675D01*
X66069Y30771D01*
X66006Y30854D01*
X65923Y30917D01*
X65851Y30947D01*
X65861Y30997D01*
X66247D01*
Y25303D01*
D02*
G37*
G36*
X21192Y30642D02*
X21241Y30609D01*
X21300Y30597D01*
X22872D01*
X22877Y30547D01*
X22848Y30541D01*
X22799Y30508D01*
X21443Y29153D01*
X21047D01*
Y29778D01*
Y30368D01*
Y30722D01*
X21093Y30741D01*
X21192Y30642D01*
D02*
G37*
G36*
X49836Y26353D02*
X49818Y26303D01*
X44612D01*
X44564Y26312D01*
X41636D01*
X41588Y26303D01*
X33912D01*
X33864Y26312D01*
X30936D01*
X30878Y26301D01*
X30828Y26268D01*
X30654Y26093D01*
X26165D01*
Y26378D01*
X49813D01*
X49836Y26353D01*
D02*
G37*
%LPC*%
G36*
X18000Y32534D02*
X17923Y32523D01*
X17850Y32494D01*
X17788Y32446D01*
X17741Y32384D01*
X17711Y32312D01*
X17701Y32234D01*
X17711Y32157D01*
X17741Y32085D01*
X17788Y32023D01*
X17850Y31975D01*
X17923Y31945D01*
X18000Y31935D01*
X18077Y31945D01*
X18150Y31975D01*
X18212Y32023D01*
X18259Y32085D01*
X18289Y32157D01*
X18299Y32234D01*
X18289Y32312D01*
X18259Y32384D01*
X18212Y32446D01*
X18150Y32494D01*
X18077Y32523D01*
X18000Y32534D01*
D02*
G37*
G36*
Y31549D02*
X17923Y31539D01*
X17850Y31509D01*
X17788Y31462D01*
X17741Y31400D01*
X17711Y31327D01*
X17701Y31250D01*
X17711Y31173D01*
X17741Y31100D01*
X17788Y31038D01*
X17850Y30991D01*
X17923Y30961D01*
X18000Y30951D01*
X18077Y30961D01*
X18150Y30991D01*
X18212Y31038D01*
X18259Y31100D01*
X18289Y31173D01*
X18299Y31250D01*
X18289Y31327D01*
X18259Y31400D01*
X18212Y31462D01*
X18150Y31509D01*
X18077Y31539D01*
X18000Y31549D01*
D02*
G37*
G36*
Y30565D02*
X17923Y30555D01*
X17850Y30525D01*
X17788Y30477D01*
X17741Y30415D01*
X17711Y30343D01*
X17701Y30266D01*
X17711Y30188D01*
X17741Y30116D01*
X17788Y30054D01*
X17850Y30006D01*
X17923Y29977D01*
X18000Y29966D01*
X18077Y29977D01*
X18150Y30006D01*
X18212Y30054D01*
X18259Y30116D01*
X18289Y30188D01*
X18299Y30266D01*
X18289Y30343D01*
X18259Y30415D01*
X18212Y30477D01*
X18150Y30525D01*
X18077Y30555D01*
X18000Y30565D01*
D02*
G37*
G36*
X19325Y28475D02*
X19125D01*
Y28275D01*
X19325D01*
Y28475D01*
D02*
G37*
G36*
X19025D02*
X18825D01*
Y28275D01*
X19025D01*
Y28475D01*
D02*
G37*
G36*
X17948Y28399D02*
X17900D01*
Y28050D01*
X18341D01*
X18334Y28103D01*
X18294Y28199D01*
X18230Y28282D01*
X18148Y28345D01*
X18052Y28385D01*
X17948Y28399D01*
D02*
G37*
G36*
X19325Y28175D02*
X19125D01*
Y27975D01*
X19325D01*
Y28175D01*
D02*
G37*
G36*
X19025D02*
X18825D01*
Y27975D01*
X19025D01*
Y28175D01*
D02*
G37*
G36*
X18341Y27950D02*
X17900D01*
Y27601D01*
X17948D01*
X18052Y27615D01*
X18148Y27655D01*
X18230Y27718D01*
X18294Y27801D01*
X18334Y27897D01*
X18341Y27950D01*
D02*
G37*
G36*
X19225Y27800D02*
X19025D01*
Y27600D01*
X19225D01*
Y27800D01*
D02*
G37*
G36*
X18925D02*
X18725D01*
Y27600D01*
X18925D01*
Y27800D01*
D02*
G37*
G36*
X19225Y27500D02*
X19025D01*
Y27300D01*
X19225D01*
Y27500D01*
D02*
G37*
G36*
X18925D02*
X18725D01*
Y27300D01*
X18925D01*
Y27500D01*
D02*
G37*
G36*
X18634Y26583D02*
X17945D01*
X17875Y26570D01*
X17816Y26530D01*
X17777Y26471D01*
X17763Y26401D01*
Y26244D01*
X17777Y26174D01*
X17816Y26115D01*
X17875Y26075D01*
X17945Y26062D01*
X18634D01*
X18704Y26075D01*
X18763Y26115D01*
X18802Y26174D01*
X18816Y26244D01*
Y26401D01*
X18802Y26471D01*
X18763Y26530D01*
X18704Y26570D01*
X18634Y26583D01*
D02*
G37*
G36*
X19136Y26210D02*
X19058Y26194D01*
X18993Y26151D01*
X18949Y26085D01*
X18934Y26008D01*
X18949Y25930D01*
X18993Y25865D01*
X19058Y25821D01*
X19136Y25805D01*
X19213Y25821D01*
X19279Y25865D01*
X19323Y25930D01*
X19338Y26008D01*
X19323Y26085D01*
X19279Y26151D01*
X19213Y26194D01*
X19136Y26210D01*
D02*
G37*
G36*
Y24635D02*
X19058Y24620D01*
X18993Y24576D01*
X18949Y24510D01*
X18934Y24433D01*
X18949Y24355D01*
X18993Y24290D01*
X19058Y24246D01*
X19136Y24230D01*
X19213Y24246D01*
X19279Y24290D01*
X19323Y24355D01*
X19338Y24433D01*
X19323Y24510D01*
X19279Y24576D01*
X19213Y24620D01*
X19136Y24635D01*
D02*
G37*
G36*
X18594Y24379D02*
X17906D01*
X17836Y24365D01*
X17777Y24325D01*
X17737Y24266D01*
X17723Y24197D01*
Y24039D01*
X17737Y23969D01*
X17777Y23910D01*
X17836Y23871D01*
X17906Y23857D01*
X18594D01*
X18664Y23871D01*
X18723Y23910D01*
X18763Y23969D01*
X18777Y24039D01*
Y24197D01*
X18763Y24266D01*
X18723Y24325D01*
X18664Y24365D01*
X18594Y24379D01*
D02*
G37*
G36*
X24760Y24546D02*
X24664Y24534D01*
X24575Y24497D01*
X24499Y24438D01*
X24440Y24362D01*
X24403Y24273D01*
X24391Y24177D01*
X24403Y24081D01*
X24440Y23992D01*
X24499Y23916D01*
X24575Y23857D01*
X24664Y23820D01*
X24760Y23808D01*
X24856Y23820D01*
X24945Y23857D01*
X25021Y23916D01*
X25080Y23992D01*
X25117Y24081D01*
X25129Y24177D01*
X25117Y24273D01*
X25080Y24362D01*
X25021Y24438D01*
X24945Y24497D01*
X24856Y24534D01*
X24760Y24546D01*
D02*
G37*
G36*
X23760D02*
X23664Y24534D01*
X23575Y24497D01*
X23499Y24438D01*
X23440Y24362D01*
X23403Y24273D01*
X23391Y24177D01*
X23403Y24081D01*
X23440Y23992D01*
X23499Y23916D01*
X23575Y23857D01*
X23664Y23820D01*
X23760Y23808D01*
X23856Y23820D01*
X23945Y23857D01*
X24021Y23916D01*
X24080Y23992D01*
X24117Y24081D01*
X24129Y24177D01*
X24117Y24273D01*
X24080Y24362D01*
X24021Y24438D01*
X23945Y24497D01*
X23856Y24534D01*
X23760Y24546D01*
D02*
G37*
G36*
X22760D02*
X22664Y24534D01*
X22575Y24497D01*
X22499Y24438D01*
X22440Y24362D01*
X22403Y24273D01*
X22391Y24177D01*
X22403Y24081D01*
X22440Y23992D01*
X22499Y23916D01*
X22575Y23857D01*
X22664Y23820D01*
X22760Y23808D01*
X22856Y23820D01*
X22945Y23857D01*
X23021Y23916D01*
X23080Y23992D01*
X23117Y24081D01*
X23129Y24177D01*
X23117Y24273D01*
X23080Y24362D01*
X23021Y24438D01*
X22945Y24497D01*
X22856Y24534D01*
X22760Y24546D01*
D02*
G37*
G36*
X21760Y24546D02*
X21664Y24534D01*
X21575Y24497D01*
X21499Y24438D01*
X21440Y24362D01*
X21403Y24273D01*
X21391Y24177D01*
X21403Y24081D01*
X21440Y23992D01*
X21499Y23916D01*
X21575Y23857D01*
X21664Y23820D01*
X21760Y23808D01*
X21856Y23820D01*
X21945Y23857D01*
X22021Y23916D01*
X22080Y23992D01*
X22117Y24081D01*
X22129Y24177D01*
X22117Y24273D01*
X22080Y24362D01*
X22021Y24438D01*
X21945Y24497D01*
X21856Y24534D01*
X21760Y24546D01*
D02*
G37*
G36*
X51200Y29750D02*
X50700D01*
Y29637D01*
X30500Y29637D01*
X29773D01*
X29759Y29659D01*
X29686Y29707D01*
X29600Y29724D01*
X29514Y29707D01*
X29441Y29659D01*
X29393Y29586D01*
X29376Y29500D01*
X29393Y29414D01*
X29441Y29341D01*
X29514Y29293D01*
X29600Y29276D01*
X29686Y29293D01*
X29743Y29331D01*
X30500D01*
X50700Y29331D01*
Y29250D01*
X51200D01*
Y29347D01*
X51737D01*
X52134Y28950D01*
X52115Y28903D01*
X52101Y28800D01*
X52115Y28697D01*
X52155Y28601D01*
X52218Y28518D01*
X52301Y28455D01*
X52364Y28428D01*
X52354Y28378D01*
X51078D01*
Y28650D01*
X51200D01*
Y29150D01*
X50700D01*
Y28650D01*
X50722D01*
Y28329D01*
X50693Y28286D01*
X50676Y28200D01*
X50693Y28114D01*
X50722Y28071D01*
Y27000D01*
X50684D01*
Y26500D01*
X51184D01*
Y27000D01*
X51078D01*
Y28022D01*
X61172D01*
Y27450D01*
X61100D01*
Y26950D01*
X61600D01*
Y27450D01*
X61528D01*
Y28250D01*
X61528Y28250D01*
X61528Y28250D01*
Y29234D01*
X61600D01*
Y29734D01*
X61100D01*
Y29234D01*
X61172D01*
Y28378D01*
X55205D01*
X55195Y28428D01*
X55258Y28455D01*
X55341Y28518D01*
X55404Y28601D01*
X55444Y28697D01*
X55458Y28800D01*
X55444Y28903D01*
X55404Y28999D01*
X55341Y29082D01*
X55258Y29145D01*
X55162Y29185D01*
X55059Y29199D01*
X54956Y29185D01*
X54860Y29145D01*
X54777Y29082D01*
X54714Y28999D01*
X54695Y28953D01*
X52864D01*
X52845Y28999D01*
X52782Y29082D01*
X52699Y29145D01*
X52603Y29185D01*
X52500Y29199D01*
X52397Y29185D01*
X52350Y29166D01*
X51908Y29608D01*
X51859Y29641D01*
X51800Y29653D01*
X51200D01*
Y29750D01*
D02*
G37*
G36*
X65774Y29192D02*
Y28850D01*
X66116D01*
X66109Y28903D01*
X66069Y28999D01*
X66006Y29082D01*
X65923Y29145D01*
X65827Y29185D01*
X65774Y29192D01*
D02*
G37*
G36*
X65674D02*
X65621Y29185D01*
X65525Y29145D01*
X65442Y29082D01*
X65379Y28999D01*
X65339Y28903D01*
X65332Y28850D01*
X65674D01*
Y29192D01*
D02*
G37*
G36*
X63215D02*
Y28850D01*
X63557D01*
X63550Y28903D01*
X63510Y28999D01*
X63447Y29082D01*
X63364Y29145D01*
X63268Y29185D01*
X63215Y29192D01*
D02*
G37*
G36*
X63115D02*
X63062Y29185D01*
X62966Y29145D01*
X62883Y29082D01*
X62820Y28999D01*
X62780Y28903D01*
X62773Y28850D01*
X63115D01*
Y29192D01*
D02*
G37*
G36*
X44450Y29192D02*
Y28850D01*
X44792D01*
X44785Y28903D01*
X44745Y28999D01*
X44682Y29082D01*
X44599Y29145D01*
X44503Y29185D01*
X44450Y29192D01*
D02*
G37*
G36*
X44350D02*
X44297Y29185D01*
X44201Y29145D01*
X44118Y29082D01*
X44055Y28999D01*
X44015Y28903D01*
X44008Y28850D01*
X44350D01*
Y29192D01*
D02*
G37*
G36*
X41891D02*
Y28850D01*
X42233D01*
X42226Y28903D01*
X42186Y28999D01*
X42123Y29082D01*
X42040Y29145D01*
X41944Y29185D01*
X41891Y29192D01*
D02*
G37*
G36*
X41791D02*
X41738Y29185D01*
X41642Y29145D01*
X41559Y29082D01*
X41496Y28999D01*
X41456Y28903D01*
X41449Y28850D01*
X41791D01*
Y29192D01*
D02*
G37*
G36*
X66116Y28750D02*
X65774D01*
Y28408D01*
X65827Y28415D01*
X65923Y28455D01*
X66006Y28518D01*
X66069Y28601D01*
X66109Y28697D01*
X66116Y28750D01*
D02*
G37*
G36*
X65674D02*
X65332D01*
X65339Y28697D01*
X65379Y28601D01*
X65442Y28518D01*
X65525Y28455D01*
X65621Y28415D01*
X65674Y28408D01*
Y28750D01*
D02*
G37*
G36*
X63557D02*
X63215D01*
Y28408D01*
X63268Y28415D01*
X63364Y28455D01*
X63447Y28518D01*
X63510Y28601D01*
X63550Y28697D01*
X63557Y28750D01*
D02*
G37*
G36*
X63115D02*
X62773D01*
X62780Y28697D01*
X62820Y28601D01*
X62883Y28518D01*
X62966Y28455D01*
X63062Y28415D01*
X63115Y28408D01*
Y28750D01*
D02*
G37*
G36*
X44792Y28750D02*
X44450D01*
Y28408D01*
X44503Y28415D01*
X44599Y28455D01*
X44682Y28518D01*
X44745Y28601D01*
X44785Y28697D01*
X44792Y28750D01*
D02*
G37*
G36*
X44350D02*
X44008D01*
X44015Y28697D01*
X44055Y28601D01*
X44118Y28518D01*
X44201Y28455D01*
X44297Y28415D01*
X44350Y28408D01*
Y28750D01*
D02*
G37*
G36*
X42233D02*
X41891D01*
Y28408D01*
X41944Y28415D01*
X42040Y28455D01*
X42123Y28518D01*
X42186Y28601D01*
X42226Y28697D01*
X42233Y28750D01*
D02*
G37*
G36*
X41791D02*
X41449D01*
X41456Y28697D01*
X41496Y28601D01*
X41559Y28518D01*
X41642Y28455D01*
X41738Y28415D01*
X41791Y28408D01*
Y28750D01*
D02*
G37*
G36*
X65724Y27885D02*
X65621Y27871D01*
X65525Y27831D01*
X65442Y27768D01*
X65379Y27685D01*
X65360Y27639D01*
X63530D01*
X63510Y27685D01*
X63447Y27768D01*
X63364Y27831D01*
X63268Y27871D01*
X63165Y27885D01*
X63062Y27871D01*
X62966Y27831D01*
X62883Y27768D01*
X62820Y27685D01*
X62780Y27589D01*
X62766Y27486D01*
X62780Y27383D01*
X62799Y27336D01*
X62216Y26753D01*
X61600D01*
Y26850D01*
X61100D01*
Y26684D01*
X60131D01*
X60128Y26690D01*
X60055Y26738D01*
X59969Y26755D01*
X59883Y26738D01*
X59810Y26690D01*
X59762Y26617D01*
X59745Y26531D01*
X59762Y26445D01*
X59810Y26372D01*
X59883Y26324D01*
X59969Y26307D01*
X60055Y26324D01*
X60128Y26372D01*
X60131Y26378D01*
X61100D01*
Y26350D01*
X61600D01*
Y26447D01*
X62279D01*
X62338Y26459D01*
X62387Y26492D01*
X63015Y27120D01*
X63062Y27101D01*
X63165Y27087D01*
X63268Y27101D01*
X63364Y27141D01*
X63447Y27204D01*
X63510Y27287D01*
X63530Y27333D01*
X65360D01*
X65379Y27287D01*
X65442Y27204D01*
X65525Y27141D01*
X65621Y27101D01*
X65724Y27087D01*
X65827Y27101D01*
X65923Y27141D01*
X66006Y27204D01*
X66069Y27287D01*
X66109Y27383D01*
X66123Y27486D01*
X66109Y27589D01*
X66069Y27685D01*
X66006Y27768D01*
X65923Y27831D01*
X65827Y27871D01*
X65724Y27885D01*
D02*
G37*
G36*
X55109Y27878D02*
Y27536D01*
X55451D01*
X55444Y27589D01*
X55404Y27685D01*
X55341Y27768D01*
X55258Y27831D01*
X55162Y27871D01*
X55109Y27878D01*
D02*
G37*
G36*
X52550D02*
Y27536D01*
X52892D01*
X52885Y27589D01*
X52845Y27685D01*
X52782Y27768D01*
X52699Y27831D01*
X52603Y27871D01*
X52550Y27878D01*
D02*
G37*
G36*
X55009D02*
X54956Y27871D01*
X54860Y27831D01*
X54777Y27768D01*
X54714Y27685D01*
X54674Y27589D01*
X54667Y27536D01*
X55009D01*
Y27878D01*
D02*
G37*
G36*
X52450D02*
X52397Y27871D01*
X52301Y27831D01*
X52218Y27768D01*
X52155Y27685D01*
X52115Y27589D01*
X52108Y27536D01*
X52450D01*
Y27878D01*
D02*
G37*
G36*
X55451Y27436D02*
X55109D01*
Y27094D01*
X55162Y27101D01*
X55258Y27141D01*
X55341Y27204D01*
X55404Y27286D01*
X55444Y27383D01*
X55451Y27436D01*
D02*
G37*
G36*
X52892D02*
X52550D01*
Y27094D01*
X52603Y27101D01*
X52699Y27141D01*
X52782Y27204D01*
X52845Y27286D01*
X52885Y27383D01*
X52892Y27436D01*
D02*
G37*
G36*
X55009D02*
X54667D01*
X54674Y27383D01*
X54714Y27286D01*
X54777Y27204D01*
X54860Y27141D01*
X54956Y27101D01*
X55009Y27094D01*
Y27436D01*
D02*
G37*
G36*
X52450D02*
X52108D01*
X52115Y27383D01*
X52155Y27286D01*
X52218Y27204D01*
X52301Y27141D01*
X52397Y27101D01*
X52450Y27094D01*
Y27436D01*
D02*
G37*
G36*
X44380Y27885D02*
X44276Y27871D01*
X44180Y27831D01*
X44098Y27768D01*
X44034Y27685D01*
X43994Y27589D01*
X43981Y27486D01*
X43994Y27383D01*
X44034Y27286D01*
X44098Y27204D01*
X44180Y27141D01*
X44276Y27101D01*
X44380Y27087D01*
X44483Y27101D01*
X44579Y27141D01*
X44661Y27204D01*
X44725Y27286D01*
X44765Y27383D01*
X44778Y27486D01*
X44765Y27589D01*
X44725Y27685D01*
X44661Y27768D01*
X44579Y27831D01*
X44483Y27871D01*
X44380Y27885D01*
D02*
G37*
G36*
X41820D02*
X41717Y27871D01*
X41621Y27831D01*
X41539Y27768D01*
X41475Y27685D01*
X41435Y27589D01*
X41422Y27486D01*
X41435Y27383D01*
X41475Y27286D01*
X41539Y27204D01*
X41621Y27141D01*
X41717Y27101D01*
X41820Y27087D01*
X41924Y27101D01*
X42020Y27141D01*
X42102Y27204D01*
X42166Y27286D01*
X42206Y27383D01*
X42219Y27486D01*
X42206Y27589D01*
X42166Y27685D01*
X42102Y27768D01*
X42020Y27831D01*
X41924Y27871D01*
X41820Y27885D01*
D02*
G37*
G36*
X33680D02*
X33576Y27871D01*
X33480Y27831D01*
X33398Y27768D01*
X33334Y27685D01*
X33294Y27589D01*
X33281Y27486D01*
X33294Y27383D01*
X33334Y27286D01*
X33398Y27204D01*
X33480Y27141D01*
X33576Y27101D01*
X33680Y27087D01*
X33783Y27101D01*
X33879Y27141D01*
X33961Y27204D01*
X34025Y27286D01*
X34065Y27383D01*
X34078Y27486D01*
X34065Y27589D01*
X34025Y27685D01*
X33961Y27768D01*
X33879Y27831D01*
X33783Y27871D01*
X33680Y27885D01*
D02*
G37*
G36*
X31120D02*
X31017Y27871D01*
X30921Y27831D01*
X30839Y27768D01*
X30775Y27685D01*
X30735Y27589D01*
X30722Y27486D01*
X30735Y27383D01*
X30775Y27286D01*
X30839Y27204D01*
X30921Y27141D01*
X31017Y27101D01*
X31120Y27087D01*
X31224Y27101D01*
X31320Y27141D01*
X31402Y27204D01*
X31466Y27286D01*
X31506Y27383D01*
X31519Y27486D01*
X31506Y27589D01*
X31466Y27685D01*
X31402Y27768D01*
X31320Y27831D01*
X31224Y27871D01*
X31120Y27885D01*
D02*
G37*
G36*
X65774Y26106D02*
Y25764D01*
X66116D01*
X66109Y25817D01*
X66069Y25914D01*
X66006Y25996D01*
X65923Y26059D01*
X65827Y26099D01*
X65774Y26106D01*
D02*
G37*
G36*
X65674D02*
X65621Y26099D01*
X65525Y26059D01*
X65442Y25996D01*
X65379Y25914D01*
X65339Y25817D01*
X65332Y25764D01*
X65674D01*
Y26106D01*
D02*
G37*
G36*
X63215D02*
Y25764D01*
X63557D01*
X63550Y25817D01*
X63510Y25914D01*
X63447Y25996D01*
X63364Y26059D01*
X63268Y26099D01*
X63215Y26106D01*
D02*
G37*
G36*
X63115D02*
X63062Y26099D01*
X62966Y26059D01*
X62883Y25996D01*
X62820Y25914D01*
X62780Y25817D01*
X62773Y25764D01*
X63115D01*
Y26106D01*
D02*
G37*
%LPD*%
D10*
X20498Y25941D02*
X20632D01*
X20167Y26272D02*
X20498Y25941D01*
X20167Y26272D02*
Y27708D01*
X19650Y28225D02*
X20167Y27708D01*
X19967Y25683D02*
X20300Y25350D01*
X19967Y25683D02*
Y27108D01*
X19525Y27550D02*
X19967Y27108D01*
X19625Y28225D02*
X19650D01*
X20300Y25350D02*
X20632D01*
Y25941D02*
X20673Y25982D01*
X21200D01*
X21300Y30750D02*
X25665D01*
X19800Y32250D02*
X21300Y30750D01*
X19800Y32250D02*
Y33200D01*
X25665Y30750D02*
X25750Y30665D01*
X19570Y31727D02*
X20632Y30665D01*
X19550Y31747D02*
X19570Y31727D01*
Y31680D02*
Y31727D01*
X18800Y30900D02*
Y33200D01*
Y30900D02*
X19550Y30150D01*
X20556D01*
X20632Y30074D01*
Y28303D02*
X20765D01*
X21068Y28000D01*
X24700D01*
X25150Y28450D01*
X25000Y27800D02*
X25200Y28000D01*
X20720Y27800D02*
X25000D01*
X20632Y27712D02*
X20720Y27800D01*
X21100Y25350D02*
X21150Y25400D01*
X20632Y25350D02*
X21100D01*
X63165Y27486D02*
X65724D01*
X25750Y30074D02*
X61350D01*
X29616Y29484D02*
X30500D01*
X25750Y29484D02*
X26950D01*
X26966Y29500D01*
X29600D02*
X29616Y29484D01*
X30500D02*
X50934Y29484D01*
X50950Y29500D01*
X25750Y26531D02*
X49981D01*
X59969D02*
X61281D01*
X61350Y26600D01*
X25750Y25941D02*
X30717D01*
X33864Y26159D02*
X33873Y26150D01*
X30717Y25941D02*
X30936Y26159D01*
X33873Y26150D02*
X41627D01*
X30936Y26159D02*
X33864D01*
X41636D02*
X44564D01*
X41627Y26150D02*
X41636Y26159D01*
X44573Y26150D02*
X50934D01*
X44564Y26159D02*
X44573Y26150D01*
X20632Y27122D02*
X20704Y27050D01*
X25050D01*
X20632Y28893D02*
X20739Y29000D01*
X21507D01*
X22907Y30400D02*
X24900D01*
X21507Y29000D02*
X22907Y30400D01*
X63165Y30572D02*
X65724D01*
X62677Y30084D02*
X63165Y30572D01*
X61350Y30084D02*
X62677D01*
X62279Y26600D02*
X63165Y27486D01*
X61350Y26600D02*
X62279D01*
X50934Y26150D02*
X52064D01*
X52500Y25714D01*
Y28800D02*
X55059D01*
X51800Y29500D02*
X52500Y28800D01*
X50950Y29500D02*
X51800D01*
X52500Y25714D02*
X55059D01*
D15*
X19075Y28225D02*
D03*
X19625D02*
D03*
X18975Y27550D02*
D03*
X19525D02*
D03*
D16*
X50934Y26750D02*
D03*
Y26150D02*
D03*
X61350Y27200D02*
D03*
Y26600D02*
D03*
Y29484D02*
D03*
Y30084D02*
D03*
X50950Y28900D02*
D03*
Y29500D02*
D03*
D17*
X20632Y24169D02*
D03*
Y28303D02*
D03*
Y28893D02*
D03*
Y29484D02*
D03*
Y30074D02*
D03*
Y30665D02*
D03*
Y25941D02*
D03*
Y25350D02*
D03*
Y27712D02*
D03*
Y27122D02*
D03*
Y26531D02*
D03*
X25750Y24169D02*
D03*
Y24759D02*
D03*
Y25350D02*
D03*
Y25941D02*
D03*
Y26531D02*
D03*
Y27122D02*
D03*
Y27712D02*
D03*
Y28303D02*
D03*
Y28893D02*
D03*
Y29484D02*
D03*
Y30074D02*
D03*
Y30665D02*
D03*
X20632Y24759D02*
D03*
D28*
X19650Y24667D02*
Y26724D01*
Y24667D02*
X20148Y24169D01*
X20632D01*
X21200Y28650D02*
X21950D01*
X23000Y29750D01*
X29000Y28200D02*
X39300D01*
X29000Y27700D02*
Y28200D01*
X61350Y28250D02*
Y29484D01*
Y27200D02*
Y28250D01*
X61300Y28200D02*
X61350Y28250D01*
X50900Y28200D02*
X61300D01*
X50900Y26784D02*
X50934Y26750D01*
X50900Y26784D02*
Y28200D01*
Y28850D02*
X50950Y28900D01*
X50900Y28200D02*
Y28850D01*
X29000Y28200D02*
Y29784D01*
Y27700D02*
X29050Y27650D01*
D29*
X17800Y33200D02*
D03*
X18800D02*
D03*
X19800D02*
D03*
D30*
X31170Y30572D02*
D03*
X33730D02*
D03*
X31170Y28800D02*
D03*
X33730D02*
D03*
X44400Y28800D02*
D03*
X41841D02*
D03*
X44400Y30572D02*
D03*
X41841D02*
D03*
X52500D02*
D03*
X55059D02*
D03*
X52500Y28800D02*
D03*
X55059D02*
D03*
X65724Y28800D02*
D03*
X63165D02*
D03*
X65724Y30572D02*
D03*
X63165D02*
D03*
X52500Y27486D02*
D03*
X55059D02*
D03*
X52500Y25714D02*
D03*
X55059D02*
D03*
X33680D02*
D03*
X31120D02*
D03*
X33680Y27486D02*
D03*
X31120D02*
D03*
X41820D02*
D03*
X44380D02*
D03*
X41820Y25714D02*
D03*
X44380D02*
D03*
X63165Y27486D02*
D03*
X65724D02*
D03*
X63165Y25714D02*
D03*
X65724D02*
D03*
D31*
X18289Y26323D02*
D03*
X18250Y24118D02*
D03*
D32*
X19136Y24433D02*
D03*
Y26008D02*
D03*
D33*
X17850Y29000D02*
D03*
Y28000D02*
D03*
D34*
X18000Y30266D02*
D03*
Y31250D02*
D03*
Y32234D02*
D03*
D35*
X17650Y25250D02*
D03*
X19900Y28675D02*
D03*
X21200Y29800D02*
D03*
X28350Y25550D02*
D03*
X60150Y27600D02*
D03*
X20250Y32300D02*
D03*
X36700Y25690D02*
D03*
X29250Y26250D02*
D03*
X27850D02*
D03*
X28250Y27486D02*
D03*
X19750Y29700D02*
D03*
X19650Y26724D02*
D03*
X21200Y25982D02*
D03*
X19500Y32200D02*
D03*
X19570Y31680D02*
D03*
X19850Y24050D02*
D03*
X21150Y25400D02*
D03*
X58100Y29500D02*
D03*
X62150Y25800D02*
D03*
X62100Y27712D02*
D03*
X62300Y28750D02*
D03*
X56550Y30665D02*
D03*
X59550Y29150D02*
D03*
X56700Y29300D02*
D03*
X60000Y25700D02*
D03*
X56450Y25750D02*
D03*
X58700Y27350D02*
D03*
X56400Y27400D02*
D03*
X49000Y25714D02*
D03*
X46050Y25800D02*
D03*
X49550Y30500D02*
D03*
X46350Y30665D02*
D03*
X48350Y28850D02*
D03*
X46050Y28893D02*
D03*
X49400Y27550D02*
D03*
X48150Y27250D02*
D03*
X46000Y27450D02*
D03*
X40100Y25550D02*
D03*
X38300Y25750D02*
D03*
X35100Y25650D02*
D03*
X39500Y30450D02*
D03*
X37150Y30500D02*
D03*
X35450Y30700D02*
D03*
X39200Y28800D02*
D03*
X37950Y28950D02*
D03*
X36450Y28800D02*
D03*
X35300Y29000D02*
D03*
X39700Y26900D02*
D03*
X37250Y27150D02*
D03*
X38150Y27000D02*
D03*
X35450Y27100D02*
D03*
X29900Y25500D02*
D03*
X27000Y25550D02*
D03*
X28700Y30769D02*
D03*
X27000Y30800D02*
D03*
X24450Y28750D02*
D03*
X23350Y28850D02*
D03*
X22700D02*
D03*
X21200Y26650D02*
D03*
X25156Y25600D02*
D03*
Y26159D02*
D03*
X25000Y26600D02*
D03*
X25215Y24550D02*
D03*
X24300Y24350D02*
D03*
X23250Y24250D02*
D03*
X22300Y23950D02*
D03*
X17600Y24350D02*
D03*
Y25800D02*
D03*
X18600Y27050D02*
D03*
X17900Y27100D02*
D03*
X18700Y28600D02*
D03*
X18400Y31850D02*
D03*
X20050Y30800D02*
D03*
X19100Y31700D02*
D03*
X26900Y27500D02*
D03*
X27150Y28300D02*
D03*
X26966Y29500D02*
D03*
X29600D02*
D03*
X59969Y26531D02*
D03*
X49981D02*
D03*
X25050Y27050D02*
D03*
X25200Y28000D02*
D03*
X24900Y30400D02*
D03*
X25150Y28450D02*
D03*
X21200Y28650D02*
D03*
X23000Y29750D02*
D03*
X50900Y28200D02*
D03*
X39400Y28150D02*
D03*
X29000Y29784D02*
D03*
X29050Y27650D02*
D03*
M02*
