G04*
G04 #@! TF.GenerationSoftware,Altium Limited,Altium Designer,18.1.9 (240)*
G04*
G04 Layer_Color=8388736*
%FSLAX24Y24*%
%MOIN*%
G70*
G01*
G75*
%ADD18R,0.0380X0.0380*%
%ADD19R,0.0380X0.0380*%
%ADD20R,0.0710X0.0474*%
%ADD21O,0.0671X0.0867*%
%ADD22C,0.0671*%
G04:AMPARAMS|DCode=23|XSize=92.6mil|YSize=39.5mil|CornerRadius=11.9mil|HoleSize=0mil|Usage=FLASHONLY|Rotation=0.000|XOffset=0mil|YOffset=0mil|HoleType=Round|Shape=RoundedRectangle|*
%AMROUNDEDRECTD23*
21,1,0.0926,0.0157,0,0,0.0*
21,1,0.0689,0.0395,0,0,0.0*
1,1,0.0237,0.0344,-0.0079*
1,1,0.0237,-0.0344,-0.0079*
1,1,0.0237,-0.0344,0.0079*
1,1,0.0237,0.0344,0.0079*
%
%ADD23ROUNDEDRECTD23*%
%ADD24C,0.0277*%
%ADD25O,0.0867X0.0671*%
%ADD26C,0.0474*%
%ADD27C,0.0320*%
D18*
X19075Y28225D02*
D03*
X19625D02*
D03*
X18975Y27550D02*
D03*
X19525D02*
D03*
D19*
X50934Y26750D02*
D03*
Y26150D02*
D03*
X61350Y27200D02*
D03*
Y26600D02*
D03*
Y29484D02*
D03*
Y30084D02*
D03*
X50950Y28900D02*
D03*
Y29500D02*
D03*
D20*
X20632Y24169D02*
D03*
Y28303D02*
D03*
Y28893D02*
D03*
Y29484D02*
D03*
Y30074D02*
D03*
Y30665D02*
D03*
Y25941D02*
D03*
Y25350D02*
D03*
Y27712D02*
D03*
Y27122D02*
D03*
Y26531D02*
D03*
X25750Y24169D02*
D03*
Y24759D02*
D03*
Y25350D02*
D03*
Y25941D02*
D03*
Y26531D02*
D03*
Y27122D02*
D03*
Y27712D02*
D03*
Y28303D02*
D03*
Y28893D02*
D03*
Y29484D02*
D03*
Y30074D02*
D03*
Y30665D02*
D03*
X20632Y24759D02*
D03*
D21*
X17800Y33200D02*
D03*
X18800D02*
D03*
X19800D02*
D03*
D22*
X31170Y30572D02*
D03*
X33730D02*
D03*
X31170Y28800D02*
D03*
X33730D02*
D03*
X44400Y28800D02*
D03*
X41841D02*
D03*
X44400Y30572D02*
D03*
X41841D02*
D03*
X52500D02*
D03*
X55059D02*
D03*
X52500Y28800D02*
D03*
X55059D02*
D03*
X65724Y28800D02*
D03*
X63165D02*
D03*
X65724Y30572D02*
D03*
X63165D02*
D03*
X52500Y27486D02*
D03*
X55059D02*
D03*
X52500Y25714D02*
D03*
X55059D02*
D03*
X33680D02*
D03*
X31120D02*
D03*
X33680Y27486D02*
D03*
X31120D02*
D03*
X41820D02*
D03*
X44380D02*
D03*
X41820Y25714D02*
D03*
X44380D02*
D03*
X63165Y27486D02*
D03*
X65724D02*
D03*
X63165Y25714D02*
D03*
X65724D02*
D03*
D23*
X18289Y26323D02*
D03*
X18250Y24118D02*
D03*
D24*
X19136Y24433D02*
D03*
Y26008D02*
D03*
D25*
X17850Y29000D02*
D03*
Y28000D02*
D03*
D26*
X18000Y30266D02*
D03*
Y31250D02*
D03*
Y32234D02*
D03*
D27*
X19570Y31680D02*
D03*
M02*
