G04*
G04 #@! TF.GenerationSoftware,Altium Limited,Altium Designer,18.1.9 (240)*
G04*
G04 Layer_Color=65535*
%FSLAX24Y24*%
%MOIN*%
G70*
G01*
G75*
%ADD10C,0.0080*%
%ADD11C,0.0050*%
%ADD12C,0.0100*%
%ADD13C,0.0060*%
%ADD14C,0.0039*%
D10*
X1569Y4884D02*
X1660Y4975D01*
X2639Y4565D02*
Y4985D01*
X1669D02*
X2639D01*
X1669Y4565D02*
Y4975D01*
Y4565D02*
X2639D01*
X1569Y4656D02*
X1669Y4565D01*
X1569Y4656D02*
Y4884D01*
X1469Y4209D02*
X1560Y4300D01*
X2539Y3890D02*
Y4310D01*
X1569D02*
X2539D01*
X1569Y3890D02*
Y4300D01*
Y3890D02*
X2539D01*
X1469Y3981D02*
X1569Y3890D01*
X1469Y3981D02*
Y4209D01*
D11*
X1450Y4955D02*
X1530D01*
X1490Y4905D02*
Y5005D01*
X1350Y4280D02*
X1430D01*
X1390Y4230D02*
Y4330D01*
D12*
X358Y4093D02*
X875D01*
X178Y6022D02*
X1134D01*
X178Y4093D02*
Y6022D01*
X1134Y4093D02*
Y6022D01*
X178Y4093D02*
X358D01*
X875D02*
X1134D01*
X131Y9139D02*
X1548D01*
X131Y6225D02*
Y9139D01*
X1548Y6225D02*
Y9139D01*
X131Y6225D02*
X1548D01*
X12293Y3874D02*
Y4274D01*
X10293Y3074D02*
X11493D01*
X9543Y3924D02*
Y4274D01*
X10343Y5124D02*
X11493D01*
X35915Y3874D02*
Y4274D01*
X33915Y3074D02*
X35115D01*
X33165Y3924D02*
Y4274D01*
X33965Y5124D02*
X35115D01*
X54812Y5056D02*
Y5456D01*
X52812Y4256D02*
X54012D01*
X52062Y5106D02*
Y5456D01*
X52862Y6306D02*
X54012D01*
X43001Y5056D02*
Y5456D01*
X41001Y4256D02*
X42201D01*
X40251Y5106D02*
Y5456D01*
X41051Y6306D02*
X42201D01*
X47726Y3874D02*
Y4274D01*
X45726Y3074D02*
X46926D01*
X44976Y3924D02*
Y4274D01*
X45776Y5124D02*
X46926D01*
X19379Y5056D02*
Y5456D01*
X17379Y4256D02*
X18579D01*
X16629Y5106D02*
Y5456D01*
X17429Y6306D02*
X18579D01*
X31190Y5056D02*
Y5456D01*
X29190Y4256D02*
X30390D01*
X28440Y5106D02*
Y5456D01*
X29240Y6306D02*
X30390D01*
X24104Y3874D02*
Y4274D01*
X22104Y3074D02*
X23304D01*
X21354Y3924D02*
Y4274D01*
X22154Y5124D02*
X23304D01*
D13*
X3431Y227D02*
Y10069D01*
X8551Y227D02*
Y10069D01*
X3432Y10069D02*
X8550D01*
X3432Y227D02*
X8550D01*
X7898Y7843D02*
Y9503D01*
X7888Y9513D02*
X7898Y9503D01*
X7118Y9513D02*
X7888D01*
X7118Y8733D02*
Y9513D01*
X6318Y8733D02*
X7118D01*
X6318D02*
Y9503D01*
X5538D02*
X6318D01*
X5538Y8733D02*
Y9503D01*
X4748Y8733D02*
X5538D01*
X4748D02*
Y9513D01*
X3958D02*
X4748D01*
D14*
X900Y4522D02*
Y4325D01*
X998D01*
X1031Y4358D01*
Y4489D01*
X998Y4522D01*
X900D01*
X1195Y4325D02*
Y4522D01*
X1097Y4423D01*
X1228D01*
X983Y3753D02*
X1049D01*
X1016D01*
Y3917D01*
X1049Y3950D01*
X1081D01*
X1114Y3917D01*
X786Y3950D02*
X917D01*
X786Y3819D01*
Y3786D01*
X819Y3753D01*
X885D01*
X917Y3786D01*
X120Y9623D02*
Y9426D01*
Y9491D01*
X251Y9623D01*
X153Y9524D01*
X251Y9426D01*
X317D02*
X382D01*
X350D01*
Y9623D01*
X317Y9590D01*
X1331Y8223D02*
Y8158D01*
Y8190D01*
X1135D01*
Y8223D01*
Y8158D01*
X3000Y10050D02*
Y10247D01*
X3066Y10181D01*
X3131Y10247D01*
Y10050D01*
X3197D02*
X3262D01*
X3230D01*
Y10247D01*
X3197Y10214D01*
X12881Y3364D02*
X12848Y3397D01*
X12783D01*
X12750Y3364D01*
Y3331D01*
X12783Y3298D01*
X12848D01*
X12881Y3266D01*
Y3233D01*
X12848Y3200D01*
X12783D01*
X12750Y3233D01*
X13078Y3200D02*
X12947D01*
X13078Y3331D01*
Y3364D01*
X13045Y3397D01*
X12980D01*
X12947Y3364D01*
X51181Y5064D02*
X51148Y5097D01*
X51083D01*
X51050Y5064D01*
Y5031D01*
X51083Y4998D01*
X51148D01*
X51181Y4966D01*
Y4933D01*
X51148Y4900D01*
X51083D01*
X51050Y4933D01*
X51247Y5097D02*
X51378D01*
Y5064D01*
X51247Y4933D01*
Y4900D01*
X33131Y5624D02*
X33098Y5657D01*
X33033D01*
X33000Y5624D01*
Y5591D01*
X33033Y5558D01*
X33098D01*
X33131Y5526D01*
Y5493D01*
X33098Y5460D01*
X33033D01*
X33000Y5493D01*
X33197Y5624D02*
X33230Y5657D01*
X33295D01*
X33328Y5624D01*
Y5591D01*
X33295Y5558D01*
X33328Y5526D01*
Y5493D01*
X33295Y5460D01*
X33230D01*
X33197Y5493D01*
Y5526D01*
X33230Y5558D01*
X33197Y5591D01*
Y5624D01*
X33230Y5558D02*
X33295D01*
X39281Y5914D02*
X39248Y5947D01*
X39183D01*
X39150Y5914D01*
Y5881D01*
X39183Y5848D01*
X39248D01*
X39281Y5816D01*
Y5783D01*
X39248Y5750D01*
X39183D01*
X39150Y5783D01*
X39478Y5947D02*
X39412Y5914D01*
X39347Y5848D01*
Y5783D01*
X39380Y5750D01*
X39445D01*
X39478Y5783D01*
Y5816D01*
X39445Y5848D01*
X39347D01*
X46481Y5814D02*
X46448Y5847D01*
X46383D01*
X46350Y5814D01*
Y5781D01*
X46383Y5748D01*
X46448D01*
X46481Y5716D01*
Y5683D01*
X46448Y5650D01*
X46383D01*
X46350Y5683D01*
X46678Y5847D02*
X46547D01*
Y5748D01*
X46612Y5781D01*
X46645D01*
X46678Y5748D01*
Y5683D01*
X46645Y5650D01*
X46580D01*
X46547Y5683D01*
X16601Y6804D02*
X16568Y6837D01*
X16503D01*
X16470Y6804D01*
Y6771D01*
X16503Y6738D01*
X16568D01*
X16601Y6706D01*
Y6673D01*
X16568Y6640D01*
X16503D01*
X16470Y6673D01*
X16765Y6640D02*
Y6837D01*
X16667Y6738D01*
X16798D01*
X28411Y6804D02*
X28378Y6837D01*
X28313D01*
X28280Y6804D01*
Y6771D01*
X28313Y6738D01*
X28378D01*
X28411Y6706D01*
Y6673D01*
X28378Y6640D01*
X28313D01*
X28280Y6673D01*
X28477Y6804D02*
X28510Y6837D01*
X28575D01*
X28608Y6804D01*
Y6771D01*
X28575Y6738D01*
X28542D01*
X28575D01*
X28608Y6706D01*
Y6673D01*
X28575Y6640D01*
X28510D01*
X28477Y6673D01*
X22581Y5964D02*
X22548Y5997D01*
X22483D01*
X22450Y5964D01*
Y5931D01*
X22483Y5898D01*
X22548D01*
X22581Y5866D01*
Y5833D01*
X22548Y5800D01*
X22483D01*
X22450Y5833D01*
X22647Y5800D02*
X22712D01*
X22680D01*
Y5997D01*
X22647Y5964D01*
X800Y4147D02*
Y3950D01*
X898D01*
X931Y3983D01*
Y4114D01*
X898Y4147D01*
X800D01*
X997Y4114D02*
X1030Y4147D01*
X1095D01*
X1128Y4114D01*
Y4081D01*
X1095Y4048D01*
X1062D01*
X1095D01*
X1128Y4016D01*
Y3983D01*
X1095Y3950D01*
X1030D01*
X997Y3983D01*
M02*
