G04*
G04 #@! TF.GenerationSoftware,Altium Limited,Altium Designer,18.1.9 (240)*
G04*
G04 Layer_Color=32896*
%FSLAX24Y24*%
%MOIN*%
G70*
G01*
G75*
%ADD10C,0.0080*%
%ADD11C,0.0050*%
%ADD12C,0.0100*%
%ADD13C,0.0060*%
%ADD14C,0.0039*%
%ADD48C,0.0098*%
%ADD49C,0.0060*%
%ADD50C,0.0079*%
D10*
X5052Y5476D02*
X6454D01*
Y8035D01*
X5052Y5476D02*
Y8035D01*
X6454D01*
D11*
X1950Y6550D02*
X2050Y6650D01*
Y6950D01*
X1550Y6650D02*
Y6950D01*
Y6650D02*
X1650Y6550D01*
X1950D01*
Y7650D02*
X2050Y7550D01*
Y7250D02*
Y7550D01*
X1550Y7250D02*
Y7550D01*
X1650Y7650D01*
X1950D01*
X2150Y7550D02*
X2250Y7650D01*
X2150Y7250D02*
Y7550D01*
X2650Y7250D02*
Y7550D01*
X2550Y7650D02*
X2650Y7550D01*
X2250Y7650D02*
X2550D01*
X2150Y6650D02*
X2250Y6550D01*
X2150Y6650D02*
Y6950D01*
X2650Y6650D02*
Y6950D01*
X2550Y6550D02*
X2650Y6650D01*
X2250Y6550D02*
X2550D01*
X7900Y5450D02*
X8000Y5550D01*
Y5850D01*
X7500Y5550D02*
Y5850D01*
Y5550D02*
X7600Y5450D01*
X7900D01*
Y6550D02*
X8000Y6450D01*
Y6150D02*
Y6450D01*
X7500Y6150D02*
Y6450D01*
X7600Y6550D01*
X7900D01*
X5400Y3950D02*
X5500Y3850D01*
X5800D01*
X5500Y4350D02*
X5800D01*
X5400Y4250D02*
X5500Y4350D01*
X5400Y3950D02*
Y4250D01*
X6400Y3850D02*
X6500Y3950D01*
X6100Y3850D02*
X6400D01*
X6100Y4350D02*
X6400D01*
X6500Y4250D01*
Y3950D02*
Y4250D01*
X4050Y4700D02*
X4150Y4600D01*
X4450D01*
X4150Y5100D02*
X4450D01*
X4050Y5000D02*
X4150Y5100D01*
X4050Y4700D02*
Y5000D01*
X5050Y4600D02*
X5150Y4700D01*
X4750Y4600D02*
X5050D01*
X4750Y5100D02*
X5050D01*
X5150Y5000D01*
Y4700D02*
Y5000D01*
X5050Y4350D02*
X5150Y4250D01*
X4750Y4350D02*
X5050D01*
X4750Y3850D02*
X5050D01*
X5150Y3950D01*
Y4250D01*
X4050D02*
X4150Y4350D01*
X4450D01*
X4150Y3850D02*
X4450D01*
X4050Y3950D02*
X4150Y3850D01*
X4050Y3950D02*
Y4250D01*
X7650Y4350D02*
X7750Y4250D01*
X7350Y4350D02*
X7650D01*
X7350Y3850D02*
X7650D01*
X7750Y3950D01*
Y4250D01*
X6650D02*
X6750Y4350D01*
X7050D01*
X6750Y3850D02*
X7050D01*
X6650Y3950D02*
X6750Y3850D01*
X6650Y3950D02*
Y4250D01*
D12*
X3120Y9266D02*
Y10301D01*
X128Y9266D02*
Y10301D01*
X3120D01*
X128Y9266D02*
X3120D01*
D13*
X6500Y4600D02*
Y5100D01*
X6000Y4600D02*
X6500D01*
X6400D02*
Y5100D01*
X5350D02*
X5750D01*
X5350Y4600D02*
X5750D01*
X6000Y5100D02*
X6500D01*
X5350Y4600D02*
Y5100D01*
X240Y294D02*
X2307D01*
X240Y3247D02*
X2307D01*
X7700Y4600D02*
Y5100D01*
X6600Y4600D02*
Y5100D01*
X7300Y4600D02*
X7700D01*
X7300Y5100D02*
X7700D01*
X6600D02*
X7000D01*
X6600Y4600D02*
X7000D01*
X5220Y1400D02*
Y1900D01*
X4120Y1400D02*
Y1900D01*
X4820Y1400D02*
X5220D01*
X4820Y1900D02*
X5220D01*
X4120D02*
X4520D01*
X4120Y1400D02*
X4520D01*
X5450Y1450D02*
Y1950D01*
X6550Y1450D02*
Y1950D01*
X5450D02*
X5850D01*
X5450Y1450D02*
X5850D01*
X6150D02*
X6550D01*
X6150Y1950D02*
X6550D01*
X6850Y1996D02*
X7350D01*
X6850Y3096D02*
X7350D01*
X6850Y1996D02*
Y2396D01*
X7350Y1996D02*
Y2396D01*
Y2696D02*
Y3096D01*
X6850Y2696D02*
Y3096D01*
X31400Y3950D02*
X31900D01*
X31400Y2850D02*
X31900D01*
Y3550D02*
Y3950D01*
X31400Y3550D02*
Y3950D01*
Y2850D02*
Y3250D01*
X31900Y2850D02*
Y3250D01*
X51500Y3950D02*
X52000D01*
X51500Y2850D02*
X52000D01*
Y3550D02*
Y3950D01*
X51500Y3550D02*
Y3950D01*
Y2850D02*
Y3250D01*
X52000Y2850D02*
Y3250D01*
X39550Y3950D02*
X40050D01*
X39550Y2850D02*
X40050D01*
Y3550D02*
Y3950D01*
X39550Y3550D02*
Y3950D01*
Y2850D02*
Y3250D01*
X40050Y2850D02*
Y3250D01*
X43650Y4050D02*
X44150D01*
X43650Y2950D02*
X44150D01*
Y3650D02*
Y4050D01*
X43650Y3650D02*
Y4050D01*
Y2950D02*
Y3350D01*
X44150Y2950D02*
Y3350D01*
X15250Y4550D02*
X15750D01*
X15250Y3450D02*
X15750D01*
Y4150D02*
Y4550D01*
X15250Y4150D02*
Y4550D01*
Y3450D02*
Y3850D01*
X15750Y3450D02*
Y3850D01*
X27600D02*
X28100D01*
X27600Y2750D02*
X28100D01*
Y3450D02*
Y3850D01*
X27600Y3450D02*
Y3850D01*
Y2750D02*
Y3150D01*
X28100Y2750D02*
Y3150D01*
X9550Y5450D02*
Y5950D01*
X10650Y5450D02*
Y5950D01*
X9550D02*
X9950D01*
X9550Y5450D02*
X9950D01*
X10250D02*
X10650D01*
X10250Y5950D02*
X10650D01*
X18900Y3400D02*
Y3900D01*
X17800Y3400D02*
Y3900D01*
X18500Y3400D02*
X18900D01*
X18500Y3900D02*
X18900D01*
X17800D02*
X18200D01*
X17800Y3400D02*
X18200D01*
X4300Y3450D02*
X4800D01*
Y2950D02*
Y3450D01*
X4300Y3350D02*
X4800D01*
X4300Y2300D02*
Y2700D01*
X4800Y2300D02*
Y2700D01*
X4300Y2950D02*
Y3450D01*
Y2300D02*
X4800D01*
X6750Y1350D02*
Y1850D01*
X7250D01*
X6850Y1350D02*
Y1850D01*
X7500Y1350D02*
X7900D01*
X7500Y1850D02*
X7900D01*
X6750Y1350D02*
X7250D01*
X7900D02*
Y1850D01*
D14*
X1819Y8064D02*
X1852Y8097D01*
X1917D01*
X1950Y8064D01*
Y7933D01*
X1917Y7900D01*
X1852D01*
X1819Y7933D01*
X1753Y8097D02*
X1622D01*
Y8064D01*
X1753Y7933D01*
Y7900D01*
X6800Y5347D02*
Y5150D01*
X6702D01*
X6669Y5183D01*
Y5314D01*
X6702Y5347D01*
X6800D01*
X6472D02*
X6603D01*
Y5248D01*
X6538Y5281D01*
X6505D01*
X6472Y5248D01*
Y5183D01*
X6505Y5150D01*
X6570D01*
X6603Y5183D01*
X453Y10669D02*
Y10734D01*
Y10702D01*
X617D01*
X650Y10734D01*
Y10767D01*
X617Y10800D01*
X650Y10603D02*
Y10538D01*
Y10570D01*
X453D01*
X486Y10603D01*
X2719Y447D02*
X2784D01*
X2752D01*
Y283D01*
X2784Y250D01*
X2817D01*
X2850Y283D01*
X2653Y414D02*
X2620Y447D01*
X2555D01*
X2522Y414D01*
Y381D01*
X2555Y348D01*
X2588D01*
X2555D01*
X2522Y316D01*
Y283D01*
X2555Y250D01*
X2620D01*
X2653Y283D01*
X2439Y584D02*
Y689D01*
X2491Y636D02*
X2386D01*
X7907Y5197D02*
Y5394D01*
X7809D01*
X7776Y5361D01*
Y5295D01*
X7809Y5262D01*
X7907D01*
X7842D02*
X7776Y5197D01*
X7710D02*
X7645D01*
X7678D01*
Y5394D01*
X7710Y5361D01*
X7415Y5197D02*
X7546D01*
X7415Y5328D01*
Y5361D01*
X7448Y5394D01*
X7514D01*
X7546Y5361D01*
X7000Y2997D02*
Y2833D01*
X6967Y2800D01*
X6902D01*
X6869Y2833D01*
Y2997D01*
X6803Y2800D02*
X6738D01*
X6770D01*
Y2997D01*
X6803Y2964D01*
X4809Y5802D02*
Y5638D01*
X4776Y5606D01*
X4710D01*
X4677Y5638D01*
Y5802D01*
X4481Y5606D02*
X4612D01*
X4481Y5737D01*
Y5770D01*
X4513Y5802D01*
X4579D01*
X4612Y5770D01*
X18890Y4170D02*
Y4367D01*
X18792D01*
X18759Y4334D01*
Y4268D01*
X18792Y4236D01*
X18890D01*
X18824D02*
X18759Y4170D01*
X18693D02*
X18628D01*
X18660D01*
Y4367D01*
X18693Y4334D01*
X52800Y3501D02*
Y3698D01*
X52702D01*
X52669Y3665D01*
Y3600D01*
X52702Y3567D01*
X52800D01*
X52734D02*
X52669Y3501D01*
X52603Y3698D02*
X52472D01*
Y3665D01*
X52603Y3534D01*
Y3501D01*
X15740Y4820D02*
Y5017D01*
X15642D01*
X15609Y4984D01*
Y4918D01*
X15642Y4886D01*
X15740D01*
X15674D02*
X15609Y4820D01*
X15445D02*
Y5017D01*
X15543Y4918D01*
X15412D01*
X31890Y4220D02*
Y4417D01*
X31792D01*
X31759Y4384D01*
Y4318D01*
X31792Y4286D01*
X31890D01*
X31824D02*
X31759Y4220D01*
X31693Y4384D02*
X31660Y4417D01*
X31595D01*
X31562Y4384D01*
Y4351D01*
X31595Y4318D01*
X31562Y4286D01*
Y4253D01*
X31595Y4220D01*
X31660D01*
X31693Y4253D01*
Y4286D01*
X31660Y4318D01*
X31693Y4351D01*
Y4384D01*
X31660Y4318D02*
X31595D01*
X44140Y4320D02*
Y4517D01*
X44042D01*
X44009Y4484D01*
Y4418D01*
X44042Y4386D01*
X44140D01*
X44074D02*
X44009Y4320D01*
X43812Y4517D02*
X43943D01*
Y4418D01*
X43878Y4451D01*
X43845D01*
X43812Y4418D01*
Y4353D01*
X43845Y4320D01*
X43910D01*
X43943Y4353D01*
X40040Y4220D02*
Y4417D01*
X39942D01*
X39909Y4384D01*
Y4318D01*
X39942Y4286D01*
X40040D01*
X39974D02*
X39909Y4220D01*
X39712Y4417D02*
X39778Y4384D01*
X39843Y4318D01*
Y4253D01*
X39810Y4220D01*
X39745D01*
X39712Y4253D01*
Y4286D01*
X39745Y4318D01*
X39843D01*
X5220Y2000D02*
Y2197D01*
X5122D01*
X5089Y2164D01*
Y2098D01*
X5122Y2066D01*
X5220D01*
X5154D02*
X5089Y2000D01*
X5023D02*
X4958D01*
X4990D01*
Y2197D01*
X5023Y2164D01*
X4859Y2000D02*
X4794D01*
X4826D01*
Y2197D01*
X4859Y2164D01*
X6700Y2086D02*
Y2283D01*
X6602D01*
X6569Y2250D01*
Y2184D01*
X6602Y2151D01*
X6700D01*
X6634D02*
X6569Y2086D01*
X6503D02*
X6438D01*
X6470D01*
Y2283D01*
X6503Y2250D01*
X6339D02*
X6306Y2283D01*
X6241D01*
X6208Y2250D01*
Y2119D01*
X6241Y2086D01*
X6306D01*
X6339Y2119D01*
Y2250D01*
X7340Y3370D02*
Y3567D01*
X7242D01*
X7209Y3534D01*
Y3468D01*
X7242Y3436D01*
X7340D01*
X7274D02*
X7209Y3370D01*
X7143Y3403D02*
X7110Y3370D01*
X7045D01*
X7012Y3403D01*
Y3534D01*
X7045Y3567D01*
X7110D01*
X7143Y3534D01*
Y3501D01*
X7110Y3468D01*
X7012D01*
X28090Y4115D02*
Y4312D01*
X27992D01*
X27959Y4279D01*
Y4214D01*
X27992Y4181D01*
X28090D01*
X28024D02*
X27959Y4115D01*
X27893Y4279D02*
X27860Y4312D01*
X27795D01*
X27762Y4279D01*
Y4246D01*
X27795Y4214D01*
X27828D01*
X27795D01*
X27762Y4181D01*
Y4148D01*
X27795Y4115D01*
X27860D01*
X27893Y4148D01*
X10640Y6220D02*
Y6417D01*
X10542D01*
X10509Y6384D01*
Y6318D01*
X10542Y6286D01*
X10640D01*
X10574D02*
X10509Y6220D01*
X10312D02*
X10443D01*
X10312Y6351D01*
Y6384D01*
X10345Y6417D01*
X10410D01*
X10443Y6384D01*
X4790Y3917D02*
Y3720D01*
X4692D01*
X4659Y3753D01*
Y3884D01*
X4692Y3917D01*
X4790D01*
X4462Y3720D02*
X4593D01*
X4462Y3851D01*
Y3884D01*
X4495Y3917D01*
X4560D01*
X4593Y3884D01*
X7890Y2317D02*
Y2120D01*
X7792D01*
X7759Y2153D01*
Y2284D01*
X7792Y2317D01*
X7890D01*
X7693Y2120D02*
X7628D01*
X7660D01*
Y2317D01*
X7693Y2284D01*
X2759Y8014D02*
X2792Y8047D01*
X2857D01*
X2890Y8014D01*
Y7883D01*
X2857Y7850D01*
X2792D01*
X2759Y7883D01*
X2562Y8047D02*
X2628Y8014D01*
X2693Y7948D01*
Y7883D01*
X2660Y7850D01*
X2595D01*
X2562Y7883D01*
Y7916D01*
X2595Y7948D01*
X2693D01*
X7219Y6214D02*
X7252Y6247D01*
X7317D01*
X7350Y6214D01*
Y6083D01*
X7317Y6050D01*
X7252D01*
X7219Y6083D01*
X7022Y6247D02*
X7153D01*
Y6148D01*
X7088Y6181D01*
X7055D01*
X7022Y6148D01*
Y6083D01*
X7055Y6050D01*
X7120D01*
X7153Y6083D01*
X6619Y4514D02*
X6652Y4547D01*
X6717D01*
X6750Y4514D01*
Y4383D01*
X6717Y4350D01*
X6652D01*
X6619Y4383D01*
X6455Y4350D02*
Y4547D01*
X6553Y4448D01*
X6422D01*
X4419Y5364D02*
X4452Y5397D01*
X4517D01*
X4550Y5364D01*
Y5233D01*
X4517Y5200D01*
X4452D01*
X4419Y5233D01*
X4353Y5364D02*
X4320Y5397D01*
X4255D01*
X4222Y5364D01*
Y5331D01*
X4255Y5298D01*
X4288D01*
X4255D01*
X4222Y5266D01*
Y5233D01*
X4255Y5200D01*
X4320D01*
X4353Y5233D01*
X4319Y3764D02*
X4352Y3797D01*
X4417D01*
X4450Y3764D01*
Y3633D01*
X4417Y3600D01*
X4352D01*
X4319Y3633D01*
X4122Y3600D02*
X4253D01*
X4122Y3731D01*
Y3764D01*
X4155Y3797D01*
X4220D01*
X4253Y3764D01*
X8019Y4164D02*
X8052Y4197D01*
X8117D01*
X8150Y4164D01*
Y4033D01*
X8117Y4000D01*
X8052D01*
X8019Y4033D01*
X7953Y4000D02*
X7888D01*
X7920D01*
Y4197D01*
X7953Y4164D01*
D48*
X5388Y2191D02*
G03*
X5388Y2191I-49J0D01*
G01*
D49*
X240Y294D02*
Y3247D01*
X2307Y294D02*
Y1084D01*
Y2447D02*
Y3247D01*
D50*
X5703Y2290D02*
X6097D01*
X5703Y3510D02*
X6097D01*
X5703Y2290D02*
Y3510D01*
X6097Y2290D02*
Y3510D01*
M02*
