G04*
G04 #@! TF.GenerationSoftware,Altium Limited,Altium Designer,18.1.9 (240)*
G04*
G04 Layer_Color=8421504*
%FSLAX24Y24*%
%MOIN*%
G70*
G01*
G75*
%ADD15R,0.0300X0.0300*%
%ADD16R,0.0630X0.0394*%
%ADD17R,0.0551X0.0551*%
D15*
X1875Y4775D02*
D03*
X2425D02*
D03*
X1775Y4100D02*
D03*
X2325D02*
D03*
D16*
X3432Y1309D02*
D03*
X8550Y7215D02*
D03*
Y6624D02*
D03*
Y6034D02*
D03*
Y5443D02*
D03*
Y4853D02*
D03*
Y4262D02*
D03*
Y3672D02*
D03*
Y3081D02*
D03*
Y2491D02*
D03*
Y1900D02*
D03*
Y1309D02*
D03*
Y719D02*
D03*
X3432Y3081D02*
D03*
Y3672D02*
D03*
Y4262D02*
D03*
Y1900D02*
D03*
Y2491D02*
D03*
Y7215D02*
D03*
Y6624D02*
D03*
Y6034D02*
D03*
Y5443D02*
D03*
Y4853D02*
D03*
Y719D02*
D03*
D17*
X11968Y4724D02*
D03*
Y3445D02*
D03*
X9843Y4724D02*
D03*
Y3445D02*
D03*
X35591Y4724D02*
D03*
Y3445D02*
D03*
X33465Y4724D02*
D03*
Y3445D02*
D03*
X54488Y5906D02*
D03*
Y4626D02*
D03*
X52362Y5906D02*
D03*
Y4626D02*
D03*
X42677Y5906D02*
D03*
Y4626D02*
D03*
X40551Y5906D02*
D03*
Y4626D02*
D03*
X47402Y4724D02*
D03*
Y3445D02*
D03*
X45276Y4724D02*
D03*
Y3445D02*
D03*
X19055Y5906D02*
D03*
Y4626D02*
D03*
X16929Y5906D02*
D03*
Y4626D02*
D03*
X30866Y5906D02*
D03*
Y4626D02*
D03*
X28740Y5906D02*
D03*
Y4626D02*
D03*
X23780Y4724D02*
D03*
Y3445D02*
D03*
X21654Y4724D02*
D03*
Y3445D02*
D03*
M02*
