G04*
G04 #@! TF.GenerationSoftware,Altium Limited,Altium Designer,18.1.9 (240)*
G04*
G04 Layer_Color=16711935*
%FSLAX24Y24*%
%MOIN*%
G70*
G01*
G75*
%ADD18R,0.0380X0.0380*%
%ADD21O,0.0671X0.0867*%
%ADD22C,0.0277*%
G04:AMPARAMS|DCode=23|XSize=92.6mil|YSize=39.5mil|CornerRadius=11.9mil|HoleSize=0mil|Usage=FLASHONLY|Rotation=0.000|XOffset=0mil|YOffset=0mil|HoleType=Round|Shape=RoundedRectangle|*
%AMROUNDEDRECTD23*
21,1,0.0926,0.0157,0,0,0.0*
21,1,0.0689,0.0395,0,0,0.0*
1,1,0.0237,0.0344,-0.0079*
1,1,0.0237,-0.0344,-0.0079*
1,1,0.0237,-0.0344,0.0079*
1,1,0.0237,0.0344,0.0079*
%
%ADD23ROUNDEDRECTD23*%
%ADD24O,0.0867X0.0671*%
%ADD25C,0.0474*%
%ADD41R,0.0380X0.0380*%
%ADD42R,0.0907X0.0237*%
%ADD43R,0.0828X0.0789*%
%ADD44R,0.0474X0.0552*%
%ADD45R,0.0493X0.0316*%
%ADD46R,0.1064X0.0552*%
%ADD47R,0.0867X0.1458*%
D18*
X5600Y4850D02*
D03*
X6200D02*
D03*
X7450D02*
D03*
X6850D02*
D03*
X4970Y1650D02*
D03*
X4370D02*
D03*
X5700Y1700D02*
D03*
X6300D02*
D03*
X9800Y5700D02*
D03*
X10400D02*
D03*
X18650Y3650D02*
D03*
X18050D02*
D03*
X7650Y1600D02*
D03*
X7050D02*
D03*
X5650Y4100D02*
D03*
X6250D02*
D03*
X4300Y4850D02*
D03*
X4900D02*
D03*
Y4100D02*
D03*
X4300D02*
D03*
X7500D02*
D03*
X6900D02*
D03*
D21*
X2600Y9750D02*
D03*
X1600D02*
D03*
X600D02*
D03*
D22*
X1936Y2558D02*
D03*
Y983D02*
D03*
D23*
X1050Y668D02*
D03*
X1089Y2873D02*
D03*
D24*
X650Y4550D02*
D03*
Y5550D02*
D03*
D25*
X800Y8784D02*
D03*
Y7800D02*
D03*
Y6816D02*
D03*
D41*
X1800Y6800D02*
D03*
Y7400D02*
D03*
X7100Y2246D02*
D03*
Y2846D02*
D03*
X31650Y3700D02*
D03*
Y3100D02*
D03*
X51750Y3700D02*
D03*
Y3100D02*
D03*
X39800Y3700D02*
D03*
Y3100D02*
D03*
X43900Y3800D02*
D03*
Y3200D02*
D03*
X15500Y4300D02*
D03*
Y3700D02*
D03*
X27850Y3600D02*
D03*
Y3000D02*
D03*
X4550Y2550D02*
D03*
Y3150D02*
D03*
X2400Y7400D02*
D03*
Y6800D02*
D03*
X7750Y5700D02*
D03*
Y6300D02*
D03*
D42*
X2261Y1770D02*
D03*
Y1514D02*
D03*
Y2026D02*
D03*
Y2282D02*
D03*
Y1258D02*
D03*
D43*
X1050Y1300D02*
D03*
Y2240D02*
D03*
D44*
X1936Y510D02*
D03*
Y3030D02*
D03*
D45*
X5339Y2526D02*
D03*
Y2900D02*
D03*
Y3274D02*
D03*
X6461D02*
D03*
Y2526D02*
D03*
D46*
X6824Y6756D02*
D03*
Y5850D02*
D03*
Y7661D02*
D03*
D47*
X4659Y6756D02*
D03*
M02*
