G04*
G04 #@! TF.GenerationSoftware,Altium Limited,Altium Designer,18.1.9 (240)*
G04*
G04 Layer_Color=16711935*
%FSLAX24Y24*%
%MOIN*%
G70*
G01*
G75*
%ADD10C,0.0100*%
%ADD13C,0.0060*%
D10*
X17250Y34850D02*
X17850Y35050D01*
X17250Y34850D02*
X17850Y34650D01*
X65750D02*
X66350Y34850D01*
X65750Y35050D02*
X66350Y34850D01*
X17250D02*
X39331D01*
X43949D02*
X66350D01*
X17250Y34750D02*
Y35350D01*
X66350Y34750D02*
Y34950D01*
X16100Y24050D02*
X16300Y23450D01*
X16500Y24050D01*
X16300Y33900D02*
X16500Y33300D01*
X16100D02*
X16300Y33900D01*
Y23450D02*
Y26406D01*
Y30624D02*
Y33900D01*
X16100Y23450D02*
X16400D01*
X16200Y33900D02*
X16350D01*
D13*
X39491Y34490D02*
X39691D01*
X39591D01*
Y35090D01*
X39491Y34990D01*
X40390Y34490D02*
X39991D01*
X40390Y34890D01*
Y34990D01*
X40290Y35090D01*
X40090D01*
X39991Y34990D01*
X40890Y34490D02*
Y35090D01*
X40590Y34790D01*
X40990D01*
X41190Y34490D02*
Y34590D01*
X41290D01*
Y34490D01*
X41190D01*
X41690Y35090D02*
X42090D01*
Y34990D01*
X41690Y34590D01*
Y34490D01*
X42290D02*
X42490D01*
X42390D01*
Y35090D01*
X42290Y34990D01*
X42790Y34490D02*
Y34890D01*
X42890D01*
X42990Y34790D01*
Y34490D01*
Y34790D01*
X43090Y34890D01*
X43190Y34790D01*
Y34490D01*
X43389D02*
Y34890D01*
X43489D01*
X43589Y34790D01*
Y34490D01*
Y34790D01*
X43689Y34890D01*
X43789Y34790D01*
Y34490D01*
X16660Y26965D02*
Y26566D01*
X16260Y26965D01*
X16160D01*
X16060Y26866D01*
Y26666D01*
X16160Y26566D01*
X16060Y27565D02*
X16160Y27365D01*
X16360Y27165D01*
X16560D01*
X16660Y27265D01*
Y27465D01*
X16560Y27565D01*
X16460D01*
X16360Y27465D01*
Y27165D01*
X16660Y27765D02*
X16560D01*
Y27865D01*
X16660D01*
Y27765D01*
X16060Y28665D02*
Y28265D01*
X16360D01*
X16260Y28465D01*
Y28565D01*
X16360Y28665D01*
X16560D01*
X16660Y28565D01*
Y28365D01*
X16560Y28265D01*
X16660Y29165D02*
X16060D01*
X16360Y28865D01*
Y29265D01*
X16660Y29465D02*
X16260D01*
Y29565D01*
X16360Y29665D01*
X16660D01*
X16360D01*
X16260Y29765D01*
X16360Y29865D01*
X16660D01*
Y30064D02*
X16260D01*
Y30164D01*
X16360Y30264D01*
X16660D01*
X16360D01*
X16260Y30364D01*
X16360Y30464D01*
X16660D01*
M02*
