G04*
G04 #@! TF.GenerationSoftware,Altium Limited,Altium Designer,18.1.9 (240)*
G04*
G04 Layer_Physical_Order=1*
G04 Layer_Color=255*
%FSLAX24Y24*%
%MOIN*%
G70*
G01*
G75*
%ADD12C,0.0100*%
%ADD15R,0.0300X0.0300*%
%ADD16R,0.0630X0.0394*%
%ADD17R,0.0551X0.0551*%
%ADD26C,0.0150*%
%ADD27O,0.0591X0.0787*%
%ADD28C,0.0197*%
G04:AMPARAMS|DCode=29|XSize=84.6mil|YSize=31.5mil|CornerRadius=7.9mil|HoleSize=0mil|Usage=FLASHONLY|Rotation=0.000|XOffset=0mil|YOffset=0mil|HoleType=Round|Shape=RoundedRectangle|*
%AMROUNDEDRECTD29*
21,1,0.0846,0.0157,0,0,0.0*
21,1,0.0689,0.0315,0,0,0.0*
1,1,0.0157,0.0344,-0.0079*
1,1,0.0157,-0.0344,-0.0079*
1,1,0.0157,-0.0344,0.0079*
1,1,0.0157,0.0344,0.0079*
%
%ADD29ROUNDEDRECTD29*%
%ADD30O,0.0787X0.0591*%
%ADD31C,0.0394*%
%ADD32C,0.0512*%
%ADD33C,0.0240*%
G36*
X3400Y8282D02*
X3354Y8262D01*
X2753Y8863D01*
Y9287D01*
X2799Y9306D01*
X2882Y9370D01*
X2945Y9452D01*
X2985Y9548D01*
X2999Y9652D01*
Y9848D01*
X2985Y9952D01*
X2945Y10048D01*
X2882Y10130D01*
X2799Y10194D01*
X2703Y10234D01*
X2600Y10247D01*
X2497Y10234D01*
X2401Y10194D01*
X2318Y10130D01*
X2255Y10048D01*
X2215Y9952D01*
X2201Y9848D01*
Y9652D01*
X2215Y9548D01*
X2255Y9452D01*
X2318Y9370D01*
X2401Y9306D01*
X2447Y9287D01*
Y8800D01*
X2459Y8741D01*
X2492Y8692D01*
X3626Y7558D01*
X3607Y7512D01*
X3351D01*
X2585Y8278D01*
X2577Y8316D01*
X2529Y8389D01*
X2456Y8437D01*
X2370Y8454D01*
X2284Y8437D01*
X2211Y8389D01*
X2163Y8316D01*
X2146Y8230D01*
X2163Y8144D01*
X2211Y8071D01*
X2284Y8023D01*
X2370Y8006D01*
X2416Y8015D01*
X3017Y7414D01*
Y6853D01*
X2413D01*
X1753Y7513D01*
Y9287D01*
X1799Y9306D01*
X1882Y9370D01*
X1945Y9452D01*
X1985Y9548D01*
X1999Y9652D01*
Y9848D01*
X1985Y9952D01*
X1945Y10048D01*
X1882Y10130D01*
X1799Y10194D01*
X1703Y10234D01*
X1600Y10247D01*
X1497Y10234D01*
X1401Y10194D01*
X1318Y10130D01*
X1255Y10048D01*
X1215Y9952D01*
X1201Y9848D01*
Y9652D01*
X1215Y9548D01*
X1255Y9452D01*
X1318Y9370D01*
X1401Y9306D01*
X1447Y9287D01*
Y7450D01*
X1459Y7391D01*
X1492Y7342D01*
X2242Y6592D01*
X2291Y6559D01*
X2350Y6547D01*
X3017D01*
Y6328D01*
Y5737D01*
Y5146D01*
Y4490D01*
X2971Y4471D01*
X2675Y4766D01*
Y5025D01*
X2175D01*
Y4525D01*
X2484D01*
X2814Y4195D01*
Y3893D01*
X2768Y3873D01*
X2575Y4066D01*
Y4350D01*
X2075D01*
Y3850D01*
X2359D01*
X2614Y3595D01*
Y3489D01*
X2564Y3462D01*
X2536Y3481D01*
X2450Y3498D01*
X2364Y3481D01*
X2291Y3433D01*
X2243Y3360D01*
X2226Y3274D01*
X2243Y3188D01*
X2272Y3145D01*
Y1217D01*
X2285Y1149D01*
X2324Y1091D01*
X2822Y593D01*
X2822Y593D01*
X2880Y554D01*
X2948Y540D01*
X2948Y540D01*
X3017D01*
Y422D01*
X3847D01*
Y1013D01*
Y1259D01*
X3432D01*
X3017D01*
Y968D01*
X2971Y949D01*
X2628Y1291D01*
Y2085D01*
X2678Y2105D01*
X2992Y1792D01*
X3017Y1775D01*
Y1603D01*
Y1359D01*
X3432D01*
X3847D01*
Y1699D01*
X3897Y1736D01*
X3950Y1726D01*
X4036Y1743D01*
X4109Y1791D01*
X4157Y1864D01*
X4174Y1950D01*
X4157Y2036D01*
X4109Y2109D01*
X4036Y2157D01*
X3950Y2174D01*
X3897Y2164D01*
X3862Y2185D01*
X3847Y2201D01*
Y2316D01*
X3891Y2340D01*
X3914Y2324D01*
X4000Y2307D01*
X4086Y2324D01*
X4159Y2373D01*
X4207Y2446D01*
X4224Y2531D01*
X4207Y2617D01*
X4159Y2690D01*
X4086Y2739D01*
X4000Y2756D01*
X3914Y2739D01*
X3891Y2723D01*
X3847Y2747D01*
Y3375D01*
Y3547D01*
X7638D01*
X7641Y3541D01*
X7714Y3493D01*
X7800Y3476D01*
X7867Y3489D01*
X7917Y3458D01*
Y2976D01*
X7914Y2975D01*
X7841Y2927D01*
X7793Y2854D01*
X7776Y2768D01*
X7793Y2682D01*
X7841Y2610D01*
X7914Y2561D01*
X8000Y2544D01*
X8086Y2561D01*
X8091Y2564D01*
X8135Y2541D01*
Y2194D01*
Y1603D01*
Y1013D01*
Y422D01*
X8965D01*
Y1013D01*
Y1603D01*
Y2194D01*
Y2581D01*
X12350D01*
X12409Y2593D01*
X12458Y2626D01*
X12490Y2674D01*
X13534Y3718D01*
X21278D01*
Y3069D01*
X22029D01*
Y3718D01*
X23404D01*
Y3495D01*
X23780D01*
X24155D01*
Y3718D01*
X32742D01*
X32747Y3668D01*
X32669Y3652D01*
X32597Y3603D01*
X32548Y3531D01*
X32531Y3445D01*
X32548Y3359D01*
X32597Y3286D01*
X32669Y3238D01*
X32755Y3221D01*
X32841Y3238D01*
X32914Y3286D01*
X32918Y3292D01*
X33089D01*
Y3069D01*
X33840D01*
Y3820D01*
X33305D01*
X33147Y3979D01*
X33120Y3997D01*
X33135Y4047D01*
X41061Y4047D01*
X41061Y4047D01*
X51554D01*
X51591Y3991D01*
X51664Y3943D01*
X51750Y3926D01*
X51836Y3943D01*
X51909Y3991D01*
X51957Y4064D01*
X51974Y4150D01*
X51973Y4157D01*
X52067Y4250D01*
X52738D01*
Y5002D01*
X51987D01*
Y4603D01*
X51757Y4373D01*
X51750Y4374D01*
X51664Y4357D01*
X51658Y4353D01*
X47777D01*
Y5100D01*
X47026D01*
Y4353D01*
X45651D01*
Y5100D01*
X44900D01*
Y4903D01*
X44072D01*
X44059Y4922D01*
X44011Y4954D01*
X44008Y4958D01*
X43433Y5533D01*
X43384Y5566D01*
X43325Y5578D01*
X43053D01*
Y5856D01*
X42677D01*
X42302D01*
Y5578D01*
X40927D01*
Y6281D01*
X40176D01*
Y5578D01*
X31242D01*
Y5856D01*
X30866D01*
X30491D01*
Y5578D01*
X29116D01*
Y6281D01*
X28365D01*
Y5578D01*
X19431D01*
Y5856D01*
X19055D01*
X18680D01*
Y5578D01*
X17305D01*
Y6281D01*
X16554D01*
Y5578D01*
X14188D01*
X13158Y6608D01*
X13109Y6641D01*
X13050Y6653D01*
X8965D01*
Y6918D01*
Y7512D01*
X8135D01*
Y7453D01*
X4163D01*
X3562Y8054D01*
X3582Y8100D01*
X9097D01*
Y7700D01*
Y7000D01*
X9109Y6941D01*
X9142Y6892D01*
X9191Y6859D01*
X9250Y6847D01*
X55147D01*
Y2750D01*
Y2403D01*
X9250D01*
X9191Y2391D01*
X9142Y2358D01*
X9109Y2309D01*
X9097Y2250D01*
X9105Y2212D01*
X9097Y2175D01*
Y1700D01*
Y153D01*
X153D01*
Y4349D01*
X203Y4359D01*
X206Y4351D01*
X270Y4268D01*
X352Y4205D01*
X448Y4165D01*
X552Y4151D01*
X600D01*
Y4550D01*
Y4949D01*
X552D01*
X448Y4935D01*
X352Y4895D01*
X270Y4832D01*
X206Y4749D01*
X203Y4741D01*
X153Y4751D01*
Y5349D01*
X203Y5359D01*
X206Y5351D01*
X270Y5268D01*
X352Y5205D01*
X448Y5165D01*
X552Y5151D01*
X748D01*
X852Y5165D01*
X948Y5205D01*
X1030Y5268D01*
X1094Y5351D01*
X1134Y5447D01*
X1147Y5550D01*
X1134Y5653D01*
X1094Y5749D01*
X1030Y5832D01*
X948Y5895D01*
X852Y5935D01*
X748Y5949D01*
X552D01*
X448Y5935D01*
X352Y5895D01*
X270Y5832D01*
X206Y5749D01*
X203Y5741D01*
X153Y5751D01*
Y9636D01*
X203Y9639D01*
X215Y9548D01*
X255Y9452D01*
X318Y9370D01*
X401Y9306D01*
X497Y9266D01*
X600Y9253D01*
X703Y9266D01*
X799Y9306D01*
X882Y9370D01*
X945Y9452D01*
X985Y9548D01*
X999Y9652D01*
Y9848D01*
X985Y9952D01*
X945Y10048D01*
X882Y10130D01*
X799Y10194D01*
X703Y10234D01*
X600Y10247D01*
X497Y10234D01*
X401Y10194D01*
X318Y10130D01*
X255Y10048D01*
X215Y9952D01*
X203Y9861D01*
X153Y9864D01*
Y10297D01*
X3400D01*
Y8282D01*
D02*
G37*
G36*
X3992Y7192D02*
X4041Y7159D01*
X4100Y7147D01*
X8135D01*
Y6918D01*
Y6328D01*
Y5737D01*
Y5146D01*
Y4751D01*
X8085Y4724D01*
X8036Y4757D01*
X7950Y4774D01*
X7888Y4762D01*
X3847D01*
Y4985D01*
X3891Y5008D01*
X3914Y4993D01*
X4000Y4976D01*
X4086Y4993D01*
X4129Y5022D01*
X4750D01*
X4752Y5022D01*
X4754Y5022D01*
X4786Y5029D01*
X4818Y5035D01*
X4820Y5036D01*
X4822Y5037D01*
X4849Y5056D01*
X4876Y5074D01*
X4877Y5076D01*
X4879Y5077D01*
X5840Y6084D01*
X5886Y6093D01*
X5959Y6141D01*
X6007Y6214D01*
X6024Y6300D01*
X6007Y6386D01*
X5959Y6459D01*
X5886Y6507D01*
X5800Y6524D01*
X5714Y6507D01*
X5641Y6459D01*
X5593Y6386D01*
X5582Y6330D01*
X4905Y5621D01*
X4866Y5633D01*
X4854Y5640D01*
X4809Y5709D01*
X4736Y5757D01*
X4650Y5774D01*
X4564Y5757D01*
X4491Y5709D01*
X4488Y5703D01*
X3847D01*
Y6328D01*
Y6918D01*
Y7272D01*
X3893Y7291D01*
X3992Y7192D01*
D02*
G37*
G36*
X21278Y4877D02*
X20587D01*
X20583Y4883D01*
X20510Y4932D01*
X20424Y4949D01*
X20339Y4932D01*
X20266Y4883D01*
X20217Y4810D01*
X20200Y4724D01*
X20217Y4639D01*
X20266Y4566D01*
X20339Y4517D01*
X20424Y4500D01*
X20510Y4517D01*
X20583Y4566D01*
X20587Y4571D01*
X21278D01*
Y4353D01*
X20355D01*
X19431D01*
Y5002D01*
X18680D01*
Y4353D01*
X17389D01*
X17389Y4353D01*
X17305D01*
Y5002D01*
X16760D01*
X16745Y5022D01*
X16770Y5072D01*
X21278D01*
Y4877D01*
D02*
G37*
G36*
X39592Y4466D02*
X39593Y4464D01*
X39634Y4403D01*
X39616Y4353D01*
X35966D01*
Y4674D01*
X35591D01*
X35215D01*
Y4353D01*
X33840D01*
Y5072D01*
X35215D01*
Y4774D01*
X35591D01*
X35966D01*
Y5072D01*
X38987D01*
X39592Y4466D01*
D02*
G37*
G36*
X33089Y4353D02*
X31242D01*
Y5002D01*
X30491D01*
Y4353D01*
X29116D01*
Y5002D01*
X28365D01*
Y4779D01*
X27988D01*
X27985Y4785D01*
X27912Y4833D01*
X27826Y4850D01*
X27740Y4833D01*
X27667Y4785D01*
X27619Y4712D01*
X27602Y4626D01*
X27619Y4540D01*
X27667Y4467D01*
X27740Y4419D01*
X27820Y4403D01*
X27815Y4353D01*
X24155Y4353D01*
Y5072D01*
X33089D01*
Y4353D01*
D02*
G37*
G36*
X43691Y4842D02*
X43676Y4764D01*
X43693Y4678D01*
X43741Y4605D01*
X43814Y4557D01*
X43900Y4539D01*
X43986Y4557D01*
X44046Y4597D01*
X44900D01*
Y4353D01*
X43053D01*
Y5002D01*
X42302D01*
Y4353D01*
X41061D01*
X41061Y4353D01*
X40927D01*
Y5002D01*
X40176D01*
Y4779D01*
X39850D01*
X39813Y4772D01*
X39800Y4774D01*
X39731Y4761D01*
X39265Y5226D01*
X39285Y5272D01*
X43262D01*
X43691Y4842D01*
D02*
G37*
G36*
X12539Y5845D02*
X12542Y5831D01*
X12526Y5750D01*
X12543Y5664D01*
X12591Y5591D01*
X12664Y5543D01*
X12715Y5533D01*
X13774Y4474D01*
X13774Y4474D01*
X13832Y4435D01*
X13859Y4430D01*
X13899Y4403D01*
X13884Y4353D01*
X12344D01*
Y5100D01*
X11593D01*
Y4353D01*
X10218D01*
Y5100D01*
X9467D01*
X9466Y5149D01*
Y5538D01*
X9471Y5541D01*
X9520Y5614D01*
X9537Y5700D01*
X9520Y5786D01*
X9490Y5831D01*
X9516Y5881D01*
X12520D01*
X12539Y5845D01*
D02*
G37*
G36*
X23404Y4353D02*
X22029D01*
Y5072D01*
X23404D01*
Y4353D01*
D02*
G37*
G36*
X13390Y3997D02*
X13362Y3979D01*
X12271Y2887D01*
X8965D01*
Y3114D01*
X9421Y3570D01*
X9467Y3551D01*
Y3069D01*
X10218D01*
Y3820D01*
X9736D01*
X9717Y3867D01*
X9898Y4047D01*
X13375D01*
X13390Y3997D01*
D02*
G37*
%LPC*%
G36*
X800Y9084D02*
X723Y9073D01*
X650Y9044D01*
X588Y8996D01*
X541Y8934D01*
X511Y8862D01*
X501Y8784D01*
X511Y8707D01*
X541Y8635D01*
X588Y8573D01*
X650Y8525D01*
X723Y8495D01*
X800Y8485D01*
X877Y8495D01*
X950Y8525D01*
X1012Y8573D01*
X1059Y8635D01*
X1089Y8707D01*
X1099Y8784D01*
X1089Y8862D01*
X1059Y8934D01*
X1012Y8996D01*
X950Y9044D01*
X877Y9073D01*
X800Y9084D01*
D02*
G37*
G36*
Y8099D02*
X723Y8089D01*
X650Y8059D01*
X588Y8012D01*
X541Y7950D01*
X511Y7877D01*
X501Y7800D01*
X511Y7723D01*
X541Y7650D01*
X588Y7588D01*
X650Y7541D01*
X723Y7511D01*
X800Y7501D01*
X877Y7511D01*
X950Y7541D01*
X1012Y7588D01*
X1059Y7650D01*
X1089Y7723D01*
X1099Y7800D01*
X1089Y7877D01*
X1059Y7950D01*
X1012Y8012D01*
X950Y8059D01*
X877Y8089D01*
X800Y8099D01*
D02*
G37*
G36*
Y7115D02*
X723Y7105D01*
X650Y7075D01*
X588Y7027D01*
X541Y6965D01*
X511Y6893D01*
X501Y6816D01*
X511Y6738D01*
X541Y6666D01*
X588Y6604D01*
X650Y6556D01*
X723Y6527D01*
X800Y6516D01*
X877Y6527D01*
X950Y6556D01*
X1012Y6604D01*
X1059Y6666D01*
X1089Y6738D01*
X1099Y6816D01*
X1089Y6893D01*
X1059Y6965D01*
X1012Y7027D01*
X950Y7075D01*
X877Y7105D01*
X800Y7115D01*
D02*
G37*
G36*
X54864Y6281D02*
X54538D01*
Y5956D01*
X54864D01*
Y6281D01*
D02*
G37*
G36*
X54438D02*
X54113D01*
Y5956D01*
X54438D01*
Y6281D01*
D02*
G37*
G36*
X19431D02*
X19105D01*
Y5956D01*
X19431D01*
Y6281D01*
D02*
G37*
G36*
X19005D02*
X18680D01*
Y5956D01*
X19005D01*
Y6281D01*
D02*
G37*
G36*
X43053D02*
X42727D01*
Y5956D01*
X43053D01*
Y6281D01*
D02*
G37*
G36*
X31242D02*
X30916D01*
Y5956D01*
X31242D01*
Y6281D01*
D02*
G37*
G36*
X42627D02*
X42302D01*
Y5956D01*
X42627D01*
Y6281D01*
D02*
G37*
G36*
X30816D02*
X30491D01*
Y5956D01*
X30816D01*
Y6281D01*
D02*
G37*
G36*
X54864Y5856D02*
X54538D01*
Y5530D01*
X54864D01*
Y5856D01*
D02*
G37*
G36*
X54438D02*
X54113D01*
Y5530D01*
X54438D01*
Y5856D01*
D02*
G37*
G36*
X52738Y6281D02*
X51987D01*
Y5530D01*
X52738D01*
Y6281D01*
D02*
G37*
G36*
X2125Y5025D02*
X1925D01*
Y4825D01*
X2125D01*
Y5025D01*
D02*
G37*
G36*
X1825D02*
X1625D01*
Y4825D01*
X1825D01*
Y5025D01*
D02*
G37*
G36*
X748Y4949D02*
X700D01*
Y4600D01*
X1141D01*
X1134Y4653D01*
X1094Y4749D01*
X1030Y4832D01*
X948Y4895D01*
X852Y4935D01*
X748Y4949D01*
D02*
G37*
G36*
X2125Y4725D02*
X1925D01*
Y4525D01*
X2125D01*
Y4725D01*
D02*
G37*
G36*
X1825D02*
X1625D01*
Y4525D01*
X1825D01*
Y4725D01*
D02*
G37*
G36*
X54864Y5002D02*
X54113D01*
Y4250D01*
X54864D01*
Y5002D01*
D02*
G37*
G36*
X1141Y4500D02*
X700D01*
Y4151D01*
X748D01*
X852Y4165D01*
X948Y4205D01*
X1030Y4268D01*
X1094Y4351D01*
X1134Y4447D01*
X1141Y4500D01*
D02*
G37*
G36*
X2025Y4350D02*
X1825D01*
Y4150D01*
X2025D01*
Y4350D01*
D02*
G37*
G36*
X1725D02*
X1525D01*
Y4150D01*
X1725D01*
Y4350D01*
D02*
G37*
G36*
X2025Y4050D02*
X1825D01*
Y3850D01*
X2025D01*
Y4050D01*
D02*
G37*
G36*
X1725D02*
X1525D01*
Y3850D01*
X1725D01*
Y4050D01*
D02*
G37*
G36*
X47777Y3820D02*
X47452D01*
Y3495D01*
X47777D01*
Y3820D01*
D02*
G37*
G36*
X47352D02*
X47026D01*
Y3495D01*
X47352D01*
Y3820D01*
D02*
G37*
G36*
X47777Y3395D02*
X47452D01*
Y3069D01*
X47777D01*
Y3395D01*
D02*
G37*
G36*
X47352D02*
X47026D01*
Y3069D01*
X47352D01*
Y3395D01*
D02*
G37*
G36*
X45651Y3820D02*
X44900D01*
Y3069D01*
X45651D01*
Y3820D01*
D02*
G37*
G36*
X35966D02*
X35215D01*
Y3069D01*
X35966D01*
Y3820D01*
D02*
G37*
G36*
X24155Y3395D02*
X23830D01*
Y3069D01*
X24155D01*
Y3395D01*
D02*
G37*
G36*
X23730D02*
X23404D01*
Y3069D01*
X23730D01*
Y3395D01*
D02*
G37*
G36*
X18050Y3324D02*
X17964Y3307D01*
X17891Y3259D01*
X17843Y3186D01*
X17826Y3100D01*
X17843Y3014D01*
X17891Y2941D01*
X17964Y2893D01*
X18050Y2876D01*
X18136Y2893D01*
X18179Y2922D01*
X20056D01*
X20090Y2871D01*
X20162Y2823D01*
X20248Y2806D01*
X20334Y2823D01*
X20407Y2871D01*
X20455Y2944D01*
X20472Y3030D01*
X20455Y3116D01*
X20407Y3189D01*
X20334Y3237D01*
X20268Y3250D01*
X20246Y3265D01*
X20178Y3278D01*
X18179D01*
X18136Y3307D01*
X18050Y3324D01*
D02*
G37*
G36*
X1434Y3133D02*
X745D01*
X675Y3120D01*
X616Y3080D01*
X577Y3021D01*
X563Y2951D01*
Y2794D01*
X577Y2724D01*
X616Y2665D01*
X675Y2625D01*
X745Y2612D01*
X1434D01*
X1504Y2625D01*
X1563Y2665D01*
X1602Y2724D01*
X1616Y2794D01*
Y2951D01*
X1602Y3021D01*
X1563Y3080D01*
X1504Y3120D01*
X1434Y3133D01*
D02*
G37*
G36*
X1936Y2760D02*
X1858Y2744D01*
X1793Y2701D01*
X1749Y2635D01*
X1734Y2558D01*
X1749Y2480D01*
X1793Y2414D01*
X1858Y2371D01*
X1936Y2355D01*
X2013Y2371D01*
X2079Y2414D01*
X2123Y2480D01*
X2138Y2558D01*
X2123Y2635D01*
X2079Y2701D01*
X2013Y2744D01*
X1936Y2760D01*
D02*
G37*
G36*
Y1185D02*
X1858Y1170D01*
X1793Y1126D01*
X1749Y1060D01*
X1734Y983D01*
X1749Y905D01*
X1793Y840D01*
X1858Y796D01*
X1936Y780D01*
X2013Y796D01*
X2079Y840D01*
X2123Y905D01*
X2138Y983D01*
X2123Y1060D01*
X2079Y1126D01*
X2013Y1170D01*
X1936Y1185D01*
D02*
G37*
G36*
X1394Y929D02*
X706D01*
X636Y915D01*
X577Y875D01*
X537Y816D01*
X523Y747D01*
Y589D01*
X537Y519D01*
X577Y460D01*
X636Y421D01*
X706Y407D01*
X1394D01*
X1464Y421D01*
X1523Y460D01*
X1563Y519D01*
X1577Y589D01*
Y747D01*
X1563Y816D01*
X1523Y875D01*
X1464Y915D01*
X1394Y929D01*
D02*
G37*
G36*
X7560Y1096D02*
X7464Y1084D01*
X7375Y1047D01*
X7299Y988D01*
X7240Y912D01*
X7203Y823D01*
X7191Y727D01*
X7203Y631D01*
X7240Y542D01*
X7299Y466D01*
X7375Y407D01*
X7464Y370D01*
X7560Y358D01*
X7656Y370D01*
X7745Y407D01*
X7821Y466D01*
X7880Y542D01*
X7917Y631D01*
X7929Y727D01*
X7917Y823D01*
X7880Y912D01*
X7821Y988D01*
X7745Y1047D01*
X7656Y1084D01*
X7560Y1096D01*
D02*
G37*
G36*
X6560D02*
X6464Y1084D01*
X6375Y1047D01*
X6299Y988D01*
X6240Y912D01*
X6203Y823D01*
X6191Y727D01*
X6203Y631D01*
X6240Y542D01*
X6299Y466D01*
X6375Y407D01*
X6464Y370D01*
X6560Y358D01*
X6656Y370D01*
X6745Y407D01*
X6821Y466D01*
X6880Y542D01*
X6917Y631D01*
X6929Y727D01*
X6917Y823D01*
X6880Y912D01*
X6821Y988D01*
X6745Y1047D01*
X6656Y1084D01*
X6560Y1096D01*
D02*
G37*
G36*
X5560D02*
X5464Y1084D01*
X5375Y1047D01*
X5299Y988D01*
X5240Y912D01*
X5203Y823D01*
X5191Y727D01*
X5203Y631D01*
X5240Y542D01*
X5299Y466D01*
X5375Y407D01*
X5464Y370D01*
X5560Y358D01*
X5656Y370D01*
X5745Y407D01*
X5821Y466D01*
X5880Y542D01*
X5917Y631D01*
X5929Y727D01*
X5917Y823D01*
X5880Y912D01*
X5821Y988D01*
X5745Y1047D01*
X5656Y1084D01*
X5560Y1096D01*
D02*
G37*
G36*
X4560Y1096D02*
X4464Y1084D01*
X4375Y1047D01*
X4299Y988D01*
X4240Y912D01*
X4203Y823D01*
X4191Y727D01*
X4203Y631D01*
X4240Y542D01*
X4299Y466D01*
X4375Y407D01*
X4464Y370D01*
X4560Y358D01*
X4656Y370D01*
X4745Y407D01*
X4821Y466D01*
X4880Y542D01*
X4917Y631D01*
X4929Y727D01*
X4917Y823D01*
X4880Y912D01*
X4821Y988D01*
X4745Y1047D01*
X4656Y1084D01*
X4560Y1096D01*
D02*
G37*
G36*
X12344Y3820D02*
X12019D01*
Y3495D01*
X12344D01*
Y3820D01*
D02*
G37*
G36*
X11919D02*
X11593D01*
Y3495D01*
X11919D01*
Y3820D01*
D02*
G37*
G36*
X12344Y3395D02*
X12019D01*
Y3069D01*
X12344D01*
Y3395D01*
D02*
G37*
G36*
X11919D02*
X11593D01*
Y3069D01*
X11919D01*
Y3395D01*
D02*
G37*
%LPD*%
D12*
X8550Y3081D02*
X8715D01*
X51750Y4150D02*
X52226Y4626D01*
X52362D01*
X41061Y4200D02*
X51700D01*
X51750Y4150D01*
X41061Y4200D02*
X41061Y4200D01*
X16571Y4950D02*
X16912Y4609D01*
X16250Y4950D02*
X16571D01*
X13470Y3870D02*
X33039D01*
X12350Y2750D02*
X13470Y3870D01*
X8794Y2734D02*
X12350D01*
Y2750D01*
X33039Y3870D02*
X33465Y3445D01*
X8715Y3081D02*
X9834Y4200D01*
X17389D01*
X32755Y3445D02*
X33465D01*
X17389Y4200D02*
X20355D01*
X17389Y4200D02*
X17389Y4200D01*
X20355D02*
X41061Y4200D01*
X39725Y4550D02*
X39800D01*
X43325Y5425D02*
X43900Y4850D01*
X39050Y5225D02*
X39725Y4550D01*
X13847Y5225D02*
X39050D01*
X13039Y6034D02*
X13847Y5225D01*
X43900Y4764D02*
X43914Y4750D01*
X43900Y4764D02*
Y4850D01*
X20424Y4724D02*
X21654D01*
X8550Y2491D02*
X8794Y2734D01*
X43914Y4750D02*
X45276D01*
Y4724D02*
Y4750D01*
X14125Y5425D02*
X43325D01*
X39850Y4626D02*
X40551D01*
X27826D02*
X28740D01*
X16912Y4609D02*
X16929Y4626D01*
X8674Y6500D02*
X13050D01*
X14125Y5425D01*
X3539Y5550D02*
X4650D01*
X8550Y6624D02*
X8674Y6500D01*
X8550Y6034D02*
X13039D01*
X9313Y4513D02*
Y5700D01*
X9300Y4500D02*
X9313Y4513D01*
X9618Y4500D02*
X9843Y4724D01*
X9300Y4500D02*
X9618D01*
X3473Y2531D02*
X4000D01*
X3432Y2491D02*
X3473Y2531D01*
X8070Y2838D02*
Y3980D01*
X8000Y2768D02*
X8070Y2838D01*
X3432Y4262D02*
X7788D01*
X8070Y3980D01*
X3460Y3700D02*
X7800D01*
X3432Y5443D02*
X3539Y5550D01*
X3432Y3672D02*
X3460Y3700D01*
X3432Y4853D02*
X3676Y4609D01*
X7891D01*
X7950Y4550D01*
X3298Y2491D02*
X3432D01*
X2967Y2822D02*
X3298Y2491D01*
X2967Y2822D02*
Y4258D01*
X2450Y4775D02*
X2967Y4258D01*
X2767Y2233D02*
X3100Y1900D01*
X2767Y2233D02*
Y3658D01*
X2325Y4100D02*
X2767Y3658D01*
X2425Y4775D02*
X2450D01*
X3100Y1900D02*
X3432D01*
X4100Y7300D02*
X8465D01*
X2600Y8800D02*
X4100Y7300D01*
X2600Y8800D02*
Y9750D01*
X8465Y7300D02*
X8550Y7215D01*
X2370Y8277D02*
X3432Y7215D01*
X2350Y8297D02*
X2370Y8277D01*
Y8230D02*
Y8277D01*
X1600Y7450D02*
Y9750D01*
Y7450D02*
X2350Y6700D01*
X3356D01*
X3432Y6624D01*
X3900Y1900D02*
X3950Y1950D01*
X3432Y1900D02*
X3900D01*
D15*
X1875Y4775D02*
D03*
X2425D02*
D03*
X1775Y4100D02*
D03*
X2325D02*
D03*
D16*
X3432Y1309D02*
D03*
X8550Y7215D02*
D03*
Y6624D02*
D03*
Y6034D02*
D03*
Y5443D02*
D03*
Y4853D02*
D03*
Y4262D02*
D03*
Y3672D02*
D03*
Y3081D02*
D03*
Y2491D02*
D03*
Y1900D02*
D03*
Y1309D02*
D03*
Y719D02*
D03*
X3432Y3081D02*
D03*
Y3672D02*
D03*
Y4262D02*
D03*
Y1900D02*
D03*
Y2491D02*
D03*
Y7215D02*
D03*
Y6624D02*
D03*
Y6034D02*
D03*
Y5443D02*
D03*
Y4853D02*
D03*
Y719D02*
D03*
D17*
X11968Y4724D02*
D03*
Y3445D02*
D03*
X9843Y4724D02*
D03*
Y3445D02*
D03*
X35591Y4724D02*
D03*
Y3445D02*
D03*
X33465Y4724D02*
D03*
Y3445D02*
D03*
X54488Y5906D02*
D03*
Y4626D02*
D03*
X52362Y5906D02*
D03*
Y4626D02*
D03*
X42677Y5906D02*
D03*
Y4626D02*
D03*
X40551Y5906D02*
D03*
Y4626D02*
D03*
X47402Y4724D02*
D03*
Y3445D02*
D03*
X45276Y4724D02*
D03*
Y3445D02*
D03*
X19055Y5906D02*
D03*
Y4626D02*
D03*
X16929Y5906D02*
D03*
Y4626D02*
D03*
X30866Y5906D02*
D03*
Y4626D02*
D03*
X28740Y5906D02*
D03*
Y4626D02*
D03*
X23780Y4724D02*
D03*
Y3445D02*
D03*
X21654Y4724D02*
D03*
Y3445D02*
D03*
D26*
X13900Y4600D02*
X14000D01*
X12750Y5750D02*
X13900Y4600D01*
X18050Y3100D02*
X20178D01*
X20248Y3030D01*
X4000Y5200D02*
X4750D01*
X5800Y6300D01*
X2450Y1217D02*
Y3274D01*
Y1217D02*
X2948Y719D01*
X3432D01*
D27*
X2600Y9750D02*
D03*
X1600D02*
D03*
X600D02*
D03*
D28*
X1936Y2558D02*
D03*
Y983D02*
D03*
D29*
X1050Y668D02*
D03*
X1089Y2873D02*
D03*
D30*
X650Y4550D02*
D03*
Y5550D02*
D03*
D31*
X800Y8784D02*
D03*
Y7800D02*
D03*
Y6816D02*
D03*
D32*
X10906Y3445D02*
D03*
Y4764D02*
D03*
X34528Y3445D02*
D03*
Y4764D02*
D03*
X53425Y4626D02*
D03*
Y5945D02*
D03*
X41614Y4626D02*
D03*
Y5945D02*
D03*
X46339Y3445D02*
D03*
Y4764D02*
D03*
X17992Y4626D02*
D03*
Y5945D02*
D03*
X29803Y4626D02*
D03*
Y5945D02*
D03*
X22717Y3445D02*
D03*
Y4764D02*
D03*
D33*
X48450Y3700D02*
D03*
X53050Y3200D02*
D03*
X50150Y5150D02*
D03*
X47750Y5900D02*
D03*
X46250Y6100D02*
D03*
X44400Y6000D02*
D03*
X36700Y6200D02*
D03*
X51750Y4150D02*
D03*
X14000Y4600D02*
D03*
X16250Y4950D02*
D03*
X32755Y3445D02*
D03*
X39800Y4550D02*
D03*
X43900Y4764D02*
D03*
X20424Y4724D02*
D03*
X32600Y6250D02*
D03*
X49550Y2531D02*
D03*
X42900Y2558D02*
D03*
X38900Y2531D02*
D03*
X33500Y2600D02*
D03*
X24050D02*
D03*
X30300D02*
D03*
X19550Y2700D02*
D03*
X20248Y3030D02*
D03*
X27826Y4626D02*
D03*
X4000Y5200D02*
D03*
X4650Y5550D02*
D03*
X9313Y5700D02*
D03*
X9300Y4500D02*
D03*
X18050Y3100D02*
D03*
X51100Y3550D02*
D03*
X53850Y2531D02*
D03*
X54250Y3500D02*
D03*
X49600D02*
D03*
X51300Y6200D02*
D03*
X48900Y5443D02*
D03*
X49100Y6450D02*
D03*
X41700Y3450D02*
D03*
X38850Y3550D02*
D03*
X36800D02*
D03*
X39050Y4700D02*
D03*
X37000Y4724D02*
D03*
X38150Y6100D02*
D03*
X35000Y6150D02*
D03*
X30600Y3500D02*
D03*
X27000Y3450D02*
D03*
X25150Y3400D02*
D03*
X26750Y4750D02*
D03*
X25300Y4600D02*
D03*
X27100Y6034D02*
D03*
X25050Y5950D02*
D03*
X23700Y6050D02*
D03*
X22000Y6150D02*
D03*
X20650Y6000D02*
D03*
X17350Y3100D02*
D03*
X15350Y3081D02*
D03*
X13750Y3300D02*
D03*
X15350Y6100D02*
D03*
X14200Y6034D02*
D03*
X12750Y5750D02*
D03*
X4000Y2531D02*
D03*
X8000Y2768D02*
D03*
X7800Y3700D02*
D03*
X5800Y6300D02*
D03*
X4000Y3200D02*
D03*
X7950Y4550D02*
D03*
X450Y1800D02*
D03*
X2700Y5225D02*
D03*
X4000Y6350D02*
D03*
X3050Y8850D02*
D03*
X2550Y6250D02*
D03*
X2450Y3274D02*
D03*
X2300Y8750D02*
D03*
X2370Y8230D02*
D03*
X2650Y600D02*
D03*
X3950Y1950D02*
D03*
X8000Y5000D02*
D03*
X7956Y2150D02*
D03*
X7800Y3150D02*
D03*
X8015Y1100D02*
D03*
X7100Y900D02*
D03*
X6050Y800D02*
D03*
X5100Y500D02*
D03*
X400Y900D02*
D03*
Y2350D02*
D03*
X1400Y3600D02*
D03*
X700Y3650D02*
D03*
X1500Y5150D02*
D03*
X1200Y8400D02*
D03*
X2850Y7350D02*
D03*
X1900Y8250D02*
D03*
M02*
