G04*
G04 #@! TF.GenerationSoftware,Altium Limited,Altium Designer,18.1.9 (240)*
G04*
G04 Layer_Color=16711935*
%FSLAX24Y24*%
%MOIN*%
G70*
G01*
G75*
%ADD18R,0.0380X0.0380*%
%ADD19R,0.0380X0.0380*%
%ADD21O,0.0671X0.0867*%
%ADD22C,0.0671*%
G04:AMPARAMS|DCode=23|XSize=92.6mil|YSize=39.5mil|CornerRadius=11.9mil|HoleSize=0mil|Usage=FLASHONLY|Rotation=0.000|XOffset=0mil|YOffset=0mil|HoleType=Round|Shape=RoundedRectangle|*
%AMROUNDEDRECTD23*
21,1,0.0926,0.0157,0,0,0.0*
21,1,0.0689,0.0395,0,0,0.0*
1,1,0.0237,0.0344,-0.0079*
1,1,0.0237,-0.0344,-0.0079*
1,1,0.0237,-0.0344,0.0079*
1,1,0.0237,0.0344,0.0079*
%
%ADD23ROUNDEDRECTD23*%
%ADD24C,0.0277*%
%ADD25O,0.0867X0.0671*%
%ADD26C,0.0474*%
%ADD27C,0.0320*%
%ADD42R,0.0474X0.0552*%
%ADD43R,0.0907X0.0237*%
%ADD44R,0.0828X0.0789*%
%ADD45R,0.0493X0.0316*%
%ADD46R,0.1064X0.0552*%
%ADD47R,0.0867X0.1458*%
D18*
X22800Y28300D02*
D03*
X23400D02*
D03*
X22100D02*
D03*
X21500D02*
D03*
X24050D02*
D03*
X24650D02*
D03*
X23450Y27550D02*
D03*
X22850D02*
D03*
X23500Y25150D02*
D03*
X22900D02*
D03*
X21570Y25100D02*
D03*
X22170D02*
D03*
X21500Y27550D02*
D03*
X22100D02*
D03*
X24700D02*
D03*
X24100D02*
D03*
X24850Y25050D02*
D03*
X24250D02*
D03*
D19*
X24950Y29150D02*
D03*
Y29750D02*
D03*
X19000Y30250D02*
D03*
Y30850D02*
D03*
X30150Y30100D02*
D03*
Y29500D02*
D03*
X40300Y29300D02*
D03*
Y29900D02*
D03*
Y28200D02*
D03*
Y27600D02*
D03*
X29650Y27650D02*
D03*
Y27050D02*
D03*
X19600Y30250D02*
D03*
Y30850D02*
D03*
X24300Y25696D02*
D03*
Y26296D02*
D03*
X21750Y26000D02*
D03*
Y26600D02*
D03*
D21*
X17800Y33200D02*
D03*
X18800D02*
D03*
X19800D02*
D03*
D22*
X31170Y30572D02*
D03*
X33730D02*
D03*
X31170Y28800D02*
D03*
X33730D02*
D03*
X44400Y28800D02*
D03*
X41841D02*
D03*
X44400Y30572D02*
D03*
X41841D02*
D03*
X52500D02*
D03*
X55059D02*
D03*
X52500Y28800D02*
D03*
X55059D02*
D03*
X65724Y28800D02*
D03*
X63165D02*
D03*
X65724Y30572D02*
D03*
X63165D02*
D03*
X52500Y27486D02*
D03*
X55059D02*
D03*
X52500Y25714D02*
D03*
X55059D02*
D03*
X33680D02*
D03*
X31120D02*
D03*
X33680Y27486D02*
D03*
X31120D02*
D03*
X41820D02*
D03*
X44380D02*
D03*
X41820Y25714D02*
D03*
X44380D02*
D03*
X63165Y27486D02*
D03*
X65724D02*
D03*
X63165Y25714D02*
D03*
X65724D02*
D03*
D23*
X18289Y26323D02*
D03*
X18250Y24118D02*
D03*
D24*
X19136Y24433D02*
D03*
Y26008D02*
D03*
D25*
X17850Y29000D02*
D03*
Y28000D02*
D03*
D26*
X18000Y30266D02*
D03*
Y31250D02*
D03*
Y32234D02*
D03*
D27*
X19570Y31680D02*
D03*
D42*
X19136Y26480D02*
D03*
Y23960D02*
D03*
D43*
X19461Y24708D02*
D03*
Y25732D02*
D03*
Y25476D02*
D03*
Y24964D02*
D03*
Y25220D02*
D03*
D44*
X18250Y25690D02*
D03*
Y24750D02*
D03*
D45*
X22539Y25976D02*
D03*
Y26350D02*
D03*
Y26724D02*
D03*
X23661D02*
D03*
Y25976D02*
D03*
D46*
X24024Y30206D02*
D03*
Y29300D02*
D03*
Y31111D02*
D03*
D47*
X21859Y30206D02*
D03*
M02*
