M48
;Layer_Color=9474304
;FILE_FORMAT=2:5
INCH,LZ
;TYPE=PLATED
T1F00S00C0.01200
T3F00S00C0.02362
T4F00S00C0.03300
T5F00S00C0.03937
;TYPE=NON_PLATED
T6F00S00C0.01968
%
T01
X049Y0257142
X0499811Y0265311
X0494Y02755
X04815Y02725
X04835Y02885
X04955Y0305
X0509Y0282
X0564Y0274
X05645Y02575
X06Y0257
X0599689Y0265311
X06015Y0276
X0587Y02735
X05955Y02915
X0581Y0295
X0567Y0293
X05655Y030665
X0623Y02875
X0621Y0277122
X06215Y0258
X04605
X046Y02745
X04605Y0288933
X04635Y030665
X0395Y03045
X0392Y0288
X0394Y02815
X0397Y0269
X03815Y027
X03725Y02715
X03545Y0271
X0351Y02565
X0367Y02569
X0383Y02575
X0401Y02555
X03795Y02895
X03645Y0288
X0353Y029
X03545Y0307
X03715Y0305
X0296Y0295
X029Y0297843
X0287Y0307685
X027Y0308
X0269661Y0295
X02715Y0283
X0269Y0275
X02825Y0274858
X02905Y02765
X02925Y02625
X02785
X02835Y02555
X027
X0251559Y0256
Y0261595
X025Y0266
X02505Y02705
X0252Y028
X02515Y02845
X02445Y02875
X02335Y02885
X0227
X023Y02975
X0212Y0298
Y02865
X0199Y028675
X01975Y0297
X02005Y0308
X0187Y0286
X0186Y02705
X0179Y0271
X0176Y0258
X01765Y02525
X0176Y02435
X01985Y02405
X0223Y02395
X02325Y02425
X0243Y02435
X025215Y02455
X02115Y0254
X0212Y0259815
Y02665
X01965Y026724
X0249Y0304
X0299Y0255
X02025Y0323
X0195Y0322
X01957Y03168
X0191Y0317
X0184Y03185
T03
X018Y0302657
Y03125
Y0322343
T04
X01785Y028
Y029
X0178Y0332
X0188
X0198
T05
X063165Y0257142
Y0274858
Y0288
Y0305717
X0657241
Y0288
Y0274858
Y0257142
X0550591Y0257142
Y0274858
Y0288
Y0305716
X0525
Y0288
Y0274858
Y0257142
X0443795
Y0274858
X0444Y0288
Y0305716
X0418409
Y0288
X0418205Y0274858
Y0257142
X0336795
Y0274858
X0337295Y0288
Y0305716
X0311704
Y0288
X0311205Y0274858
Y0257142
T06
X0191358Y0244328
Y0260076
M30
