G04*
G04 #@! TF.GenerationSoftware,Altium Limited,Altium Designer,18.1.9 (240)*
G04*
G04 Layer_Color=65535*
%FSLAX24Y24*%
%MOIN*%
G70*
G01*
G75*
%ADD10C,0.0100*%
%ADD11C,0.0080*%
%ADD12C,0.0050*%
%ADD13C,0.0060*%
%ADD14C,0.0039*%
D10*
X33139Y29686D02*
G03*
X33139Y29686I-689J0D01*
G01*
X43809D02*
G03*
X43809Y29686I-689J0D01*
G01*
X54469Y29686D02*
G03*
X54469Y29686I-689J0D01*
G01*
X65134D02*
G03*
X65134Y29686I-689J0D01*
G01*
X54469Y26600D02*
G03*
X54469Y26600I-689J0D01*
G01*
X33089Y26600D02*
G03*
X33089Y26600I-689J0D01*
G01*
X43789D02*
G03*
X43789Y26600I-689J0D01*
G01*
X65134Y26600D02*
G03*
X65134Y26600I-689J0D01*
G01*
X33631Y28505D02*
Y30867D01*
X31269D02*
X33631D01*
X31269Y28505D02*
Y30867D01*
Y28505D02*
X33631D01*
X41939Y28505D02*
Y30867D01*
Y28505D02*
X44302D01*
Y30867D01*
X41939D02*
X44302D01*
X54961Y28505D02*
Y30867D01*
X52598D02*
X54961D01*
X52598Y28505D02*
Y30867D01*
Y28505D02*
X54961D01*
X63263Y28505D02*
Y30867D01*
Y28505D02*
X65626D01*
Y30867D01*
X63263D02*
X65626D01*
X18075Y27543D02*
X18334D01*
X17378D02*
X17558D01*
X18334D02*
Y29472D01*
X17378Y27543D02*
Y29472D01*
X18334D01*
X17558Y27543D02*
X18075D01*
X17331Y29675D02*
X18748D01*
Y32589D01*
X17331Y29675D02*
Y32589D01*
X18748D01*
X54961Y25419D02*
Y27781D01*
X52598D02*
X54961D01*
X52598Y25419D02*
Y27781D01*
Y25419D02*
X54961D01*
X31219D02*
Y27781D01*
Y25419D02*
X33581D01*
Y27781D01*
X31219D02*
X33581D01*
X41919D02*
X44281D01*
Y25419D02*
Y27781D01*
X41919Y25419D02*
X44281D01*
X41919D02*
Y27781D01*
X63263Y27781D02*
X65626D01*
Y25419D02*
Y27781D01*
X63263Y25419D02*
X65626D01*
X63263D02*
Y27781D01*
D11*
X18769Y28334D02*
X18860Y28425D01*
X19839Y28015D02*
Y28435D01*
X18869D02*
X19839D01*
X18869Y28015D02*
Y28425D01*
Y28015D02*
X19839D01*
X18769Y28106D02*
X18869Y28015D01*
X18769Y28106D02*
Y28334D01*
X18669Y27659D02*
X18760Y27750D01*
X19739Y27340D02*
Y27760D01*
X18769D02*
X19739D01*
X18769Y27340D02*
Y27750D01*
Y27340D02*
X19739D01*
X18669Y27431D02*
X18769Y27340D01*
X18669Y27431D02*
Y27659D01*
D12*
X18650Y28405D02*
X18730D01*
X18690Y28355D02*
Y28455D01*
X18550Y27730D02*
X18630D01*
X18590Y27680D02*
Y27780D01*
D13*
X51184Y26600D02*
Y27000D01*
X50684Y26600D02*
Y27000D01*
Y25900D02*
Y26300D01*
X51184Y25900D02*
Y26300D01*
X50684Y27000D02*
X51184D01*
X50684Y25900D02*
X51184D01*
X21158Y32963D02*
X21948D01*
Y32183D02*
Y32963D01*
Y32183D02*
X22738D01*
Y32953D01*
X23518D01*
Y32183D02*
Y32953D01*
Y32183D02*
X24318D01*
Y32963D01*
X25088D01*
X25098Y32953D01*
Y31293D02*
Y32953D01*
X20632Y23677D02*
X25750D01*
X20632Y33519D02*
X25750D01*
X25751Y23677D02*
Y33519D01*
X20631Y23677D02*
Y33519D01*
X61600Y27050D02*
Y27450D01*
X61100Y27050D02*
Y27450D01*
Y26350D02*
Y26750D01*
X61600Y26350D02*
Y26750D01*
X61100Y27450D02*
X61600D01*
X61100Y26350D02*
X61600D01*
X61100Y29234D02*
Y29634D01*
X61600Y29234D02*
Y29634D01*
Y29934D02*
Y30334D01*
X61100Y29934D02*
Y30334D01*
Y29234D02*
X61600D01*
X61100Y30334D02*
X61600D01*
X50700Y28650D02*
Y29050D01*
X51200Y28650D02*
Y29050D01*
Y29350D02*
Y29750D01*
X50700Y29350D02*
Y29750D01*
Y28650D02*
X51200D01*
X50700Y29750D02*
X51200D01*
D14*
X18531Y31673D02*
Y31608D01*
Y31640D01*
X18335D01*
Y31673D01*
Y31608D01*
X20200Y33500D02*
Y33697D01*
X20266Y33631D01*
X20331Y33697D01*
Y33500D01*
X20397D02*
X20462D01*
X20430D01*
Y33697D01*
X20397Y33664D01*
X52331Y28234D02*
X52298Y28267D01*
X52233D01*
X52200Y28234D01*
Y28201D01*
X52233Y28168D01*
X52298D01*
X52331Y28136D01*
Y28103D01*
X52298Y28070D01*
X52233D01*
X52200Y28103D01*
X52397Y28234D02*
X52430Y28267D01*
X52495D01*
X52528Y28234D01*
Y28201D01*
X52495Y28168D01*
X52528Y28136D01*
Y28103D01*
X52495Y28070D01*
X52430D01*
X52397Y28103D01*
Y28136D01*
X52430Y28168D01*
X52397Y28201D01*
Y28234D01*
X52430Y28168D02*
X52495D01*
X63001Y28234D02*
X62968Y28267D01*
X62903D01*
X62870Y28234D01*
Y28201D01*
X62903Y28168D01*
X62968D01*
X63001Y28136D01*
Y28103D01*
X62968Y28070D01*
X62903D01*
X62870Y28103D01*
X63067Y28267D02*
X63198D01*
Y28234D01*
X63067Y28103D01*
Y28070D01*
X51631Y30814D02*
X51598Y30847D01*
X51533D01*
X51500Y30814D01*
Y30781D01*
X51533Y30748D01*
X51598D01*
X51631Y30716D01*
Y30683D01*
X51598Y30650D01*
X51533D01*
X51500Y30683D01*
X51828Y30847D02*
X51762Y30814D01*
X51697Y30748D01*
Y30683D01*
X51730Y30650D01*
X51795D01*
X51828Y30683D01*
Y30716D01*
X51795Y30748D01*
X51697D01*
X62469Y30714D02*
X62436Y30747D01*
X62371D01*
X62338Y30714D01*
Y30681D01*
X62371Y30648D01*
X62436D01*
X62469Y30616D01*
Y30583D01*
X62436Y30550D01*
X62371D01*
X62338Y30583D01*
X62666Y30747D02*
X62535D01*
Y30648D01*
X62600Y30681D01*
X62633D01*
X62666Y30648D01*
Y30583D01*
X62633Y30550D01*
X62567D01*
X62535Y30583D01*
X30951Y28234D02*
X30918Y28267D01*
X30853D01*
X30820Y28234D01*
Y28201D01*
X30853Y28168D01*
X30918D01*
X30951Y28136D01*
Y28103D01*
X30918Y28070D01*
X30853D01*
X30820Y28103D01*
X31115Y28070D02*
Y28267D01*
X31017Y28168D01*
X31148D01*
X41651Y28234D02*
X41618Y28267D01*
X41553D01*
X41520Y28234D01*
Y28201D01*
X41553Y28168D01*
X41618D01*
X41651Y28136D01*
Y28103D01*
X41618Y28070D01*
X41553D01*
X41520Y28103D01*
X41717Y28234D02*
X41750Y28267D01*
X41815D01*
X41848Y28234D01*
Y28201D01*
X41815Y28168D01*
X41782D01*
X41815D01*
X41848Y28136D01*
Y28103D01*
X41815Y28070D01*
X41750D01*
X41717Y28103D01*
X30481Y30564D02*
X30448Y30597D01*
X30383D01*
X30350Y30564D01*
Y30531D01*
X30383Y30498D01*
X30448D01*
X30481Y30466D01*
Y30433D01*
X30448Y30400D01*
X30383D01*
X30350Y30433D01*
X30678Y30400D02*
X30547D01*
X30678Y30531D01*
Y30564D01*
X30645Y30597D01*
X30580D01*
X30547Y30564D01*
X40981Y30664D02*
X40948Y30697D01*
X40883D01*
X40850Y30664D01*
Y30631D01*
X40883Y30598D01*
X40948D01*
X40981Y30566D01*
Y30533D01*
X40948Y30500D01*
X40883D01*
X40850Y30533D01*
X41047Y30500D02*
X41112D01*
X41080D01*
Y30697D01*
X41047Y30664D01*
X50690Y27270D02*
Y27467D01*
X50788D01*
X50821Y27434D01*
Y27368D01*
X50788Y27336D01*
X50690D01*
X50756D02*
X50821Y27270D01*
X50887Y27434D02*
X50920Y27467D01*
X50985D01*
X51018Y27434D01*
Y27401D01*
X50985Y27368D01*
X51018Y27336D01*
Y27303D01*
X50985Y27270D01*
X50920D01*
X50887Y27303D01*
Y27336D01*
X50920Y27368D01*
X50887Y27401D01*
Y27434D01*
X50920Y27368D02*
X50985D01*
X61110Y27720D02*
Y27917D01*
X61208D01*
X61241Y27884D01*
Y27818D01*
X61208Y27786D01*
X61110D01*
X61176D02*
X61241Y27720D01*
X61307Y27917D02*
X61438D01*
Y27884D01*
X61307Y27753D01*
Y27720D01*
X50710Y30020D02*
Y30217D01*
X50808D01*
X50841Y30184D01*
Y30118D01*
X50808Y30086D01*
X50710D01*
X50776D02*
X50841Y30020D01*
X51038Y30217D02*
X50972Y30184D01*
X50907Y30118D01*
Y30053D01*
X50940Y30020D01*
X51005D01*
X51038Y30053D01*
Y30086D01*
X51005Y30118D01*
X50907D01*
X61110Y30600D02*
Y30797D01*
X61208D01*
X61241Y30764D01*
Y30698D01*
X61208Y30666D01*
X61110D01*
X61176D02*
X61241Y30600D01*
X61438Y30797D02*
X61307D01*
Y30698D01*
X61372Y30731D01*
X61405D01*
X61438Y30698D01*
Y30633D01*
X61405Y30600D01*
X61340D01*
X61307Y30633D01*
X17320Y33073D02*
Y32876D01*
Y32941D01*
X17451Y33073D01*
X17353Y32974D01*
X17451Y32876D01*
X17517D02*
X17582D01*
X17550D01*
Y33073D01*
X17517Y33040D01*
X18183Y27203D02*
X18249D01*
X18216D01*
Y27367D01*
X18249Y27400D01*
X18281D01*
X18314Y27367D01*
X17986Y27400D02*
X18117D01*
X17986Y27269D01*
Y27236D01*
X18019Y27203D01*
X18085D01*
X18117Y27236D01*
X18100Y27972D02*
Y27775D01*
X18198D01*
X18231Y27808D01*
Y27939D01*
X18198Y27972D01*
X18100D01*
X18395Y27775D02*
Y27972D01*
X18297Y27873D01*
X18428D01*
X18000Y27597D02*
Y27400D01*
X18098D01*
X18131Y27433D01*
Y27564D01*
X18098Y27597D01*
X18000D01*
X18197Y27564D02*
X18230Y27597D01*
X18295D01*
X18328Y27564D01*
Y27531D01*
X18295Y27498D01*
X18262D01*
X18295D01*
X18328Y27466D01*
Y27433D01*
X18295Y27400D01*
X18230D01*
X18197Y27433D01*
M02*
